<svg width="17" height="21" viewBox="0 0 17 21" fill="none" xmlns="http://www.w3.org/2000/svg">
<path fill-rule="evenodd" clip-rule="evenodd" d="M8.37469 1C8.66888 1 8.96675 1.01115 9.03662 1.02972C9.10649 1.05201 9.26461 1.08545 9.38597 1.10774C9.50732 1.13375 9.73899 1.20063 9.9008 1.25636C10.0626 1.31208 10.2869 1.40497 10.3972 1.4607C10.5076 1.51643 10.7061 1.63531 10.8385 1.72448C10.9709 1.80993 11.2026 1.99198 11.3534 2.12202C11.5041 2.25577 11.7027 2.45268 11.7946 2.56042C11.8866 2.67188 12.0116 2.82792 12.0741 2.90966C12.1366 2.9914 12.2396 3.14744 12.3021 3.25518C12.3683 3.35921 12.486 3.60442 12.5632 3.79018C12.6441 3.97966 12.7434 4.26946 12.7839 4.43293C12.8243 4.5964 12.8721 4.92335 12.8942 5.15741C12.9162 5.43606 12.9162 5.72957 12.8942 5.99335C12.8758 6.21998 12.8353 6.50978 12.8022 6.64353C12.7728 6.77728 12.7066 7.00391 12.6551 7.14509C12.6037 7.28627 12.4933 7.53891 12.4088 7.70238C12.3242 7.86586 12.1771 8.10735 12.0778 8.2411C11.9822 8.37485 11.7763 8.61263 11.6181 8.7761C11.4637 8.93586 11.2099 9.16249 11.0592 9.27767C10.9084 9.39284 10.651 9.55632 10.4892 9.64177C10.3274 9.72722 10.081 9.83868 9.93757 9.89069C9.79416 9.93899 9.56616 10.0096 9.42274 10.043C9.27932 10.0765 8.99249 10.1173 8.7792 10.1322C8.56592 10.1508 8.21289 10.1508 7.98857 10.1322C7.76425 10.1136 7.42593 10.0616 7.23471 10.0096C7.04348 9.96128 6.74562 9.85725 6.57278 9.78295C6.39995 9.70493 6.10208 9.53774 5.91086 9.4077C5.71963 9.28138 5.42177 9.03989 5.24893 8.86899C5.07609 8.69808 4.85913 8.45659 4.76352 8.33398C4.67158 8.21138 4.51713 7.96989 4.41785 7.79527C4.31856 7.62065 4.17514 7.29742 4.10159 7.07079C4.02069 6.83672 3.93979 6.48005 3.90301 6.23485C3.86256 5.93762 3.84785 5.67755 3.86256 5.38033C3.87359 5.14627 3.91037 4.81932 3.94346 4.65585C3.97656 4.49237 4.04643 4.2323 4.09791 4.07998C4.1494 3.92765 4.24133 3.70102 4.30017 3.57841C4.36268 3.45581 4.49875 3.22174 4.60539 3.05827C4.71203 2.8948 4.929 2.61987 5.08713 2.44896C5.24893 2.27806 5.51738 2.02914 5.69021 1.8991C5.86305 1.76907 6.16827 1.57959 6.37053 1.47556C6.57278 1.37153 6.84491 1.25636 6.97729 1.21549C7.10968 1.17833 7.35606 1.11146 7.5289 1.07431C7.74954 1.02601 7.9996 1.00372 8.37469 1ZM7.30826 2.27806C7.19793 2.31521 6.98097 2.4081 6.8302 2.48612C6.67943 2.56414 6.42201 2.73504 6.26021 2.86508C6.0984 2.99511 5.85202 3.24404 5.71596 3.41494C5.57622 3.58584 5.39235 3.87564 5.30041 4.0614C5.21216 4.24716 5.10184 4.52953 5.06138 4.693C4.99887 4.93078 4.98048 5.1054 4.9768 5.54752C4.9768 5.95991 4.99151 6.17169 5.03932 6.36488C5.07609 6.50606 5.14964 6.74384 5.20112 6.88502C5.25628 7.0262 5.38131 7.27141 5.48428 7.42374C5.58357 7.57607 5.78215 7.82499 5.92557 7.97732C6.06898 8.12593 6.28595 8.32284 6.4073 8.40829C6.52865 8.49746 6.7493 8.63121 6.89639 8.7018C7.03981 8.7761 7.28251 8.86899 7.42961 8.90985C7.57303 8.95072 7.84515 8.99902 8.02534 9.0176C8.23495 9.03989 8.49237 9.03989 8.72404 9.0176C8.9263 8.99902 9.19107 8.95815 9.31242 8.92472C9.43377 8.89499 9.68383 8.79468 9.86403 8.70551C10.0442 8.61635 10.3016 8.46402 10.434 8.35999C10.5664 8.25968 10.7723 8.0702 10.8937 7.94016C11.015 7.81013 11.1805 7.60207 11.2577 7.47947C11.3386 7.35686 11.4563 7.13766 11.5225 6.99648C11.5887 6.8553 11.6659 6.6361 11.699 6.51349C11.7284 6.39089 11.7726 6.13082 11.791 5.93762C11.8167 5.7147 11.8167 5.45463 11.7946 5.23172C11.7763 5.03852 11.7358 4.78217 11.7027 4.66699C11.6733 4.5481 11.6034 4.34748 11.5519 4.22116C11.5005 4.09112 11.3681 3.85334 11.2614 3.68987C11.1548 3.5264 10.9305 3.2589 10.7613 3.09542C10.5921 2.93195 10.3531 2.73133 10.2318 2.64959C10.1104 2.57157 9.90448 2.45639 9.77209 2.39695C9.63971 2.3375 9.40803 2.25577 9.25726 2.21862C9.08442 2.17032 8.80494 2.14059 8.5034 2.12945C8.19082 2.1183 7.93709 2.12945 7.76793 2.16289C7.62819 2.18889 7.41858 2.24091 7.30826 2.27806ZM4.71571 10.1768C4.75616 10.1768 4.87384 10.1953 4.97313 10.2214C5.0908 10.2511 5.39235 10.4183 5.80054 10.6783C6.15356 10.905 6.50291 11.1205 6.57278 11.1576C6.64265 11.1948 6.87433 11.2876 7.08761 11.3657C7.3009 11.44 7.61348 11.5291 7.78631 11.5626C7.95915 11.596 8.28643 11.6257 8.52179 11.6257C8.80494 11.6257 9.05133 11.6034 9.27565 11.5514C9.45584 11.5143 9.76474 11.4214 9.95596 11.3508C10.1472 11.2802 10.3715 11.191 10.4524 11.1502C10.5333 11.1056 10.8312 10.9235 11.1143 10.7415C11.3975 10.5557 11.7137 10.3625 11.813 10.3142C11.916 10.2622 12.0521 10.2102 12.1183 10.1953C12.1808 10.1842 12.4051 10.1916 12.6147 10.2139C12.8206 10.2362 13.1295 10.2957 13.3024 10.3477C13.4752 10.396 13.74 10.5037 13.8907 10.5855C14.0415 10.6635 14.2805 10.8195 14.4203 10.9273C14.56 11.0313 14.766 11.2282 14.88 11.3619C14.9903 11.4957 15.1484 11.7112 15.233 11.8449C15.3212 11.9787 15.4463 12.2016 15.5198 12.3465C15.5897 12.4914 15.7037 12.7589 15.7736 12.9409C15.8471 13.1267 15.9537 13.4834 16.0163 13.7397C16.0788 13.9961 16.167 14.4122 16.2075 14.6686C16.2479 14.9249 16.2994 15.3856 16.3215 15.6903C16.3435 15.9986 16.3546 16.5076 16.3435 16.8234C16.3325 17.2395 16.3031 17.481 16.2479 17.6965C16.2038 17.86 16.1082 18.1275 16.0273 18.291C15.9501 18.4544 15.7993 18.6996 15.689 18.8408C15.5787 18.9783 15.3764 19.1864 15.233 19.3015C15.0896 19.4167 14.8248 19.5802 14.6446 19.6693C14.4644 19.7548 14.1629 19.8662 13.6517 20H3.35509L3.02412 19.9108C2.84025 19.8662 2.56078 19.7622 2.39897 19.6879C2.23717 19.6136 2.01285 19.4836 1.90253 19.4018C1.79221 19.3164 1.5826 19.1269 1.44286 18.9746C1.25899 18.774 1.13763 18.5993 1.0126 18.3467C0.916992 18.1535 0.814026 17.8934 0.78093 17.7708C0.751511 17.6482 0.71106 17.4327 0.688995 17.2878C0.670609 17.1429 0.652222 16.8457 0.652222 16.6191C0.652222 16.3962 0.670609 15.9763 0.688995 15.6903C0.71106 15.4042 0.762543 14.9509 0.802994 14.6871C0.847122 14.4233 0.935379 13.9849 1.00157 13.7212C1.06776 13.4574 1.19279 13.0635 1.2737 12.8481C1.3546 12.6326 1.50905 12.3093 1.61201 12.1236C1.71498 11.9415 1.87678 11.6889 1.9724 11.5663C2.06433 11.4437 2.22981 11.2579 2.33278 11.1502C2.43942 11.0424 2.63065 10.8827 2.75568 10.7972C2.88438 10.7118 3.10503 10.5892 3.24477 10.5223C3.38451 10.4554 3.62721 10.3662 3.77798 10.3254C3.92876 10.2808 4.18617 10.2325 4.34798 10.2139C4.50978 10.1991 4.67526 10.1805 4.71571 10.1768ZM3.91405 11.4474C3.78902 11.492 3.59044 11.5886 3.46908 11.6592C3.35141 11.7298 3.16386 11.8895 3.04986 12.0121C2.93587 12.1347 2.77774 12.3428 2.68948 12.4765C2.6049 12.6103 2.49458 12.8035 2.4431 12.9038C2.39162 13.0078 2.28497 13.2902 2.20407 13.5354C2.12317 13.7806 2.01285 14.2004 1.96504 14.4642C1.91356 14.728 1.85472 15.0995 1.83266 15.2816C1.81059 15.4673 1.78485 15.9243 1.77382 16.3033C1.75543 16.8531 1.75911 17.0501 1.80691 17.2878C1.84001 17.4513 1.91724 17.6928 1.98343 17.8266C2.0533 17.9752 2.18568 18.1535 2.32175 18.291C2.44678 18.4136 2.64535 18.5696 2.76671 18.6328C2.88806 18.6959 3.09399 18.7814 3.22638 18.8185C3.45438 18.8817 3.73018 18.8854 8.5034 18.8854C13.295 18.8854 13.5524 18.8817 13.7804 18.8148C13.9128 18.7777 14.1114 18.7034 14.2217 18.6439C14.332 18.5882 14.5306 18.4433 14.6556 18.3244C14.8248 18.1684 14.9278 18.0309 15.016 17.8451C15.0859 17.7002 15.1668 17.4699 15.1962 17.325C15.2256 17.1801 15.2514 16.8829 15.2514 16.6562C15.2514 16.4333 15.233 16.0135 15.2146 15.7274C15.1925 15.4413 15.1447 15.0066 15.1043 14.7614C15.0638 14.5162 14.9866 14.1484 14.9314 13.9441C14.88 13.7397 14.788 13.4462 14.7292 13.2939C14.6667 13.1416 14.5784 12.9335 14.5269 12.8295C14.4754 12.7292 14.3541 12.5285 14.2585 12.3837C14.1629 12.2388 13.979 12.027 13.8503 11.9044C13.7216 11.7855 13.523 11.6406 13.4127 11.5849C13.3024 11.5291 13.1258 11.4548 13.0266 11.4214C12.9236 11.388 12.7287 11.3471 12.5853 11.3285C12.3462 11.2988 12.3168 11.3025 12.1624 11.3917C12.0704 11.4437 11.8241 11.6034 11.6108 11.7446C11.3975 11.8858 11.0592 12.079 10.8569 12.1793C10.6547 12.2759 10.309 12.4171 10.0847 12.4877C9.86035 12.5583 9.52203 12.6437 9.33081 12.6772C9.13223 12.7106 8.77552 12.7366 8.5034 12.7366C8.23127 12.7366 7.87457 12.7106 7.67599 12.6772C7.48477 12.6437 7.13542 12.5546 6.90375 12.4765C6.67207 12.4022 6.35582 12.2796 6.20505 12.209C6.05427 12.1384 5.65344 11.9044 5.31145 11.6852C4.97313 11.466 4.68629 11.2914 4.67158 11.2914C4.6532 11.2951 4.53184 11.3099 4.3921 11.3285C4.25604 11.3471 4.04275 11.3991 3.91405 11.4474Z" fill="#1A74BB" stroke="#1A74BB" stroke-width="0.4"/>
</svg>
