<svg width="19" height="18" viewBox="0 0 19 18" fill="none" xmlns="http://www.w3.org/2000/svg">
<path d="M1.20893 9.39857V3.51629C1.20893 2.39424 1.37895 1.00017 4.33707 1.00017C6.89399 1.00017 12.4521 1.00017 14.9116 1.00017C15.7163 0.988839 17.3257 1.5306 17.3257 3.7883C17.3257 6.04601 17.3257 9.60258 17.3257 11.0986C17.3257 12.1867 17.1217 14.4308 14.5376 14.3288H11.9534L9.87934 16.7089C9.64132 17.0149 8.98849 17.1713 8.55327 16.7089C8.11805 16.2465 7.12521 14.9295 6.68319 14.3288H3.45303C2.705 14.2835 1.20893 13.7644 1.20893 12.0507M9.26732 4V11.4387" stroke="white" stroke-width="1.5" stroke-linecap="round"/>
</svg>
