<svg width="27" height="27" viewBox="0 0 27 27" fill="none" xmlns="http://www.w3.org/2000/svg">
<path d="M18.9 18.3601H7.01999C6.85799 18.3601 6.69599 18.2521 6.58799 18.1441C6.47999 18.0361 6.47999 17.8201 6.53399 17.6581L7.55999 15.0661L6.53399 5.40007H3.23999V4.32007H7.01999C7.28999 4.32007 7.50599 4.53607 7.55999 4.80607L8.63999 15.0661C8.63999 15.1741 8.63999 15.2281 8.58599 15.3361L7.82999 17.2801H19.44L18.9 18.3601Z" fill="#004C9A"/>
<path d="M8.20795 15.66L7.99195 14.58L20.5199 11.988V7.55998H7.55995V6.47998H21.0599C21.3839 6.47998 21.5999 6.69598 21.5999 7.01998V12.42C21.5999 12.69 21.4379 12.906 21.1679 12.96L8.20795 15.66ZM19.4399 21.6C18.2519 21.6 17.2799 20.628 17.2799 19.44C17.2799 18.252 18.2519 17.28 19.4399 17.28C20.6279 17.28 21.5999 18.252 21.5999 19.44C21.5999 20.628 20.6279 21.6 19.4399 21.6ZM19.4399 18.36C18.8459 18.36 18.3599 18.846 18.3599 19.44C18.3599 20.034 18.8459 20.52 19.4399 20.52C20.0339 20.52 20.5199 20.034 20.5199 19.44C20.5199 18.846 20.0339 18.36 19.4399 18.36ZM6.47995 21.6C5.29195 21.6 4.31995 20.628 4.31995 19.44C4.31995 18.252 5.29195 17.28 6.47995 17.28C7.66795 17.28 8.63995 18.252 8.63995 19.44C8.63995 20.628 7.66795 21.6 6.47995 21.6ZM6.47995 18.36C5.88595 18.36 5.39995 18.846 5.39995 19.44C5.39995 20.034 5.88595 20.52 6.47995 20.52C7.07395 20.52 7.55995 20.034 7.55995 19.44C7.55995 18.846 7.07395 18.36 6.47995 18.36Z" fill="#004C9A"/>
</svg>
