<svg width="14" height="14" viewBox="0 0 14 14" fill="none" xmlns="http://www.w3.org/2000/svg">
<g clip-path="url(#clip0_1085_2832)">
<path d="M1.70082 4.10156L2.42732 12.8717C2.47938 13.5041 3.01811 14 3.65297 14H10.3469C10.9817 14 11.5205 13.5041 11.5725 12.8717L12.299 4.10156H1.70082ZM4.94874 12.3594C4.73404 12.3594 4.5534 12.1924 4.53979 11.9748L4.12963 5.35765C4.1156 5.13136 4.28743 4.9367 4.51334 4.92267C4.74765 4.90623 4.93392 5.08009 4.94833 5.30638L5.35848 11.9236C5.373 12.1579 5.18759 12.3594 4.94874 12.3594ZM7.41006 11.9492C7.41006 12.1759 7.22661 12.3594 6.9999 12.3594C6.7732 12.3594 6.58975 12.1759 6.58975 11.9492V5.33203C6.58975 5.10532 6.7732 4.92188 6.9999 4.92188C7.22661 4.92188 7.41006 5.10532 7.41006 5.33203V11.9492ZM9.87018 5.35768L9.46002 11.9749C9.44654 12.1902 9.26708 12.3696 9.02504 12.3586C8.79912 12.3446 8.62729 12.1499 8.64132 11.9236L9.05148 5.30641C9.0655 5.08011 9.26377 4.91548 9.48646 4.9227C9.71238 4.93672 9.8842 5.13138 9.87018 5.35768Z" fill="#4D93CA"/>
<path d="M12.332 1.64062H9.87109V1.23047C9.87109 0.551961 9.31913 0 8.64062 0H5.35938C4.68087 0 4.12891 0.551961 4.12891 1.23047V1.64062H1.66797C1.21491 1.64062 0.847656 2.00788 0.847656 2.46094C0.847656 2.91394 1.21491 3.28125 1.66797 3.28125C5.44048 3.28125 8.55966 3.28125 12.332 3.28125C12.7851 3.28125 13.1523 2.91394 13.1523 2.46094C13.1523 2.00788 12.7851 1.64062 12.332 1.64062ZM9.05078 1.64062H4.94922V1.23047C4.94922 1.00417 5.13308 0.820312 5.35938 0.820312H8.64062C8.86692 0.820312 9.05078 1.00417 9.05078 1.23047V1.64062Z" fill="#4D93CA"/>
</g>
<defs>
<clipPath id="clip0_1085_2832">
<rect width="14" height="14" fill="white"/>
</clipPath>
</defs>
</svg>
