<svg width="14" height="13" viewBox="0 0 14 13" fill="none" xmlns="http://www.w3.org/2000/svg">
<path d="M2.31445 3.80859L2.98906 11.9523C3.0374 12.5395 3.53765 13 4.12717 13H10.3429C10.9324 13 11.4327 12.5395 11.481 11.9523L12.1556 3.80859H2.31445ZM5.33038 11.4766C5.13101 11.4766 4.96328 11.3215 4.95063 11.1195L4.56978 4.97496C4.55675 4.76483 4.7163 4.58407 4.92608 4.57105C5.14365 4.55579 5.31661 4.71722 5.33 4.92736L5.71086 11.0719C5.72434 11.2895 5.55216 11.4766 5.33038 11.4766ZM7.61589 11.0957C7.61589 11.3062 7.44554 11.4766 7.23503 11.4766C7.02452 11.4766 6.85417 11.3062 6.85417 11.0957V4.95117C6.85417 4.74066 7.02452 4.57031 7.23503 4.57031C7.44554 4.57031 7.61589 4.74066 7.61589 4.95117V11.0957ZM9.90028 4.97499L9.51942 11.1195C9.50691 11.3194 9.34027 11.4861 9.11551 11.4758C8.90573 11.4628 8.74618 11.282 8.7592 11.0719L9.14006 4.92738C9.15309 4.71725 9.33719 4.56437 9.54398 4.57107C9.75375 4.5841 9.91331 4.76486 9.90028 4.97499Z" fill="#B3B3B3"/>
<path d="M12.1863 1.52344H9.90112V1.14258C9.90112 0.512535 9.38859 0 8.75854 0H5.71167C5.08163 0 4.56909 0.512535 4.56909 1.14258V1.52344H2.28394C1.86324 1.52344 1.52222 1.86446 1.52222 2.28516C1.52222 2.7058 1.86324 3.04688 2.28394 3.04688C5.78698 3.04688 8.68336 3.04688 12.1863 3.04688C12.607 3.04688 12.948 2.7058 12.948 2.28516C12.948 1.86446 12.607 1.52344 12.1863 1.52344ZM9.1394 1.52344H5.33081V1.14258C5.33081 0.932445 5.50154 0.761719 5.71167 0.761719H8.75854C8.96868 0.761719 9.1394 0.932445 9.1394 1.14258V1.52344Z" fill="#B3B3B3"/>
</svg>
