<svg width="40" height="40" viewBox="0 0 40 40" fill="none" xmlns="http://www.w3.org/2000/svg">
<rect width="40" height="40" rx="6" fill="url(#paint0_linear_811_2706)"/>
<g clip-path="url(#clip0_811_2706)">
<path fill-rule="evenodd" clip-rule="evenodd" d="M5.94958 21.7637H33.1238V26.5246H5.94958V21.7637Z" fill="#2A68A6"/>
<path fill-rule="evenodd" clip-rule="evenodd" d="M24.2306 21.7637H33.1251V25.2185L31.4216 25.2448L29.8378 23.1164H24.2306V21.7637Z" fill="#275C91"/>
<path d="M11.0816 29.9999C12.5335 29.9999 13.7104 28.8229 13.7104 27.371C13.7104 25.9192 12.5335 24.7422 11.0816 24.7422C9.62973 24.7422 8.45276 25.9192 8.45276 27.371C8.45276 28.8229 9.62973 29.9999 11.0816 29.9999Z" fill="#1D2F42"/>
<path d="M26.3423 29.9999C27.7941 29.9999 28.9711 28.8229 28.9711 27.371C28.9711 25.9192 27.7941 24.7422 26.3423 24.7422C24.8904 24.7422 23.7134 25.9192 23.7134 27.371C23.7134 28.8229 24.8904 29.9999 26.3423 29.9999Z" fill="#1D2F42"/>
<path d="M21.4868 25.0762H15.937C15.4861 25.0762 15.1206 25.4417 15.1206 25.8926V27.6906C15.1206 28.1415 15.4861 28.5071 15.937 28.5071H21.4868C21.9377 28.5071 22.3032 28.1415 22.3032 27.6906V25.8926C22.3032 25.4417 21.9377 25.0762 21.4868 25.0762Z" fill="#1D2F42"/>
<path fill-rule="evenodd" clip-rule="evenodd" d="M5.40018 24.7861H7.18386V27.0439H5.40018C5.23737 27.0439 5.10449 26.911 5.10449 26.747V25.0818C5.10449 24.919 5.23737 24.7861 5.40018 24.7861Z" fill="#1D2F42"/>
<path fill-rule="evenodd" clip-rule="evenodd" d="M4.78725 25.0098H5.10448V26.8342H4.78725C4.71303 26.8342 4.65198 26.7743 4.65198 26.7001V25.1438C4.65198 25.0696 4.71303 25.0098 4.78725 25.0098Z" fill="#F7635B"/>
<path fill-rule="evenodd" clip-rule="evenodd" d="M6.05257 24.9561H6.22136C6.30276 24.9561 6.3698 25.0219 6.3698 25.1033V26.7254C6.3698 26.808 6.30276 26.8738 6.22136 26.8738H6.05257C5.97835 26.8738 5.9173 26.814 5.9173 26.7397V25.0901C5.9173 25.0159 5.97835 24.9561 6.05257 24.9561Z" fill="#FFC42E"/>
<path fill-rule="evenodd" clip-rule="evenodd" d="M29.4907 28.1327H33.1334C33.2963 28.1327 33.4303 27.9999 33.4303 27.8371V26.209C33.4303 26.045 33.2963 25.9121 33.1334 25.9121H29.4907V28.1327Z" fill="#1D2F42"/>
<path d="M32.639 26.6455H31.2013C31.112 26.6455 31.0397 26.7045 31.0397 26.7772V27.1986C31.0397 27.2713 31.112 27.3303 31.2013 27.3303H32.639C32.7283 27.3303 32.8006 27.2713 32.8006 27.1986V26.7772C32.8006 26.7045 32.7283 26.6455 32.639 26.6455Z" fill="#FFC42E"/>
<path d="M11.0816 28.8321C11.8882 28.8321 12.542 28.1782 12.542 27.3716C12.542 26.565 11.8882 25.9111 11.0816 25.9111C10.275 25.9111 9.62109 26.565 9.62109 27.3716C9.62109 28.1782 10.275 28.8321 11.0816 28.8321Z" fill="#C6CBD6"/>
<path d="M26.3422 28.8321C27.1488 28.8321 27.8027 28.1782 27.8027 27.3716C27.8027 26.565 27.1488 25.9111 26.3422 25.9111C25.5356 25.9111 24.8818 26.565 24.8818 27.3716C24.8818 28.1782 25.5356 28.8321 26.3422 28.8321Z" fill="#C6CBD6"/>
<path fill-rule="evenodd" clip-rule="evenodd" d="M18.7119 24.6475H20.5076V25.076H18.7119V24.6475Z" fill="#B9C1C9"/>
<path fill-rule="evenodd" clip-rule="evenodd" d="M4.29883 10H21.67V23.5967H4.29883V10Z" fill="#FFC42E"/>
<path fill-rule="evenodd" clip-rule="evenodd" d="M5.01111 10.7861H20.9446V22.8374H5.01111V10.7861Z" fill="#DEA71D"/>
<path fill-rule="evenodd" clip-rule="evenodd" d="M33.7463 26.2148H33.4291V27.8309H33.7463C33.8205 27.8309 33.8816 27.7699 33.8816 27.6957V26.3489C33.8816 26.2747 33.8205 26.2148 33.7463 26.2148Z" fill="#F7635B"/>
<path fill-rule="evenodd" clip-rule="evenodd" d="M5.20984 10.9668H20.759V22.6314H5.20984V10.9668Z" fill="#EDB423"/>
<path fill-rule="evenodd" clip-rule="evenodd" d="M5.22786 10.9678H6.39503L5.2099 12.032V10.9833L5.22786 10.9678Z" fill="#FFC42E"/>
<path fill-rule="evenodd" clip-rule="evenodd" d="M7.81001 10.9678H8.97599L5.2099 14.352V13.3045L7.81001 10.9678Z" fill="#FFC42E"/>
<path fill-rule="evenodd" clip-rule="evenodd" d="M10.391 10.9678H11.5581L5.2099 16.6732V15.6245L10.391 10.9678Z" fill="#FFC42E"/>
<path fill-rule="evenodd" clip-rule="evenodd" d="M12.9731 10.9678H14.1391L5.2099 18.9932V17.9445L12.9731 10.9678Z" fill="#FFC42E"/>
<path fill-rule="evenodd" clip-rule="evenodd" d="M15.5541 10.9678H16.7212L5.2099 21.3131V20.2645L15.5541 10.9678Z" fill="#FFC42E"/>
<path fill-rule="evenodd" clip-rule="evenodd" d="M18.1362 10.9678H19.3022L6.3244 22.6323H5.2099V22.5857L18.1362 10.9678Z" fill="#FFC42E"/>
<path fill-rule="evenodd" clip-rule="evenodd" d="M20.7591 11.0866V11.9784L8.90536 22.6327H7.73938L20.6717 11.0088L20.7591 11.0866Z" fill="#FFC42E"/>
<path fill-rule="evenodd" clip-rule="evenodd" d="M20.7591 13.251V14.2996L11.4875 22.6327H10.3203L20.7591 13.251Z" fill="#FFC42E"/>
<path fill-rule="evenodd" clip-rule="evenodd" d="M20.7591 15.5703V16.619L14.0684 22.632H12.9025L20.7591 15.5703Z" fill="#FFC42E"/>
<path fill-rule="evenodd" clip-rule="evenodd" d="M20.7591 17.8906V18.9393L16.6506 22.6323H15.4835L20.7591 17.8906Z" fill="#FFC42E"/>
<path fill-rule="evenodd" clip-rule="evenodd" d="M20.7591 20.2109V21.2596L19.2316 22.6327H18.0656L20.7591 20.2109Z" fill="#FFC42E"/>
<path fill-rule="evenodd" clip-rule="evenodd" d="M34.7747 21.4238H35.6031C35.6569 21.4238 35.7012 21.4681 35.7012 21.522V23.6433C35.7012 23.6971 35.6569 23.7414 35.6031 23.7414H34.7747V21.4238Z" fill="#FFC42E"/>
<path fill-rule="evenodd" clip-rule="evenodd" d="M24.2306 10.666H31.4467L35.238 16.7784V24.7631L31.4216 24.8206L29.8378 22.6921H24.2306V10.666Z" fill="#FF576B"/>
<path d="M25.7892 17.5469V21.1334H30.5824H30.6195L30.6422 21.1645L32.1949 23.2499L33.5644 23.2283L33.5823 18.653H33.7296L33.7116 23.3002L33.7104 23.3732L33.6386 23.3744L32.1602 23.3983L32.1219 23.3995L32.0991 23.3684L30.5453 21.2818H25.715H25.6407V21.2076V17.5469H25.7892Z" fill="#F7455A"/>
<path fill-rule="evenodd" clip-rule="evenodd" d="M25.715 12.7442V17.5469H30.6027L32.1781 18.6315L33.6565 18.6195V18.4663L33.7463 18.3717C33.8553 18.2556 33.9103 18.1168 33.9067 17.9551L33.9031 17.7002C33.8984 17.3853 33.8146 17.116 33.6446 16.8502L30.7967 12.4233C30.6829 12.2486 30.5046 12.1504 30.2963 12.1504H26.3099C25.9819 12.1504 25.715 12.4173 25.715 12.7442Z" fill="#76C1EC"/>
<path fill-rule="evenodd" clip-rule="evenodd" d="M33.7045 18.416L33.7464 18.3717C33.8553 18.2556 33.9104 18.1168 33.9068 17.9551L33.9032 17.7002C33.8984 17.3853 33.8146 17.116 33.6446 16.8502L30.7967 12.4233C30.683 12.2486 30.5046 12.1504 30.2963 12.1504H26.31C26.0645 12.1504 25.8527 12.3 25.7629 12.5131C25.867 12.4209 26.0035 12.3659 26.1531 12.3659H30.1407C30.349 12.3659 30.5273 12.4628 30.6399 12.6376L33.489 17.0657C33.659 17.3303 33.7428 17.5996 33.7476 17.9156L33.7511 18.1706C33.7523 18.2592 33.7368 18.3406 33.7045 18.416Z" fill="#F7455A"/>
<path fill-rule="evenodd" clip-rule="evenodd" d="M25.715 17.7743H30.6027L32.1781 18.8589L33.6565 18.8457L33.6709 18.6195L32.1925 18.6315L30.6171 17.5469H25.715V17.7743Z" fill="#FF8795"/>
<path d="M26.3422 28.6671C27.0583 28.6671 27.6387 28.0867 27.6387 27.3707C27.6387 26.6547 27.0583 26.0742 26.3422 26.0742C25.6262 26.0742 25.0458 26.6547 25.0458 27.3707C25.0458 28.0867 25.6262 28.6671 26.3422 28.6671Z" fill="#ECF0F1"/>
<path d="M11.0816 28.6671C11.7976 28.6671 12.378 28.0867 12.378 27.3707C12.378 26.6547 11.7976 26.0742 11.0816 26.0742C10.3655 26.0742 9.7851 26.6547 9.7851 27.3707C9.7851 28.0867 10.3655 28.6671 11.0816 28.6671Z" fill="#ECF0F1"/>
<path d="M11.0816 27.8582C11.3507 27.8582 11.5688 27.6401 11.5688 27.371C11.5688 27.1019 11.3507 26.8838 11.0816 26.8838C10.8125 26.8838 10.5944 27.1019 10.5944 27.371C10.5944 27.6401 10.8125 27.8582 11.0816 27.8582Z" fill="#C6CBD6"/>
<path d="M26.3423 27.8582C26.6113 27.8582 26.8295 27.6401 26.8295 27.371C26.8295 27.1019 26.6113 26.8838 26.3423 26.8838C26.0732 26.8838 25.855 27.1019 25.855 27.371C25.855 27.6401 26.0732 27.8582 26.3423 27.8582Z" fill="#C6CBD6"/>
<path fill-rule="evenodd" clip-rule="evenodd" d="M5.94958 23.5967H21.6699V24.0827H5.94958V23.5967Z" fill="#275C91"/>
<path fill-rule="evenodd" clip-rule="evenodd" d="M24.2306 10.666H31.4755L35.238 16.7784L34.874 16.867L31.2731 11.0204H24.2306V10.666Z" fill="#FF8795"/>
</g>
<defs>
<linearGradient id="paint0_linear_811_2706" x1="38.125" y1="-1.28581e-06" x2="2.5" y2="36.875" gradientUnits="userSpaceOnUse">
<stop stop-color="#FFF7EA"/>
<stop offset="1" stop-color="#FFD9A0"/>
</linearGradient>
<clipPath id="clip0_811_2706">
<rect width="31.5217" height="20" fill="white" transform="translate(4.23914 10)"/>
</clipPath>
</defs>
</svg>
