<svg width="16" height="17" viewBox="0 0 16 17" fill="none" xmlns="http://www.w3.org/2000/svg">
<path d="M2.77235 2.41678C2.09634 2.64128 0.800646 3.53931 1.02598 5.33535C1.0964 5.7563 1.36399 6.64029 2.77235 7.98732L5.40598 10.5832L5.88482 11.1023M5.88482 11.1023L6.49042 10.4849L9.78598 7.25768C10.7155 6.30353 11.7859 4.19037 9.2508 2.41678M5.88482 11.1023V12.3343C5.89429 13.5407 6.68777 15.9626 9.78598 15.9995C10.7586 16.02 12.8117 15.3804 13.2429 12.6577" stroke="white" stroke-width="1.5"/>
<circle cx="13.3662" cy="11.0253" r="1.20579" stroke="white" stroke-width="1.5"/>
<path d="M9.75 1.75C9.75 2.30228 9.30228 2.75 8.75 2.75C8.19772 2.75 7.75 2.30228 7.75 1.75C7.75 1.19772 8.19772 0.75 8.75 0.75C9.30228 0.75 9.75 1.19772 9.75 1.75Z" stroke="white" stroke-width="1.5"/>
<path d="M4.75 1.75C4.75 2.30228 4.30228 2.75 3.75 2.75C3.19772 2.75 2.75 2.30228 2.75 1.75C2.75 1.19772 3.19772 0.75 3.75 0.75C4.30228 0.75 4.75 1.19772 4.75 1.75Z" stroke="white" stroke-width="1.5"/>
</svg>
