<svg width="146" height="134" viewBox="0 0 146 134" fill="none" xmlns="http://www.w3.org/2000/svg">
<path d="M97.6667 53.1876H61.9925L61.4067 48.3159L98.7459 45.3867C101.274 45.1709 103.34 43.2284 103.679 40.7001L104.111 37.3084C104.265 36.0442 103.371 34.8726 102.107 34.7184C100.812 34.5642 99.6709 35.4584 99.5167 36.7226L99.085 40.1142C99.0542 40.4842 98.7459 40.7617 98.3759 40.7617L60.8517 43.7217L58.1692 20.8434H72.9692C74.2334 20.8434 75.2817 19.7951 75.2817 18.5309C75.2817 17.2667 74.2334 16.2184 72.9692 16.2184H57.6142L57.275 13.2584C56.8742 9.77424 54.315 6.8759 50.9234 6.01257L42.7217 3.94673C41.4884 3.6384 40.2242 4.3784 39.9159 5.64257C39.6075 6.8759 40.3475 8.14007 41.6117 8.4484L49.8134 10.5142C51.355 10.8842 52.5267 12.2101 52.7117 13.8134L57.4292 53.8967C54.3767 55.1609 52.1875 58.2134 52.1875 61.7284C52.1875 66.4151 55.98 70.2076 60.6667 70.2076C65.3534 70.2076 69.1459 66.4151 69.1459 61.7284C69.1459 60.3409 68.7759 59.0459 68.19 57.8742H90.1742C89.5884 59.0459 89.2184 60.3409 89.2184 61.7284C89.2184 66.4151 93.0109 70.2076 97.6975 70.2076C102.384 70.2076 106.177 66.4151 106.177 61.7284C106.177 57.0417 102.384 53.2492 97.6975 53.2492L97.6667 53.1876ZM64.5209 61.6667C64.5209 63.7942 62.7942 65.5209 60.6667 65.5209C58.5392 65.5209 56.8125 63.7942 56.8125 61.6667C56.8125 59.5392 58.5392 57.8126 60.6667 57.8126C62.7942 57.8126 64.5209 59.5392 64.5209 61.6667ZM97.6667 65.5209C95.5392 65.5209 93.8125 63.7942 93.8125 61.6667C93.8125 59.5392 95.5392 57.8126 97.6667 57.8126C99.7942 57.8126 101.521 59.5392 101.521 61.6667C101.521 63.7942 99.7942 65.5209 97.6667 65.5209ZM85.2409 24.5742L91.315 18.5001L85.2409 12.4259C84.3467 11.5317 84.3467 10.0517 85.2409 9.15757C86.135 8.2634 87.615 8.2634 88.5092 9.15757L94.5834 15.2317L100.658 9.15757C101.552 8.2634 103.032 8.2634 103.926 9.15757C104.82 10.0517 104.82 11.5317 103.926 12.4259L97.8517 18.5001L103.926 24.5742C104.82 25.4684 104.82 26.9484 103.926 27.8426C103.463 28.3051 102.878 28.5209 102.292 28.5209C101.706 28.5209 101.12 28.3051 100.658 27.8426L94.5834 21.7684L88.5092 27.8426C88.0467 28.3051 87.4609 28.5209 86.875 28.5209C86.2892 28.5209 85.7034 28.3051 85.2409 27.8426C84.3467 26.9484 84.3467 25.4684 85.2409 24.5742Z" fill="url(#paint0_linear_1087_3516)"/>
<path d="M9.04 96.848L5.408 103.792V108H3.952V103.792L0.304 96.848H1.92L4.672 102.496L7.424 96.848H9.04ZM14.3998 108.144C13.5784 108.144 12.8318 107.957 12.1598 107.584C11.4984 107.211 10.9758 106.683 10.5918 106C10.2184 105.307 10.0318 104.507 10.0318 103.6C10.0318 102.704 10.2238 101.915 10.6078 101.232C11.0024 100.539 11.5358 100.011 12.2078 99.648C12.8798 99.2747 13.6318 99.088 14.4638 99.088C15.2958 99.088 16.0478 99.2747 16.7198 99.648C17.3918 100.011 17.9198 100.533 18.3038 101.216C18.6984 101.899 18.8958 102.693 18.8958 103.6C18.8958 104.507 18.6931 105.307 18.2878 106C17.8931 106.683 17.3544 107.211 16.6718 107.584C15.9891 107.957 15.2318 108.144 14.3998 108.144ZM14.3998 106.864C14.9224 106.864 15.4131 106.741 15.8718 106.496C16.3304 106.251 16.6984 105.883 16.9758 105.392C17.2638 104.901 17.4078 104.304 17.4078 103.6C17.4078 102.896 17.2691 102.299 16.9918 101.808C16.7144 101.317 16.3518 100.955 15.9038 100.72C15.4558 100.475 14.9704 100.352 14.4478 100.352C13.9144 100.352 13.4238 100.475 12.9758 100.72C12.5384 100.955 12.1864 101.317 11.9198 101.808C11.6531 102.299 11.5198 102.896 11.5198 103.6C11.5198 104.315 11.6478 104.917 11.9038 105.408C12.1704 105.899 12.5224 106.267 12.9598 106.512C13.3971 106.747 13.8771 106.864 14.3998 106.864ZM28.5861 99.232V108H27.1301V106.704C26.8528 107.152 26.4635 107.504 25.9621 107.76C25.4715 108.005 24.9275 108.128 24.3301 108.128C23.6475 108.128 23.0341 107.989 22.4901 107.712C21.9461 107.424 21.5141 106.997 21.1941 106.432C20.8848 105.867 20.7301 105.179 20.7301 104.368V99.232H22.1701V104.176C22.1701 105.04 22.3888 105.707 22.8261 106.176C23.2635 106.635 23.8608 106.864 24.6181 106.864C25.3968 106.864 26.0101 106.624 26.4581 106.144C26.9061 105.664 27.1301 104.965 27.1301 104.048V99.232H28.5861ZM32.5005 100.656C32.7565 100.155 33.1192 99.7653 33.5885 99.488C34.0685 99.2107 34.6498 99.072 35.3325 99.072V100.576H34.9485C33.3165 100.576 32.5005 101.461 32.5005 103.232V108H31.0445V99.232H32.5005V100.656ZM40.7349 103.6C40.7349 102.693 40.9162 101.904 41.2789 101.232C41.6415 100.549 42.1429 100.021 42.7829 99.648C43.4335 99.2747 44.1749 99.088 45.0069 99.088C46.0842 99.088 46.9695 99.3493 47.6629 99.872C48.3669 100.395 48.8309 101.12 49.0549 102.048H47.4869C47.3375 101.515 47.0442 101.093 46.6069 100.784C46.1802 100.475 45.6469 100.32 45.0069 100.32C44.1749 100.32 43.5029 100.608 42.9909 101.184C42.4789 101.749 42.2229 102.555 42.2229 103.6C42.2229 104.656 42.4789 105.472 42.9909 106.048C43.5029 106.624 44.1749 106.912 45.0069 106.912C45.6469 106.912 46.1802 106.763 46.6069 106.464C47.0335 106.165 47.3269 105.739 47.4869 105.184H49.0549C48.8202 106.08 48.3509 106.8 47.6469 107.344C46.9429 107.877 46.0629 108.144 45.0069 108.144C44.1749 108.144 43.4335 107.957 42.7829 107.584C42.1429 107.211 41.6415 106.683 41.2789 106C40.9162 105.317 40.7349 104.517 40.7349 103.6ZM50.4536 103.584C50.4536 102.688 50.635 101.904 50.9976 101.232C51.3603 100.549 51.8563 100.021 52.4856 99.648C53.1256 99.2747 53.835 99.088 54.6136 99.088C55.3816 99.088 56.0483 99.2533 56.6136 99.584C57.179 99.9147 57.6003 100.331 57.8776 100.832V99.232H59.3496V108H57.8776V106.368C57.5896 106.88 57.1576 107.307 56.5816 107.648C56.0163 107.979 55.355 108.144 54.5976 108.144C53.819 108.144 53.115 107.952 52.4856 107.568C51.8563 107.184 51.3603 106.645 50.9976 105.952C50.635 105.259 50.4536 104.469 50.4536 103.584ZM57.8776 103.6C57.8776 102.939 57.7443 102.363 57.4776 101.872C57.211 101.381 56.8483 101.008 56.3896 100.752C55.9416 100.485 55.4456 100.352 54.9016 100.352C54.3576 100.352 53.8616 100.48 53.4136 100.736C52.9656 100.992 52.6083 101.365 52.3416 101.856C52.075 102.347 51.9416 102.923 51.9416 103.584C51.9416 104.256 52.075 104.843 52.3416 105.344C52.6083 105.835 52.9656 106.213 53.4136 106.48C53.8616 106.736 54.3576 106.864 54.9016 106.864C55.4456 106.864 55.9416 106.736 56.3896 106.48C56.8483 106.213 57.211 105.835 57.4776 105.344C57.7443 104.843 57.8776 104.261 57.8776 103.6ZM63.2661 100.656C63.5221 100.155 63.8848 99.7653 64.3541 99.488C64.8341 99.2107 65.4155 99.072 66.0981 99.072V100.576H65.7141C64.0821 100.576 63.2661 101.461 63.2661 103.232V108H61.8101V99.232H63.2661V100.656ZM69.5549 100.432V105.6C69.5549 106.027 69.6455 106.331 69.8269 106.512C70.0082 106.683 70.3229 106.768 70.7709 106.768H71.8429V108H70.5309C69.7202 108 69.1122 107.813 68.7069 107.44C68.3015 107.067 68.0989 106.453 68.0989 105.6V100.432H66.9629V99.232H68.0989V97.024H69.5549V99.232H71.8429V100.432H69.5549ZM78.6246 97.808C78.3473 97.808 78.1126 97.712 77.9206 97.52C77.7286 97.328 77.6326 97.0933 77.6326 96.816C77.6326 96.5387 77.7286 96.304 77.9206 96.112C78.1126 95.92 78.3473 95.824 78.6246 95.824C78.8913 95.824 79.1153 95.92 79.2966 96.112C79.4886 96.304 79.5846 96.5387 79.5846 96.816C79.5846 97.0933 79.4886 97.328 79.2966 97.52C79.1153 97.712 78.8913 97.808 78.6246 97.808ZM79.3286 99.232V108H77.8726V99.232H79.3286ZM84.9141 108.144C84.2421 108.144 83.6395 108.032 83.1061 107.808C82.5728 107.573 82.1515 107.253 81.8421 106.848C81.5328 106.432 81.3621 105.957 81.3301 105.424H82.8341C82.8768 105.861 83.0795 106.219 83.4421 106.496C83.8155 106.773 84.3008 106.912 84.8981 106.912C85.4528 106.912 85.8901 106.789 86.2101 106.544C86.5301 106.299 86.6901 105.989 86.6901 105.616C86.6901 105.232 86.5195 104.949 86.1781 104.768C85.8368 104.576 85.3088 104.389 84.5941 104.208C83.9435 104.037 83.4101 103.867 82.9941 103.696C82.5888 103.515 82.2368 103.253 81.9381 102.912C81.6501 102.56 81.5061 102.101 81.5061 101.536C81.5061 101.088 81.6395 100.677 81.9061 100.304C82.1728 99.9307 82.5515 99.6373 83.0421 99.424C83.5328 99.2 84.0928 99.088 84.7221 99.088C85.6928 99.088 86.4768 99.3333 87.0741 99.824C87.6715 100.315 87.9915 100.987 88.0341 101.84H86.5781C86.5461 101.381 86.3595 101.013 86.0181 100.736C85.6875 100.459 85.2395 100.32 84.6741 100.32C84.1515 100.32 83.7355 100.432 83.4261 100.656C83.1168 100.88 82.9621 101.173 82.9621 101.536C82.9621 101.824 83.0528 102.064 83.2341 102.256C83.4261 102.437 83.6608 102.587 83.9381 102.704C84.2261 102.811 84.6208 102.933 85.1221 103.072C85.7515 103.243 86.2635 103.413 86.6581 103.584C87.0528 103.744 87.3888 103.989 87.6661 104.32C87.9541 104.651 88.1035 105.083 88.1141 105.616C88.1141 106.096 87.9808 106.528 87.7141 106.912C87.4475 107.296 87.0688 107.6 86.5781 107.824C86.0981 108.037 85.5435 108.144 84.9141 108.144ZM102.435 103.28C102.435 103.557 102.419 103.851 102.387 104.16H95.3791C95.4325 105.024 95.7258 105.701 96.2591 106.192C96.8031 106.672 97.4591 106.912 98.2271 106.912C98.8565 106.912 99.3791 106.768 99.7951 106.48C100.222 106.181 100.52 105.787 100.691 105.296H102.259C102.024 106.139 101.555 106.827 100.851 107.36C100.147 107.883 99.2725 108.144 98.2271 108.144C97.3951 108.144 96.6485 107.957 95.9871 107.584C95.3365 107.211 94.8245 106.683 94.4511 106C94.0778 105.307 93.8911 104.507 93.8911 103.6C93.8911 102.693 94.0725 101.899 94.4351 101.216C94.7978 100.533 95.3045 100.011 95.9551 99.648C96.6165 99.2747 97.3738 99.088 98.2271 99.088C99.0591 99.088 99.7951 99.2693 100.435 99.632C101.075 99.9947 101.566 100.496 101.907 101.136C102.259 101.765 102.435 102.48 102.435 103.28ZM100.931 102.976C100.931 102.421 100.808 101.947 100.563 101.552C100.318 101.147 99.9818 100.843 99.5551 100.64C99.1391 100.427 98.6751 100.32 98.1631 100.32C97.4271 100.32 96.7978 100.555 96.2751 101.024C95.7631 101.493 95.4698 102.144 95.3951 102.976H100.931ZM114.901 99.072C115.584 99.072 116.192 99.216 116.725 99.504C117.258 99.7813 117.68 100.203 117.989 100.768C118.298 101.333 118.453 102.021 118.453 102.832V108H117.013V103.04C117.013 102.165 116.794 101.499 116.357 101.04C115.93 100.571 115.349 100.336 114.613 100.336C113.856 100.336 113.253 100.581 112.805 101.072C112.357 101.552 112.133 102.251 112.133 103.168V108H110.693V103.04C110.693 102.165 110.474 101.499 110.037 101.04C109.61 100.571 109.029 100.336 108.293 100.336C107.536 100.336 106.933 100.581 106.485 101.072C106.037 101.552 105.813 102.251 105.813 103.168V108H104.357V99.232H105.813V100.496C106.101 100.037 106.485 99.6853 106.965 99.44C107.456 99.1947 107.994 99.072 108.581 99.072C109.317 99.072 109.968 99.2373 110.533 99.568C111.098 99.8987 111.52 100.384 111.797 101.024C112.042 100.405 112.448 99.9253 113.013 99.584C113.578 99.2427 114.208 99.072 114.901 99.072ZM122.297 100.848C122.585 100.347 123.012 99.9307 123.577 99.6C124.153 99.2587 124.82 99.088 125.577 99.088C126.356 99.088 127.06 99.2747 127.689 99.648C128.329 100.021 128.831 100.549 129.193 101.232C129.556 101.904 129.737 102.688 129.737 103.584C129.737 104.469 129.556 105.259 129.193 105.952C128.831 106.645 128.329 107.184 127.689 107.568C127.06 107.952 126.356 108.144 125.577 108.144C124.831 108.144 124.169 107.979 123.593 107.648C123.028 107.307 122.596 106.885 122.297 106.384V112.16H120.841V99.232H122.297V100.848ZM128.249 103.584C128.249 102.923 128.116 102.347 127.849 101.856C127.583 101.365 127.22 100.992 126.761 100.736C126.313 100.48 125.817 100.352 125.273 100.352C124.74 100.352 124.244 100.485 123.785 100.752C123.337 101.008 122.975 101.387 122.697 101.888C122.431 102.379 122.297 102.949 122.297 103.6C122.297 104.261 122.431 104.843 122.697 105.344C122.975 105.835 123.337 106.213 123.785 106.48C124.244 106.736 124.74 106.864 125.273 106.864C125.817 106.864 126.313 106.736 126.761 106.48C127.22 106.213 127.583 105.835 127.849 105.344C128.116 104.843 128.249 104.256 128.249 103.584ZM133.43 100.432V105.6C133.43 106.027 133.521 106.331 133.702 106.512C133.883 106.683 134.198 106.768 134.646 106.768H135.718V108H134.406C133.595 108 132.987 107.813 132.582 107.44C132.177 107.067 131.974 106.453 131.974 105.6V100.432H130.838V99.232H131.974V97.024H133.43V99.232H135.718V100.432H133.43ZM145.034 99.232L139.754 112.128H138.25L139.978 107.904L136.442 99.232H138.058L140.81 106.336L143.53 99.232H145.034Z" fill="#003280"/>
<path d="M11.5355 128.112H14.4635V129H10.4435V120.636H11.5355V128.112ZM21.6232 125.46C21.6232 125.668 21.6112 125.888 21.5872 126.12H16.3312C16.3712 126.768 16.5912 127.276 16.9912 127.644C17.3992 128.004 17.8912 128.184 18.4672 128.184C18.9392 128.184 19.3312 128.076 19.6432 127.86C19.9632 127.636 20.1872 127.34 20.3152 126.972H21.4912C21.3152 127.604 20.9632 128.12 20.4352 128.52C19.9072 128.912 19.2512 129.108 18.4672 129.108C17.8432 129.108 17.2832 128.968 16.7872 128.688C16.2992 128.408 15.9152 128.012 15.6352 127.5C15.3552 126.98 15.2152 126.38 15.2152 125.7C15.2152 125.02 15.3512 124.424 15.6232 123.912C15.8952 123.4 16.2752 123.008 16.7632 122.736C17.2592 122.456 17.8272 122.316 18.4672 122.316C19.0912 122.316 19.6432 122.452 20.1232 122.724C20.6032 122.996 20.9712 123.372 21.2272 123.852C21.4912 124.324 21.6232 124.86 21.6232 125.46ZM20.4952 125.232C20.4952 124.816 20.4032 124.46 20.2192 124.164C20.0352 123.86 19.7832 123.632 19.4632 123.48C19.1512 123.32 18.8032 123.24 18.4192 123.24C17.8672 123.24 17.3952 123.416 17.0032 123.768C16.6192 124.12 16.3992 124.608 16.3432 125.232H20.4952ZM24.3966 123.324V127.2C24.3966 127.52 24.4646 127.748 24.6006 127.884C24.7366 128.012 24.9726 128.076 25.3086 128.076H26.1126V129H25.1286C24.5206 129 24.0646 128.86 23.7606 128.58C23.4566 128.3 23.3046 127.84 23.3046 127.2V123.324H22.4526V122.424H23.3046V120.768H24.3966V122.424H26.1126V123.324H24.3966ZM27.6037 120.636H28.8157L27.6637 123.36H26.8957L27.6037 120.636ZM32.3887 129.108C31.8847 129.108 31.4327 129.024 31.0327 128.856C30.6327 128.68 30.3167 128.44 30.0847 128.136C29.8527 127.824 29.7247 127.468 29.7007 127.068H30.8287C30.8607 127.396 31.0127 127.664 31.2847 127.872C31.5647 128.08 31.9287 128.184 32.3767 128.184C32.7927 128.184 33.1207 128.092 33.3607 127.908C33.6007 127.724 33.7207 127.492 33.7207 127.212C33.7207 126.924 33.5927 126.712 33.3367 126.576C33.0807 126.432 32.6847 126.292 32.1487 126.156C31.6607 126.028 31.2607 125.9 30.9487 125.772C30.6447 125.636 30.3807 125.44 30.1567 125.184C29.9407 124.92 29.8327 124.576 29.8327 124.152C29.8327 123.816 29.9327 123.508 30.1327 123.228C30.3327 122.948 30.6167 122.728 30.9847 122.568C31.3527 122.4 31.7727 122.316 32.2447 122.316C32.9727 122.316 33.5607 122.5 34.0087 122.868C34.4567 123.236 34.6967 123.74 34.7287 124.38H33.6367C33.6127 124.036 33.4727 123.76 33.2167 123.552C32.9687 123.344 32.6327 123.24 32.2087 123.24C31.8167 123.24 31.5047 123.324 31.2727 123.492C31.0407 123.66 30.9247 123.88 30.9247 124.152C30.9247 124.368 30.9927 124.548 31.1287 124.692C31.2727 124.828 31.4487 124.94 31.6567 125.028C31.8727 125.108 32.1687 125.2 32.5447 125.304C33.0167 125.432 33.4007 125.56 33.6967 125.688C33.9927 125.808 34.2447 125.992 34.4527 126.24C34.6687 126.488 34.7807 126.812 34.7887 127.212C34.7887 127.572 34.6887 127.896 34.4887 128.184C34.2887 128.472 34.0047 128.7 33.6367 128.868C33.2767 129.028 32.8607 129.108 32.3887 129.108ZM39.1215 125.688C39.1215 125.016 39.2575 124.428 39.5295 123.924C39.8015 123.412 40.1735 123.016 40.6455 122.736C41.1255 122.456 41.6575 122.316 42.2415 122.316C42.8175 122.316 43.3175 122.44 43.7415 122.688C44.1655 122.936 44.4815 123.248 44.6895 123.624V122.424H45.7935V129H44.6895V127.776C44.4735 128.16 44.1495 128.48 43.7175 128.736C43.2935 128.984 42.7975 129.108 42.2295 129.108C41.6455 129.108 41.1175 128.964 40.6455 128.676C40.1735 128.388 39.8015 127.984 39.5295 127.464C39.2575 126.944 39.1215 126.352 39.1215 125.688ZM44.6895 125.7C44.6895 125.204 44.5895 124.772 44.3895 124.404C44.1895 124.036 43.9175 123.756 43.5735 123.564C43.2375 123.364 42.8655 123.264 42.4575 123.264C42.0495 123.264 41.6775 123.36 41.3415 123.552C41.0055 123.744 40.7375 124.024 40.5375 124.392C40.3375 124.76 40.2375 125.192 40.2375 125.688C40.2375 126.192 40.3375 126.632 40.5375 127.008C40.7375 127.376 41.0055 127.66 41.3415 127.86C41.6775 128.052 42.0495 128.148 42.4575 128.148C42.8655 128.148 43.2375 128.052 43.5735 127.86C43.9175 127.66 44.1895 127.376 44.3895 127.008C44.5895 126.632 44.6895 126.196 44.6895 125.7ZM47.2308 125.688C47.2308 125.016 47.3668 124.428 47.6388 123.924C47.9108 123.412 48.2828 123.016 48.7548 122.736C49.2348 122.456 49.7708 122.316 50.3628 122.316C50.8748 122.316 51.3508 122.436 51.7908 122.676C52.2308 122.908 52.5668 123.216 52.7988 123.6V120.12H53.9028V129H52.7988V127.764C52.5828 128.156 52.2628 128.48 51.8388 128.736C51.4148 128.984 50.9188 129.108 50.3508 129.108C49.7668 129.108 49.2348 128.964 48.7548 128.676C48.2828 128.388 47.9108 127.984 47.6388 127.464C47.3668 126.944 47.2308 126.352 47.2308 125.688ZM52.7988 125.7C52.7988 125.204 52.6988 124.772 52.4988 124.404C52.2988 124.036 52.0268 123.756 51.6828 123.564C51.3468 123.364 50.9748 123.264 50.5668 123.264C50.1588 123.264 49.7868 123.36 49.4508 123.552C49.1148 123.744 48.8468 124.024 48.6468 124.392C48.4468 124.76 48.3468 125.192 48.3468 125.688C48.3468 126.192 48.4468 126.632 48.6468 127.008C48.8468 127.376 49.1148 127.66 49.4508 127.86C49.7868 128.052 50.1588 128.148 50.5668 128.148C50.9748 128.148 51.3468 128.052 51.6828 127.86C52.0268 127.66 52.2988 127.376 52.4988 127.008C52.6988 126.632 52.7988 126.196 52.7988 125.7ZM55.3402 125.688C55.3402 125.016 55.4762 124.428 55.7482 123.924C56.0202 123.412 56.3922 123.016 56.8642 122.736C57.3442 122.456 57.8802 122.316 58.4722 122.316C58.9842 122.316 59.4602 122.436 59.9002 122.676C60.3402 122.908 60.6762 123.216 60.9082 123.6V120.12H62.0122V129H60.9082V127.764C60.6922 128.156 60.3722 128.48 59.9482 128.736C59.5242 128.984 59.0282 129.108 58.4602 129.108C57.8762 129.108 57.3442 128.964 56.8642 128.676C56.3922 128.388 56.0202 127.984 55.7482 127.464C55.4762 126.944 55.3402 126.352 55.3402 125.688ZM60.9082 125.7C60.9082 125.204 60.8082 124.772 60.6082 124.404C60.4082 124.036 60.1362 123.756 59.7922 123.564C59.4562 123.364 59.0842 123.264 58.6762 123.264C58.2682 123.264 57.8962 123.36 57.5602 123.552C57.2242 123.744 56.9562 124.024 56.7562 124.392C56.5562 124.76 56.4562 125.192 56.4562 125.688C56.4562 126.192 56.5562 126.632 56.7562 127.008C56.9562 127.376 57.2242 127.66 57.5602 127.86C57.8962 128.052 58.2682 128.148 58.6762 128.148C59.0842 128.148 59.4562 128.052 59.7922 127.86C60.1362 127.66 60.4082 127.376 60.6082 127.008C60.8082 126.632 60.9082 126.196 60.9082 125.7ZM69.3848 129.108C68.8808 129.108 68.4288 129.024 68.0288 128.856C67.6288 128.68 67.3128 128.44 67.0808 128.136C66.8488 127.824 66.7208 127.468 66.6968 127.068H67.8248C67.8568 127.396 68.0088 127.664 68.2808 127.872C68.5608 128.08 68.9248 128.184 69.3728 128.184C69.7888 128.184 70.1168 128.092 70.3568 127.908C70.5968 127.724 70.7168 127.492 70.7168 127.212C70.7168 126.924 70.5888 126.712 70.3328 126.576C70.0768 126.432 69.6808 126.292 69.1448 126.156C68.6568 126.028 68.2568 125.9 67.9448 125.772C67.6408 125.636 67.3768 125.44 67.1528 125.184C66.9368 124.92 66.8288 124.576 66.8288 124.152C66.8288 123.816 66.9288 123.508 67.1288 123.228C67.3288 122.948 67.6128 122.728 67.9808 122.568C68.3488 122.4 68.7688 122.316 69.2408 122.316C69.9688 122.316 70.5568 122.5 71.0048 122.868C71.4528 123.236 71.6928 123.74 71.7248 124.38H70.6328C70.6088 124.036 70.4688 123.76 70.2128 123.552C69.9648 123.344 69.6288 123.24 69.2048 123.24C68.8128 123.24 68.5008 123.324 68.2688 123.492C68.0368 123.66 67.9208 123.88 67.9208 124.152C67.9208 124.368 67.9888 124.548 68.1248 124.692C68.2688 124.828 68.4448 124.94 68.6528 125.028C68.8688 125.108 69.1648 125.2 69.5408 125.304C70.0128 125.432 70.3968 125.56 70.6928 125.688C70.9888 125.808 71.2408 125.992 71.4488 126.24C71.6648 126.488 71.7768 126.812 71.7848 127.212C71.7848 127.572 71.6848 127.896 71.4848 128.184C71.2848 128.472 71.0008 128.7 70.6328 128.868C70.2728 129.028 69.8568 129.108 69.3848 129.108ZM76.1943 129.108C75.5783 129.108 75.0183 128.968 74.5143 128.688C74.0183 128.408 73.6263 128.012 73.3383 127.5C73.0583 126.98 72.9183 126.38 72.9183 125.7C72.9183 125.028 73.0623 124.436 73.3503 123.924C73.6463 123.404 74.0463 123.008 74.5503 122.736C75.0543 122.456 75.6183 122.316 76.2423 122.316C76.8663 122.316 77.4303 122.456 77.9343 122.736C78.4383 123.008 78.8343 123.4 79.1223 123.912C79.4183 124.424 79.5663 125.02 79.5663 125.7C79.5663 126.38 79.4143 126.98 79.1103 127.5C78.8143 128.012 78.4103 128.408 77.8983 128.688C77.3863 128.968 76.8183 129.108 76.1943 129.108ZM76.1943 128.148C76.5863 128.148 76.9543 128.056 77.2983 127.872C77.6423 127.688 77.9183 127.412 78.1263 127.044C78.3423 126.676 78.4503 126.228 78.4503 125.7C78.4503 125.172 78.3463 124.724 78.1383 124.356C77.9303 123.988 77.6583 123.716 77.3223 123.54C76.9863 123.356 76.6223 123.264 76.2303 123.264C75.8303 123.264 75.4623 123.356 75.1263 123.54C74.7983 123.716 74.5343 123.988 74.3343 124.356C74.1343 124.724 74.0343 125.172 74.0343 125.7C74.0343 126.236 74.1303 126.688 74.3223 127.056C74.5223 127.424 74.7863 127.7 75.1143 127.884C75.4423 128.06 75.8023 128.148 76.1943 128.148ZM88.9101 122.304C89.4221 122.304 89.8781 122.412 90.2781 122.628C90.6781 122.836 90.9941 123.152 91.2261 123.576C91.4581 124 91.5741 124.516 91.5741 125.124V129H90.4941V125.28C90.4941 124.624 90.3301 124.124 90.0021 123.78C89.6821 123.428 89.2461 123.252 88.6941 123.252C88.1261 123.252 87.6741 123.436 87.3381 123.804C87.0021 124.164 86.8341 124.688 86.8341 125.376V129H85.7541V125.28C85.7541 124.624 85.5901 124.124 85.2621 123.78C84.9421 123.428 84.5061 123.252 83.9541 123.252C83.3861 123.252 82.9341 123.436 82.5981 123.804C82.2621 124.164 82.0941 124.688 82.0941 125.376V129H81.0021V122.424H82.0941V123.372C82.3101 123.028 82.5981 122.764 82.9581 122.58C83.3261 122.396 83.7301 122.304 84.1701 122.304C84.7221 122.304 85.2101 122.428 85.6341 122.676C86.0581 122.924 86.3741 123.288 86.5821 123.768C86.7661 123.304 87.0701 122.944 87.4941 122.688C87.9181 122.432 88.3901 122.304 88.9101 122.304ZM99.3654 125.46C99.3654 125.668 99.3534 125.888 99.3294 126.12H94.0734C94.1134 126.768 94.3334 127.276 94.7334 127.644C95.1414 128.004 95.6334 128.184 96.2094 128.184C96.6814 128.184 97.0734 128.076 97.3854 127.86C97.7054 127.636 97.9294 127.34 98.0574 126.972H99.2334C99.0574 127.604 98.7054 128.12 98.1774 128.52C97.6494 128.912 96.9934 129.108 96.2094 129.108C95.5854 129.108 95.0254 128.968 94.5294 128.688C94.0414 128.408 93.6574 128.012 93.3774 127.5C93.0974 126.98 92.9574 126.38 92.9574 125.7C92.9574 125.02 93.0934 124.424 93.3654 123.912C93.6374 123.4 94.0174 123.008 94.5054 122.736C95.0014 122.456 95.5694 122.316 96.2094 122.316C96.8334 122.316 97.3854 122.452 97.8654 122.724C98.3454 122.996 98.7134 123.372 98.9694 123.852C99.2334 124.324 99.3654 124.86 99.3654 125.46ZM98.2374 125.232C98.2374 124.816 98.1454 124.46 97.9614 124.164C97.7774 123.86 97.5254 123.632 97.2054 123.48C96.8934 123.32 96.5454 123.24 96.1614 123.24C95.6094 123.24 95.1374 123.416 94.7454 123.768C94.3614 124.12 94.1414 124.608 94.0854 125.232H98.2374ZM104.57 121.356C104.362 121.356 104.186 121.284 104.042 121.14C103.898 120.996 103.826 120.82 103.826 120.612C103.826 120.404 103.898 120.228 104.042 120.084C104.186 119.94 104.362 119.868 104.57 119.868C104.77 119.868 104.938 119.94 105.074 120.084C105.218 120.228 105.29 120.404 105.29 120.612C105.29 120.82 105.218 120.996 105.074 121.14C104.938 121.284 104.77 121.356 104.57 121.356ZM105.098 122.424V129H104.006V122.424H105.098ZM108.291 123.324V127.2C108.291 127.52 108.359 127.748 108.495 127.884C108.631 128.012 108.867 128.076 109.203 128.076H110.007V129H109.023C108.415 129 107.959 128.86 107.655 128.58C107.351 128.3 107.199 127.84 107.199 127.2V123.324H106.347V122.424H107.199V120.768H108.291V122.424H110.007V123.324H108.291ZM117.33 125.46C117.33 125.668 117.318 125.888 117.294 126.12H112.038C112.078 126.768 112.298 127.276 112.698 127.644C113.106 128.004 113.598 128.184 114.174 128.184C114.646 128.184 115.038 128.076 115.35 127.86C115.67 127.636 115.894 127.34 116.022 126.972H117.198C117.022 127.604 116.67 128.12 116.142 128.52C115.614 128.912 114.958 129.108 114.174 129.108C113.55 129.108 112.99 128.968 112.494 128.688C112.006 128.408 111.622 128.012 111.342 127.5C111.062 126.98 110.922 126.38 110.922 125.7C110.922 125.02 111.058 124.424 111.33 123.912C111.602 123.4 111.982 123.008 112.47 122.736C112.966 122.456 113.534 122.316 114.174 122.316C114.798 122.316 115.35 122.452 115.83 122.724C116.31 122.996 116.678 123.372 116.934 123.852C117.198 124.324 117.33 124.86 117.33 125.46ZM116.202 125.232C116.202 124.816 116.11 124.46 115.926 124.164C115.742 123.86 115.49 123.632 115.17 123.48C114.858 123.32 114.51 123.24 114.126 123.24C113.574 123.24 113.102 123.416 112.71 123.768C112.326 124.12 112.106 124.608 112.05 125.232H116.202ZM126.68 122.304C127.192 122.304 127.648 122.412 128.048 122.628C128.448 122.836 128.764 123.152 128.996 123.576C129.228 124 129.344 124.516 129.344 125.124V129H128.264V125.28C128.264 124.624 128.1 124.124 127.772 123.78C127.452 123.428 127.016 123.252 126.464 123.252C125.896 123.252 125.444 123.436 125.108 123.804C124.772 124.164 124.604 124.688 124.604 125.376V129H123.524V125.28C123.524 124.624 123.36 124.124 123.032 123.78C122.712 123.428 122.276 123.252 121.724 123.252C121.156 123.252 120.704 123.436 120.368 123.804C120.032 124.164 119.864 124.688 119.864 125.376V129H118.772V122.424H119.864V123.372C120.08 123.028 120.368 122.764 120.728 122.58C121.096 122.396 121.5 122.304 121.94 122.304C122.492 122.304 122.98 122.428 123.404 122.676C123.828 122.924 124.144 123.288 124.352 123.768C124.536 123.304 124.84 122.944 125.264 122.688C125.688 122.432 126.16 122.304 126.68 122.304ZM133.463 129.108C132.959 129.108 132.507 129.024 132.107 128.856C131.707 128.68 131.391 128.44 131.159 128.136C130.927 127.824 130.799 127.468 130.775 127.068H131.903C131.935 127.396 132.087 127.664 132.359 127.872C132.639 128.08 133.003 128.184 133.451 128.184C133.867 128.184 134.195 128.092 134.435 127.908C134.675 127.724 134.795 127.492 134.795 127.212C134.795 126.924 134.667 126.712 134.411 126.576C134.155 126.432 133.759 126.292 133.223 126.156C132.735 126.028 132.335 125.9 132.023 125.772C131.719 125.636 131.455 125.44 131.231 125.184C131.015 124.92 130.907 124.576 130.907 124.152C130.907 123.816 131.007 123.508 131.207 123.228C131.407 122.948 131.691 122.728 132.059 122.568C132.427 122.4 132.847 122.316 133.319 122.316C134.047 122.316 134.635 122.5 135.083 122.868C135.531 123.236 135.771 123.74 135.803 124.38H134.711C134.687 124.036 134.547 123.76 134.291 123.552C134.043 123.344 133.707 123.24 133.283 123.24C132.891 123.24 132.579 123.324 132.347 123.492C132.115 123.66 131.999 123.88 131.999 124.152C131.999 124.368 132.067 124.548 132.203 124.692C132.347 124.828 132.523 124.94 132.731 125.028C132.947 125.108 133.243 125.2 133.619 125.304C134.091 125.432 134.475 125.56 134.771 125.688C135.067 125.808 135.319 125.992 135.527 126.24C135.743 126.488 135.855 126.812 135.863 127.212C135.863 127.572 135.763 127.896 135.563 128.184C135.363 128.472 135.079 128.7 134.711 128.868C134.351 129.028 133.935 129.108 133.463 129.108Z" fill="#003280"/>
<defs>
<linearGradient id="paint0_linear_1087_3516" x1="42.9683" y1="2.09674" x2="106.115" y2="65.2126" gradientUnits="userSpaceOnUse">
<stop stop-color="#F9B4AE"/>
<stop offset="0.5" stop-color="#EC458D"/>
<stop offset="1" stop-color="#474ED7"/>
</linearGradient>
</defs>
</svg>
