<svg width="16" height="17" viewBox="0 0 16 17" fill="none" xmlns="http://www.w3.org/2000/svg">
<path d="M8.14775 5.14758C12.9012 5.97033 14.4496 9.94698 14.6297 11.8325C15.1699 15.432 13.0092 15.9462 11.3887 15.9462C10.4885 15.9462 8.111 15.5235 5.44694 15.9462C2.20596 16.4604 1.47708 15.0838 1.12564 13.8893C0.908461 13.1512 0.736163 11.1031 2.74613 8.23291C4.90677 5.14758 6.88737 5.14758 8.14775 5.14758ZM8.14775 5.14758C9.22808 4.29054 10.908 1.95509 10.8486 1.54803C10.7143 0.628437 5.98709 1.03381 5.44693 1.54803C4.90677 2.06225 5.44693 2.57647 5.44693 2.57647L8.14775 5.14758Z" stroke="white" stroke-width="1.5" stroke-linecap="round"/>
<path d="M5.57143 12.6284L10.1429 9.19984" stroke="white" stroke-width="1.5" stroke-linecap="round"/>
<circle cx="6.71428" cy="9.19985" r="1.14286" fill="white"/>
<circle cx="9" cy="12.6284" r="1.14286" fill="white"/>
</svg>
