<svg width="23" height="22" viewBox="0 0 23 22" fill="none" xmlns="http://www.w3.org/2000/svg">
<path d="M13.3767 1.57992C12.2415 0.806693 10.7585 0.806693 9.62327 1.57992L2.99173 6.09695C2.99172 6.09695 2.99171 6.09696 2.9917 6.09697C2.05452 6.73528 1.5 7.80287 1.5 8.93686V17.5801C1.5 19.4486 2.98797 21 4.86846 21H8.6579C9.49193 21 10.1316 20.3153 10.1316 19.516V14.6764C10.1316 14.4064 10.3402 14.2245 10.5527 14.2245H12.4474C12.6597 14.2245 12.8684 14.4064 12.8684 14.6764V19.516C12.8684 20.3153 13.5081 21 14.3421 21H18.1316C20.0121 21 21.5 19.4485 21.5 17.5801V8.93686C21.5 7.80288 20.9455 6.73527 20.0083 6.09694L13.3767 1.57992Z" stroke="#B3B3B3" stroke-width="2"/>
</svg>
