<svg width="16" height="16" viewBox="0 0 16 16" fill="none" xmlns="http://www.w3.org/2000/svg">
<path d="M8.57807 6.22366H14.2262C15.1676 6.22366 15.0734 7.30622 15.0264 7.88673C15.0134 7.96079 14.9999 8.03401 14.9858 8.10638C14.3618 11.3206 12.7134 12.8634 11.9513 13.2368L11.967 14.1468C11.9513 14.8553 11.402 14.8998 11.0256 14.8998L5.14212 14.994C4.27906 15.0593 4.14847 14.5756 4.1537 14.335V13.1426C2.48123 11.924 1.63929 10.2904 1.26236 9M8.57807 6.22366C9.62119 4.48305 9.91431 4.25477 11.5 3.30545M8.57807 6.22366H2.63182M2.63182 6.22366H1.97288C1.5545 6.20274 0.989671 6.28642 1.00014 7.43174C1.00201 7.63645 1.02417 7.89228 1.07355 8.18482C1.11546 8.43306 1.17698 8.70772 1.26236 9M2.63182 6.22366C2.25006 5.60132 1.74068 4.01774 2.12977 1.9091C3.40576 1.64238 6.17743 1.59845 7.55826 3.30545M1.26236 9H11.5" stroke="white" stroke-width="1.5"/>
<path d="M5.97363 6.28898C6.28742 4.3069 8.076 0.279983 13.4104 1.11152C13.7398 2.09994 13.8026 4.81419 12.4219 6.13209" stroke="white" stroke-width="1.5"/>
</svg>
