<svg width="64" height="20" viewBox="0 0 64 20" fill="none" xmlns="http://www.w3.org/2000/svg">
<rect width="64" height="20" rx="2" fill="#4D93CA"/>
<path d="M18.4675 10.8195C18.5591 11.0449 18.4506 11.3019 18.2251 11.3935L17.0007 11.8915L18.1339 12.5724C18.3453 12.6931 18.4187 12.9622 18.2981 13.1735C18.1774 13.3849 17.9082 13.4583 17.6969 13.3377C17.6912 13.3344 17.6856 13.331 17.68 13.3276L16.5469 12.6467L16.6821 13.9621C16.7031 14.2045 16.5235 14.4181 16.281 14.439C16.0441 14.4595 15.8336 14.2882 15.8055 14.052L15.6028 12.0794L13.4374 10.7786V13.3047L15.0238 14.4945C15.2185 14.6405 15.2579 14.9167 15.1119 15.1114C14.9659 15.3061 14.6897 15.3455 14.495 15.1995L13.4374 14.4064V15.7283C13.4374 15.9717 13.2401 16.169 12.9968 16.169C12.7534 16.169 12.5561 15.9717 12.5561 15.7283V14.4064L11.4985 15.1995C11.3038 15.3455 11.0276 15.3061 10.8816 15.1114C10.7356 14.9167 10.775 14.6405 10.9697 14.4945L12.5561 13.3047V10.7786L10.3909 12.0797L10.1882 14.0523C10.1672 14.2948 9.95368 14.4744 9.71121 14.4534C9.46874 14.4325 9.28917 14.2189 9.31012 13.9764C9.31054 13.9718 9.311 13.967 9.31158 13.9624L9.44678 12.647L8.31368 13.3279C8.10794 13.4578 7.83577 13.3964 7.70578 13.1907C7.5758 12.985 7.6372 12.7128 7.84294 12.5828C7.84847 12.5793 7.85411 12.5759 7.85979 12.5727L8.99297 11.8918L7.76857 11.3938C7.5446 11.2986 7.44021 11.0399 7.53542 10.8159C7.62849 10.5969 7.87856 10.4914 8.10034 10.5775L9.93721 11.3244L12.1413 9.99983L9.93702 8.67538L8.10015 9.42259C7.87326 9.51063 7.61797 9.39803 7.52993 9.17114C7.44389 8.94936 7.54943 8.69929 7.76838 8.60622L8.99278 8.10827L7.85968 7.42722C7.64833 7.30652 7.57488 7.03738 7.69553 6.82607C7.81623 6.61473 8.08537 6.54127 8.29668 6.66193C8.30236 6.66519 8.30797 6.66857 8.31353 6.67206L9.44663 7.35288L9.31143 6.03756C9.2866 5.79548 9.46271 5.57907 9.7048 5.55424C9.94688 5.52941 10.1633 5.70552 10.1881 5.94761L10.3908 7.92018L12.5562 9.22118V6.69501L10.9698 5.50527C10.7751 5.35932 10.7355 5.08315 10.8815 4.88838C11.0274 4.69362 11.3036 4.65405 11.4983 4.8C11.4985 4.80008 11.4985 4.80015 11.4986 4.80023L12.5562 5.59338V4.27146C12.5562 4.02811 12.7535 3.83081 12.9968 3.83081C13.2402 3.83081 13.4375 4.02811 13.4375 4.27146V5.59342L14.4951 4.80027C14.6897 4.65424 14.966 4.69369 15.112 4.88838C15.258 5.08307 15.2186 5.35928 15.0239 5.50531L13.4375 6.69505V9.22118L15.6028 7.92003L15.8055 5.94745C15.8342 5.70579 16.0535 5.53317 16.2951 5.56187C16.5313 5.58993 16.7026 5.80039 16.6821 6.03737L16.5469 7.35269L17.68 6.67187C17.8858 6.54189 18.1579 6.60329 18.2879 6.80907C18.4179 7.01481 18.3565 7.28699 18.1507 7.41697C18.1452 7.42047 18.1396 7.42384 18.1339 7.42711L17.0007 8.108L18.2251 8.60595C18.449 8.70117 18.5534 8.95991 18.4582 9.18388C18.3651 9.40283 18.1151 9.50837 17.8933 9.42232L16.0564 8.67534L13.8523 9.99994L16.0566 11.3244L17.8935 10.5774C18.1185 10.4856 18.3754 10.5936 18.4671 10.8187C18.4673 10.8189 18.4674 10.8192 18.4675 10.8195Z" fill="white"/>
<path d="M24.172 7.416V13H23.052V7.416H24.172ZM24.9906 10.784C24.9906 10.3253 25.0839 9.92533 25.2706 9.584C25.4572 9.23733 25.7159 8.97067 26.0466 8.784C26.3772 8.592 26.7559 8.496 27.1826 8.496C27.7319 8.496 28.1852 8.63467 28.5426 8.912C28.9052 9.184 29.1479 9.568 29.2706 10.064H28.0626C27.9986 9.872 27.8892 9.72267 27.7346 9.616C27.5852 9.504 27.3986 9.448 27.1746 9.448C26.8546 9.448 26.6012 9.56533 26.4146 9.8C26.2279 10.0293 26.1346 10.3573 26.1346 10.784C26.1346 11.2053 26.2279 11.5333 26.4146 11.768C26.6012 11.9973 26.8546 12.112 27.1746 12.112C27.6279 12.112 27.9239 11.9093 28.0626 11.504H29.2706C29.1479 11.984 28.9052 12.3653 28.5426 12.648C28.1799 12.9307 27.7266 13.072 27.1826 13.072C26.7559 13.072 26.3772 12.9787 26.0466 12.792C25.7159 12.6 25.4572 12.3333 25.2706 11.992C25.0839 11.6453 24.9906 11.2427 24.9906 10.784ZM34.2111 10.688C34.2111 10.848 34.2004 10.992 34.1791 11.12H30.9391C30.9657 11.44 31.0777 11.6907 31.2751 11.872C31.4724 12.0533 31.7151 12.144 32.0031 12.144C32.4191 12.144 32.7151 11.9653 32.8911 11.608H34.0991C33.9711 12.0347 33.7257 12.3867 33.3631 12.664C33.0004 12.936 32.5551 13.072 32.0271 13.072C31.6004 13.072 31.2164 12.9787 30.8751 12.792C30.5391 12.6 30.2751 12.3307 30.0831 11.984C29.8964 11.6373 29.8031 11.2373 29.8031 10.784C29.8031 10.3253 29.8964 9.92267 30.0831 9.576C30.2697 9.22933 30.5311 8.96267 30.8671 8.776C31.2031 8.58933 31.5897 8.496 32.0271 8.496C32.4484 8.496 32.8244 8.58667 33.1551 8.768C33.4911 8.94933 33.7497 9.208 33.9311 9.544C34.1177 9.87467 34.2111 10.256 34.2111 10.688ZM33.0511 10.368C33.0457 10.08 32.9417 9.85067 32.7391 9.68C32.5364 9.504 32.2884 9.416 31.9951 9.416C31.7177 9.416 31.4831 9.50133 31.2911 9.672C31.1044 9.83733 30.9897 10.0693 30.9471 10.368H33.0511ZM41.0068 9.144C41.0068 9.44267 40.9348 9.72267 40.7908 9.984C40.6521 10.2453 40.4308 10.456 40.1268 10.616C39.8281 10.776 39.4495 10.856 38.9908 10.856H38.0548V13H36.9348V7.416H38.9908C39.4228 7.416 39.7908 7.49067 40.0948 7.64C40.3988 7.78933 40.6255 7.99467 40.7748 8.256C40.9295 8.51733 41.0068 8.81333 41.0068 9.144ZM38.9428 9.952C39.2521 9.952 39.4815 9.88267 39.6308 9.744C39.7801 9.6 39.8548 9.4 39.8548 9.144C39.8548 8.6 39.5508 8.328 38.9428 8.328H38.0548V9.952H38.9428ZM41.514 10.768C41.514 10.32 41.602 9.92267 41.778 9.576C41.9593 9.22933 42.202 8.96267 42.506 8.776C42.8153 8.58933 43.1593 8.496 43.538 8.496C43.8687 8.496 44.1567 8.56267 44.402 8.696C44.6527 8.82933 44.8527 8.99733 45.002 9.2V8.568H46.13V13H45.002V12.352C44.858 12.56 44.658 12.7333 44.402 12.872C44.1513 13.0053 43.8607 13.072 43.53 13.072C43.1567 13.072 42.8153 12.976 42.506 12.784C42.202 12.592 41.9593 12.3227 41.778 11.976C41.602 11.624 41.514 11.2213 41.514 10.768ZM45.002 10.784C45.002 10.512 44.9487 10.28 44.842 10.088C44.7353 9.89067 44.5913 9.74133 44.41 9.64C44.2287 9.53333 44.034 9.48 43.826 9.48C43.618 9.48 43.426 9.53067 43.25 9.632C43.074 9.73333 42.93 9.88267 42.818 10.08C42.7113 10.272 42.658 10.5013 42.658 10.768C42.658 11.0347 42.7113 11.2693 42.818 11.472C42.93 11.6693 43.074 11.8213 43.25 11.928C43.4313 12.0347 43.6233 12.088 43.826 12.088C44.034 12.088 44.2287 12.0373 44.41 11.936C44.5913 11.8293 44.7353 11.68 44.842 11.488C44.9487 11.2907 45.002 11.056 45.002 10.784ZM46.9359 10.784C46.9359 10.3253 47.0292 9.92533 47.2159 9.584C47.4025 9.23733 47.6612 8.97067 47.9919 8.784C48.3225 8.592 48.7012 8.496 49.1279 8.496C49.6772 8.496 50.1305 8.63467 50.4879 8.912C50.8505 9.184 51.0932 9.568 51.2159 10.064H50.0079C49.9439 9.872 49.8345 9.72267 49.6799 9.616C49.5305 9.504 49.3439 9.448 49.1199 9.448C48.7999 9.448 48.5465 9.56533 48.3599 9.8C48.1732 10.0293 48.0799 10.3573 48.0799 10.784C48.0799 11.2053 48.1732 11.5333 48.3599 11.768C48.5465 11.9973 48.7999 12.112 49.1199 12.112C49.5732 12.112 49.8692 11.9093 50.0079 11.504H51.2159C51.0932 11.984 50.8505 12.3653 50.4879 12.648C50.1252 12.9307 49.6719 13.072 49.1279 13.072C48.7012 13.072 48.3225 12.9787 47.9919 12.792C47.6612 12.6 47.4025 12.3333 47.2159 11.992C47.0292 11.6453 46.9359 11.2427 46.9359 10.784ZM54.6604 13L53.1564 11.112V13H52.0364V7.08H53.1564V10.448L54.6444 8.568H56.1004L54.1484 10.792L56.1164 13H54.6604Z" fill="white"/>
</svg>
