<svg width="254" height="215" viewBox="0 0 254 215" fill="none" xmlns="http://www.w3.org/2000/svg">
<path d="M118.356 30.5775C151.451 33.862 165.975 8.40412 198.774 11.7375C228.043 14.7106 248.231 33.2149 241.398 58.1356C235.33 80.2602 206.439 87.2016 196.166 107.928C185.275 129.906 176.832 153.588 143.944 161.237C79.3712 176.255 48.0034 105.755 43.6068 65.2601C41.9211 49.7168 38.9763 12.5555 61.8468 7.74478C84.8618 2.89739 98.0791 28.5629 118.356 30.5775Z" fill="#4D93CA"/>
<path opacity="0.9" d="M118.356 30.5775C151.451 33.862 165.975 8.40412 198.774 11.7375C228.043 14.7106 248.231 33.2149 241.398 58.1356C235.33 80.2602 206.439 87.2016 196.166 107.928C185.275 129.906 176.832 153.588 143.944 161.237C79.3712 176.255 48.0034 105.755 43.6068 65.2601C41.9211 49.7168 38.9763 12.5555 61.8468 7.74478C84.8618 2.89739 98.0791 28.5629 118.356 30.5775Z" fill="white"/>
<path d="M127 183.851C181.398 183.851 225.496 181.672 225.496 178.983C225.496 176.295 181.398 174.116 127 174.116C72.6021 174.116 28.5039 176.295 28.5039 178.983C28.5039 181.672 72.6021 183.851 127 183.851Z" fill="#F5F5F5"/>
<path d="M36.179 68.4731L35.4006 68.5244L36.4373 81.6872L37.2157 81.6359L36.179 68.4731Z" fill="#4D93CA"/>
<path d="M37.7444 88.4311L36.9661 88.4824L37.3563 93.4371L38.1347 93.3859L37.7444 88.4311Z" fill="#4D93CA"/>
<path d="M218.47 148.983H51.3428C49.4825 148.952 47.7004 148.293 46.3401 147.132C44.9798 145.971 44.1377 144.39 43.976 142.695L35.7664 38.3975C35.69 37.5931 35.7987 36.7831 36.0855 36.0195C36.3722 35.2559 36.8307 34.5557 37.4313 33.964C38.032 33.3723 38.7615 32.9022 39.5728 32.584C40.3842 32.2659 41.2594 32.1067 42.1421 32.1167H209.269C211.128 32.1471 212.909 32.8055 214.269 33.9651C215.629 35.1247 216.472 36.7035 216.636 38.3975L224.845 142.695C224.922 143.5 224.813 144.31 224.526 145.074C224.24 145.838 223.781 146.539 223.181 147.131C222.58 147.723 221.851 148.194 221.04 148.513C220.228 148.832 219.353 148.992 218.47 148.983Z" fill="#4D93CA"/>
<path d="M219.11 148.983H51.9827C50.1224 148.952 48.3403 148.293 46.98 147.132C45.6197 145.971 44.7775 144.39 44.6159 142.695L36.4063 38.3975C36.3299 37.5931 36.4386 36.7831 36.7254 36.0195C37.0121 35.2559 37.4706 34.5557 38.0712 33.964C38.6719 33.3723 39.4014 32.9022 40.2127 32.584C41.024 32.2659 41.8993 32.1067 42.782 32.1167H209.909C211.768 32.1471 213.549 32.8055 214.909 33.9651C216.269 35.1247 217.112 36.7035 217.276 38.3975L225.485 142.695C225.563 143.5 225.455 144.311 225.169 145.075C224.882 145.84 224.424 146.541 223.823 147.133C223.223 147.726 222.493 148.197 221.681 148.515C220.869 148.834 219.993 148.993 219.11 148.983Z" fill="#4D93CA"/>
<path opacity="0.5" d="M219.11 148.983H51.9827C50.1224 148.952 48.3403 148.293 46.98 147.132C45.6197 145.971 44.7775 144.39 44.6159 142.695L36.4063 38.3975C36.3299 37.5931 36.4386 36.7831 36.7254 36.0195C37.0121 35.2559 37.4706 34.5557 38.0712 33.964C38.6719 33.3723 39.4014 32.9022 40.2127 32.584C41.024 32.2659 41.8993 32.1067 42.782 32.1167H209.909C211.768 32.1471 213.549 32.8055 214.909 33.9651C216.269 35.1247 217.112 36.7035 217.276 38.3975L225.485 142.695C225.563 143.5 225.455 144.311 225.169 145.075C224.882 145.84 224.424 146.541 223.823 147.133C223.223 147.726 222.493 148.197 221.681 148.515C220.869 148.834 219.993 148.993 219.11 148.983Z" fill="white"/>
<path d="M210.159 35.2568H43.0317H42.4698C38.2011 35.578 39.0752 41.5234 43.3829 41.5234H210.791C215.106 41.5234 215.044 35.578 210.72 35.2568H210.159Z" fill="#4D93CA"/>
<path d="M47.3863 38.3973C47.4027 38.5813 47.3767 38.7664 47.3101 38.9407C47.2434 39.1149 47.1375 39.2745 46.9993 39.409C46.861 39.5435 46.6935 39.65 46.5074 39.7216C46.3214 39.7932 46.121 39.8284 45.9191 39.8248C45.495 39.8193 45.0881 39.6705 44.7768 39.4069C44.4656 39.1433 44.272 38.7837 44.2335 38.3973C44.2172 38.2139 44.2429 38.0294 44.3091 37.8557C44.3753 37.6819 44.4805 37.5227 44.6179 37.3883C44.7553 37.2539 44.9219 37.1473 45.107 37.0752C45.2921 37.0031 45.4917 36.9673 45.6928 36.9699C46.1183 36.9736 46.5272 37.1216 46.8401 37.3854C47.153 37.6491 47.3476 38.0098 47.3863 38.3973Z" fill="#FAFAFA"/>
<path d="M52.7476 38.3973C52.764 38.5813 52.738 38.7664 52.6714 38.9407C52.6047 39.1149 52.4988 39.2745 52.3606 39.409C52.2223 39.5435 52.0548 39.65 51.8687 39.7216C51.6827 39.7932 51.4823 39.8284 51.2805 39.8248C50.8563 39.8193 50.4494 39.6705 50.1382 39.4069C49.8269 39.1433 49.6334 38.7837 49.5949 38.3973C49.5785 38.2139 49.6043 38.0294 49.6705 37.8557C49.7367 37.6819 49.8418 37.5227 49.9792 37.3883C50.1166 37.2539 50.2832 37.1473 50.4684 37.0752C50.6535 37.0031 50.853 36.9673 51.0542 36.9699C51.4797 36.9736 51.8885 37.1216 52.2014 37.3854C52.5143 37.6491 52.7089 38.0098 52.7476 38.3973Z" fill="#FAFAFA"/>
<path d="M58.1011 38.3975C58.1174 38.5808 58.0917 38.7653 58.0255 38.9391C57.9593 39.1128 57.8541 39.272 57.7167 39.4064C57.5793 39.5408 57.4127 39.6475 57.2276 39.7196C57.0425 39.7916 56.8429 39.8275 56.6418 39.8249C56.2171 39.8211 55.8092 39.6727 55.4976 39.4088C55.186 39.1449 54.993 38.7844 54.9561 38.3975C54.9386 38.2138 54.9635 38.0289 55.0292 37.8546C55.095 37.6804 55.2001 37.5207 55.3377 37.3861C55.4754 37.2514 55.6425 37.1448 55.8282 37.0731C56.0139 37.0014 56.214 36.9663 56.4155 36.97C56.8396 36.9754 57.2465 37.1243 57.5578 37.3879C57.869 37.6515 58.0626 38.0111 58.1011 38.3975Z" fill="#FAFAFA"/>
<path d="M214.677 138.576H54.8156C54.1403 138.566 53.4932 138.326 53 137.904C52.5068 137.482 52.2027 136.908 52.1467 136.292L45.3963 50.523C45.3663 50.2287 45.405 49.9319 45.51 49.6523C45.615 49.3727 45.7838 49.1168 46.0052 48.9014C46.2266 48.6861 46.4956 48.5163 46.7943 48.4033C47.0929 48.2904 47.4145 48.2368 47.7375 48.2462H207.638C208.313 48.2547 208.96 48.4925 209.453 48.9134C209.946 49.3343 210.251 49.9081 210.307 50.523L217.065 136.292C217.094 136.59 217.054 136.891 216.945 137.173C216.837 137.456 216.664 137.714 216.438 137.93C216.212 138.146 215.938 138.316 215.634 138.427C215.33 138.539 215.004 138.589 214.677 138.576Z" fill="white"/>
<path d="M147.315 105.902L144.708 72.8424L136.826 68.5029H115.124L118.074 105.902H147.315Z" fill="white"/>
<path d="M147.314 106.245H118.073C117.977 106.247 117.883 106.215 117.812 106.155C117.74 106.095 117.697 106.012 117.691 105.924L114.749 68.5245C114.745 68.4775 114.752 68.4304 114.77 68.3861C114.787 68.3418 114.815 68.3014 114.85 68.2675C114.885 68.2323 114.927 68.2039 114.974 68.1843C115.021 68.1646 115.072 68.1541 115.124 68.1533H136.826C136.895 68.1555 136.961 68.1726 137.021 68.2033L144.903 72.5428C144.956 72.5706 145.001 72.6098 145.034 72.6571C145.066 72.7044 145.086 72.7582 145.09 72.814L147.681 105.874C147.687 105.922 147.68 105.971 147.663 106.016C147.645 106.062 147.617 106.104 147.58 106.138C147.546 106.171 147.505 106.198 147.459 106.217C147.414 106.235 147.364 106.245 147.314 106.245ZM118.44 105.531H146.901L144.341 73.021L136.756 68.8456H115.529L118.44 105.531Z" fill="#4D93CA"/>
<path d="M144.708 72.8424L136.826 68.5029L139.721 74.2556L144.708 72.8424Z" fill="#EBEBEB"/>
<path d="M139.721 74.5983C139.649 74.5979 139.579 74.579 139.518 74.5436C139.458 74.5083 139.409 74.4579 139.378 74.3984L136.483 68.6458C136.449 68.5782 136.439 68.5027 136.455 68.4298C136.47 68.3569 136.51 68.2902 136.569 68.2389C136.631 68.1905 136.708 68.161 136.789 68.1546C136.87 68.1482 136.951 68.1652 137.021 68.2033L144.903 72.5427C144.967 72.5777 145.018 72.6284 145.051 72.6891C145.084 72.7498 145.098 72.8178 145.09 72.8853C145.08 72.951 145.05 73.0128 145.003 73.0633C144.956 73.1139 144.894 73.1512 144.825 73.1708L139.831 74.5983H139.721ZM137.685 69.3738L139.924 73.8346L143.826 72.7426L137.685 69.3738Z" fill="#4D93CA"/>
<path d="M127.391 85.3465C127.403 85.5404 127.371 85.7345 127.298 85.9169C127.225 86.0993 127.112 86.266 126.966 86.407C126.82 86.548 126.644 86.6602 126.448 86.7368C126.253 86.8134 126.043 86.8528 125.831 86.8525C125.385 86.8452 124.958 86.6872 124.633 86.4091C124.307 86.131 124.105 85.7525 124.067 85.3465C124.047 85.1505 124.073 84.9528 124.143 84.7667C124.213 84.5805 124.325 84.4102 124.473 84.267C124.621 84.1238 124.8 84.011 124.999 83.9363C125.198 83.8615 125.413 83.8264 125.628 83.8334C126.074 83.8424 126.501 84.0019 126.826 84.2812C127.152 84.5604 127.353 84.9398 127.391 85.3465Z" fill="#4D93CA"/>
<path d="M138.083 85.3461C138.102 85.5415 138.075 85.7384 138.004 85.9237C137.934 86.109 137.821 86.2784 137.673 86.4208C137.526 86.5632 137.347 86.6753 137.148 86.7497C136.95 86.824 136.736 86.8589 136.522 86.8521C136.076 86.845 135.648 86.6873 135.321 86.4093C134.994 86.1314 134.791 85.7527 134.75 85.3461C134.738 85.1516 134.768 84.9567 134.841 84.7735C134.914 84.5903 135.027 84.4227 135.173 84.2809C135.319 84.1392 135.496 84.0263 135.691 83.9492C135.887 83.8722 136.098 83.8327 136.311 83.833C136.759 83.8387 137.189 83.9969 137.516 84.2766C137.844 84.5564 138.046 84.9376 138.083 85.3461Z" fill="#4D93CA"/>
<path d="M141.11 95.1534C141.015 95.1519 140.925 95.1182 140.855 95.0588C140.786 94.9995 140.743 94.9187 140.736 94.8322C140.541 92.3984 136.373 90.4213 131.449 90.4213C128.179 90.4213 125.245 91.3135 123.794 92.741C123.495 93.004 123.262 93.322 123.109 93.674C122.955 94.0259 122.885 94.4037 122.904 94.7822C122.908 94.8291 122.901 94.8761 122.885 94.9207C122.868 94.9652 122.843 95.0064 122.809 95.0419C122.741 95.1135 122.645 95.1574 122.541 95.1641C122.438 95.1707 122.336 95.1394 122.257 95.0772C122.179 95.015 122.131 94.9268 122.124 94.8322C122.1 94.359 122.186 93.8867 122.374 93.4454C122.562 93.0041 122.849 92.6037 123.216 92.2699C124.777 90.7068 127.953 89.729 131.426 89.729C136.834 89.729 141.243 91.9487 141.462 94.7822C141.465 94.8272 141.458 94.8724 141.442 94.915C141.426 94.9577 141.401 94.9971 141.369 95.0309C141.336 95.0647 141.296 95.0923 141.252 95.1121C141.208 95.1319 141.16 95.1435 141.11 95.1462V95.1534Z" fill="#4D93CA"/>
<path d="M121.281 82.2917C121.186 82.29 121.094 82.257 121.023 82.1989C120.952 82.1334 120.912 82.0449 120.912 81.9527C120.912 81.8605 120.952 81.772 121.023 81.7065L122.685 80.072C122.757 80.0092 122.852 79.9741 122.951 79.9741C123.05 79.9741 123.145 80.0092 123.216 80.072C123.251 80.1038 123.279 80.1417 123.298 80.1833C123.317 80.225 123.326 80.2696 123.326 80.3147C123.326 80.3598 123.317 80.4044 123.298 80.4461C123.279 80.4877 123.251 80.5255 123.216 80.5573L121.554 82.1918C121.518 82.2245 121.475 82.2501 121.428 82.2673C121.382 82.2845 121.331 82.2928 121.281 82.2917Z" fill="#4D93CA"/>
<path d="M140.33 82.2917C140.235 82.2877 140.145 82.255 140.072 82.1989L138.161 80.5645C138.124 80.5325 138.096 80.4943 138.076 80.452C138.056 80.4097 138.046 80.3642 138.046 80.3183C138.046 80.2723 138.056 80.2268 138.076 80.1845C138.096 80.1422 138.124 80.104 138.161 80.072C138.232 80.0092 138.327 79.9741 138.426 79.9741C138.525 79.9741 138.62 80.0092 138.691 80.072L140.603 81.7065C140.638 81.7383 140.666 81.7761 140.685 81.8177C140.704 81.8594 140.713 81.904 140.713 81.9491C140.713 81.9942 140.704 82.0389 140.685 82.0805C140.666 82.1222 140.638 82.16 140.603 82.1918C140.529 82.2552 140.432 82.2908 140.33 82.2917Z" fill="#4D93CA"/>
<path d="M93.7553 125H92.0753L88.2713 119.252V125H86.5913V116.612H88.2713L92.0753 122.372V116.612H93.7553V125ZM98.3675 125.108C97.7275 125.108 97.1515 124.968 96.6395 124.688C96.1275 124.4 95.7235 123.996 95.4275 123.476C95.1395 122.956 94.9955 122.356 94.9955 121.676C94.9955 120.996 95.1435 120.396 95.4395 119.876C95.7435 119.356 96.1555 118.956 96.6755 118.676C97.1955 118.388 97.7755 118.244 98.4155 118.244C99.0555 118.244 99.6355 118.388 100.156 118.676C100.676 118.956 101.084 119.356 101.38 119.876C101.684 120.396 101.836 120.996 101.836 121.676C101.836 122.356 101.68 122.956 101.368 123.476C101.064 123.996 100.648 124.4 100.12 124.688C99.5995 124.968 99.0155 125.108 98.3675 125.108ZM98.3675 123.644C98.6715 123.644 98.9555 123.572 99.2195 123.428C99.4915 123.276 99.7075 123.052 99.8675 122.756C100.028 122.46 100.108 122.1 100.108 121.676C100.108 121.044 99.9395 120.56 99.6035 120.224C99.2755 119.88 98.8715 119.708 98.3915 119.708C97.9115 119.708 97.5075 119.88 97.1795 120.224C96.8595 120.56 96.6995 121.044 96.6995 121.676C96.6995 122.308 96.8555 122.796 97.1675 123.14C97.4875 123.476 97.8875 123.644 98.3675 123.644ZM107.607 119.384C107.823 119.032 108.103 118.756 108.447 118.556C108.799 118.356 109.199 118.256 109.647 118.256V120.02H109.203C108.675 120.02 108.275 120.144 108.003 120.392C107.739 120.64 107.607 121.072 107.607 121.688V125H105.927V118.352H107.607V119.384ZM116.959 121.532C116.959 121.772 116.943 121.988 116.911 122.18H112.051C112.091 122.66 112.259 123.036 112.555 123.308C112.851 123.58 113.215 123.716 113.647 123.716C114.271 123.716 114.715 123.448 114.979 122.912H116.791C116.599 123.552 116.231 124.08 115.687 124.496C115.143 124.904 114.475 125.108 113.683 125.108C113.043 125.108 112.467 124.968 111.955 124.688C111.451 124.4 111.055 123.996 110.767 123.476C110.487 122.956 110.347 122.356 110.347 121.676C110.347 120.988 110.487 120.384 110.767 119.864C111.047 119.344 111.439 118.944 111.943 118.664C112.447 118.384 113.027 118.244 113.683 118.244C114.315 118.244 114.879 118.38 115.375 118.652C115.879 118.924 116.267 119.312 116.539 119.816C116.819 120.312 116.959 120.884 116.959 121.532ZM115.219 121.052C115.211 120.62 115.055 120.276 114.751 120.02C114.447 119.756 114.075 119.624 113.635 119.624C113.219 119.624 112.867 119.752 112.579 120.008C112.299 120.256 112.127 120.604 112.063 121.052H115.219ZM120.729 125.108C120.185 125.108 119.697 125.012 119.265 124.82C118.833 124.62 118.489 124.352 118.233 124.016C117.985 123.68 117.849 123.308 117.825 122.9H119.517C119.549 123.156 119.673 123.368 119.889 123.536C120.113 123.704 120.389 123.788 120.717 123.788C121.037 123.788 121.285 123.724 121.461 123.596C121.645 123.468 121.737 123.304 121.737 123.104C121.737 122.888 121.625 122.728 121.401 122.624C121.185 122.512 120.837 122.392 120.357 122.264C119.861 122.144 119.453 122.02 119.133 121.892C118.821 121.764 118.549 121.568 118.317 121.304C118.093 121.04 117.981 120.684 117.981 120.236C117.981 119.868 118.085 119.532 118.293 119.228C118.509 118.924 118.813 118.684 119.205 118.508C119.605 118.332 120.073 118.244 120.609 118.244C121.401 118.244 122.033 118.444 122.505 118.844C122.977 119.236 123.237 119.768 123.285 120.44H121.677C121.653 120.176 121.541 119.968 121.341 119.816C121.149 119.656 120.889 119.576 120.561 119.576C120.257 119.576 120.021 119.632 119.853 119.744C119.693 119.856 119.613 120.012 119.613 120.212C119.613 120.436 119.725 120.608 119.949 120.728C120.173 120.84 120.521 120.956 120.993 121.076C121.473 121.196 121.869 121.32 122.181 121.448C122.493 121.576 122.761 121.776 122.985 122.048C123.217 122.312 123.337 122.664 123.345 123.104C123.345 123.488 123.237 123.832 123.021 124.136C122.813 124.44 122.509 124.68 122.109 124.856C121.717 125.024 121.257 125.108 120.729 125.108ZM131 118.352V125H129.308V124.16C129.092 124.448 128.808 124.676 128.456 124.844C128.112 125.004 127.736 125.084 127.328 125.084C126.808 125.084 126.348 124.976 125.948 124.76C125.548 124.536 125.232 124.212 125 123.788C124.776 123.356 124.664 122.844 124.664 122.252V118.352H126.344V122.012C126.344 122.54 126.476 122.948 126.74 123.236C127.004 123.516 127.364 123.656 127.82 123.656C128.284 123.656 128.648 123.516 128.912 123.236C129.176 122.948 129.308 122.54 129.308 122.012V118.352H131ZM134.338 116.12V125H132.658V116.12H134.338ZM137.954 119.732V122.948C137.954 123.172 138.006 123.336 138.11 123.44C138.222 123.536 138.406 123.584 138.662 123.584H139.442V125H138.386C136.97 125 136.262 124.312 136.262 122.936V119.732H135.47V118.352H136.262V116.708H137.954V118.352H139.442V119.732H137.954ZM143.194 125.108C142.65 125.108 142.162 125.012 141.73 124.82C141.298 124.62 140.954 124.352 140.698 124.016C140.45 123.68 140.314 123.308 140.29 122.9H141.982C142.014 123.156 142.138 123.368 142.354 123.536C142.578 123.704 142.854 123.788 143.182 123.788C143.502 123.788 143.75 123.724 143.926 123.596C144.11 123.468 144.202 123.304 144.202 123.104C144.202 122.888 144.09 122.728 143.866 122.624C143.65 122.512 143.302 122.392 142.822 122.264C142.326 122.144 141.918 122.02 141.598 121.892C141.286 121.764 141.014 121.568 140.782 121.304C140.558 121.04 140.446 120.684 140.446 120.236C140.446 119.868 140.55 119.532 140.758 119.228C140.974 118.924 141.278 118.684 141.67 118.508C142.07 118.332 142.538 118.244 143.074 118.244C143.866 118.244 144.498 118.444 144.97 118.844C145.442 119.236 145.702 119.768 145.75 120.44H144.142C144.118 120.176 144.006 119.968 143.806 119.816C143.614 119.656 143.354 119.576 143.026 119.576C142.722 119.576 142.486 119.632 142.318 119.744C142.158 119.856 142.078 120.012 142.078 120.212C142.078 120.436 142.19 120.608 142.414 120.728C142.638 120.84 142.986 120.956 143.458 121.076C143.938 121.196 144.334 121.32 144.646 121.448C144.958 121.576 145.226 121.776 145.45 122.048C145.682 122.312 145.802 122.664 145.81 123.104C145.81 123.488 145.702 123.832 145.486 124.136C145.278 124.44 144.974 124.68 144.574 124.856C144.182 125.024 143.722 125.108 143.194 125.108ZM153.096 119.732H151.932V125H150.228V119.732H149.472V118.352H150.228V118.016C150.228 117.2 150.46 116.6 150.924 116.216C151.388 115.832 152.088 115.652 153.024 115.676V117.092C152.616 117.084 152.332 117.152 152.172 117.296C152.012 117.44 151.932 117.7 151.932 118.076V118.352H153.096V119.732ZM157.137 125.108C156.497 125.108 155.921 124.968 155.409 124.688C154.897 124.4 154.493 123.996 154.197 123.476C153.909 122.956 153.765 122.356 153.765 121.676C153.765 120.996 153.913 120.396 154.209 119.876C154.513 119.356 154.925 118.956 155.445 118.676C155.965 118.388 156.545 118.244 157.185 118.244C157.825 118.244 158.405 118.388 158.925 118.676C159.445 118.956 159.853 119.356 160.149 119.876C160.453 120.396 160.605 120.996 160.605 121.676C160.605 122.356 160.449 122.956 160.137 123.476C159.833 123.996 159.417 124.4 158.889 124.688C158.369 124.968 157.785 125.108 157.137 125.108ZM157.137 123.644C157.441 123.644 157.725 123.572 157.989 123.428C158.261 123.276 158.477 123.052 158.637 122.756C158.797 122.46 158.877 122.1 158.877 121.676C158.877 121.044 158.709 120.56 158.373 120.224C158.045 119.88 157.641 119.708 157.161 119.708C156.681 119.708 156.277 119.88 155.949 120.224C155.629 120.56 155.469 121.044 155.469 121.676C155.469 122.308 155.625 122.796 155.937 123.14C156.257 123.476 156.657 123.644 157.137 123.644ZM168.113 118.352V125H166.421V124.16C166.205 124.448 165.921 124.676 165.569 124.844C165.225 125.004 164.849 125.084 164.441 125.084C163.921 125.084 163.461 124.976 163.061 124.76C162.661 124.536 162.345 124.212 162.113 123.788C161.889 123.356 161.777 122.844 161.777 122.252V118.352H163.457V122.012C163.457 122.54 163.589 122.948 163.853 123.236C164.117 123.516 164.477 123.656 164.933 123.656C165.397 123.656 165.761 123.516 166.025 123.236C166.289 122.948 166.421 122.54 166.421 122.012V118.352H168.113ZM173.455 118.256C174.247 118.256 174.887 118.508 175.375 119.012C175.863 119.508 176.107 120.204 176.107 121.1V125H174.427V121.328C174.427 120.8 174.295 120.396 174.031 120.116C173.767 119.828 173.407 119.684 172.951 119.684C172.487 119.684 172.119 119.828 171.847 120.116C171.583 120.396 171.451 120.8 171.451 121.328V125H169.771V118.352H171.451V119.18C171.675 118.892 171.959 118.668 172.303 118.508C172.655 118.34 173.039 118.256 173.455 118.256ZM177.273 121.652C177.273 120.98 177.405 120.384 177.669 119.864C177.941 119.344 178.309 118.944 178.773 118.664C179.237 118.384 179.753 118.244 180.321 118.244C180.753 118.244 181.165 118.34 181.557 118.532C181.949 118.716 182.261 118.964 182.493 119.276V116.12H184.197V125H182.493V124.016C182.285 124.344 181.993 124.608 181.617 124.808C181.241 125.008 180.805 125.108 180.309 125.108C179.749 125.108 179.237 124.964 178.773 124.676C178.309 124.388 177.941 123.984 177.669 123.464C177.405 122.936 177.273 122.332 177.273 121.652ZM182.505 121.676C182.505 121.268 182.425 120.92 182.265 120.632C182.105 120.336 181.889 120.112 181.617 119.96C181.345 119.8 181.053 119.72 180.741 119.72C180.429 119.72 180.141 119.796 179.877 119.948C179.613 120.1 179.397 120.324 179.229 120.62C179.069 120.908 178.989 121.252 178.989 121.652C178.989 122.052 179.069 122.404 179.229 122.708C179.397 123.004 179.613 123.232 179.877 123.392C180.149 123.552 180.437 123.632 180.741 123.632C181.053 123.632 181.345 123.556 181.617 123.404C181.889 123.244 182.105 123.02 182.265 122.732C182.425 122.436 182.505 122.084 182.505 121.676Z" fill="#0065B3"/>
</svg>
