<svg width="220" height="186" viewBox="0 0 220 186" fill="none" xmlns="http://www.w3.org/2000/svg">
<path d="M102.513 26.4533C131.178 29.2948 143.758 7.27076 172.167 10.1545C197.518 12.7266 215.003 28.735 209.085 50.2943C203.829 69.4346 178.805 75.4397 169.908 93.3706C160.474 112.384 153.162 132.871 124.676 139.489C68.7469 152.482 41.5779 91.4903 37.7698 56.4578C36.3097 43.011 33.7591 10.8622 53.5682 6.70036C73.5025 2.50681 84.9505 24.7104 102.513 26.4533Z" fill="#4D93CA"/>
<path opacity="0.9" d="M102.513 26.4533C131.178 29.2948 143.758 7.27076 172.167 10.1545C197.518 12.7266 215.003 28.735 209.085 50.2943C203.829 69.4346 178.805 75.4397 169.908 93.3706C160.474 112.384 153.162 132.871 124.676 139.489C68.7469 152.482 41.5779 91.4903 37.7698 56.4578C36.3097 43.011 33.7591 10.8622 53.5682 6.70036C73.5025 2.50681 84.9505 24.7104 102.513 26.4533Z" fill="white"/>
<path d="M110 159.052C157.116 159.052 195.312 157.167 195.312 154.841C195.312 152.516 157.116 150.63 110 150.63C62.8837 150.63 24.6884 152.516 24.6884 154.841C24.6884 157.167 62.8837 159.052 110 159.052Z" fill="#F5F5F5"/>
<path d="M31.3362 59.2369L30.662 59.2812L31.5599 70.6686L32.2341 70.6242L31.3362 59.2369Z" fill="#4D93CA"/>
<path d="M32.6921 76.503L32.0179 76.5474L32.3559 80.8338L33.0301 80.7894L32.6921 76.503Z" fill="#4D93CA"/>
<path d="M189.226 128.888H44.4702C42.8589 128.861 41.3154 128.291 40.1372 127.286C38.959 126.282 38.2296 124.914 38.0895 123.448L30.9788 33.2182C30.9127 32.5224 31.0069 31.8215 31.2552 31.1609C31.5036 30.5003 31.9007 29.8946 32.4209 29.3827C32.9412 28.8708 33.573 28.4641 34.2758 28.1889C34.9785 27.9136 35.7366 27.7759 36.5011 27.7846H181.257C182.867 27.8109 184.41 28.3805 185.588 29.3837C186.766 30.3868 187.496 31.7527 187.637 33.2182L194.748 123.448C194.814 124.144 194.72 124.845 194.472 125.506C194.223 126.167 193.826 126.773 193.306 127.285C192.786 127.798 192.154 128.205 191.452 128.481C190.749 128.757 189.991 128.895 189.226 128.888Z" fill="#4D93CA"/>
<path d="M189.78 128.888H45.0245C43.4132 128.861 41.8696 128.291 40.6914 127.286C39.5132 126.282 38.7838 124.914 38.6438 123.448L31.5331 33.2182C31.467 32.5224 31.5611 31.8215 31.8095 31.1609C32.0579 30.5003 32.455 29.8946 32.9752 29.3827C33.4954 28.8708 34.1273 28.4641 34.83 28.1889C35.5328 27.9136 36.2908 27.7759 37.0554 27.7846H181.811C183.421 27.8109 184.964 28.3805 186.142 29.3837C187.32 30.3868 188.05 31.7527 188.192 33.2182L195.302 123.448C195.369 124.144 195.276 124.846 195.028 125.507C194.78 126.168 194.383 126.775 193.863 127.287C193.343 127.8 192.71 128.207 192.007 128.483C191.304 128.758 190.545 128.896 189.78 128.888Z" fill="#4D93CA"/>
<path opacity="0.5" d="M189.78 128.888H45.0245C43.4132 128.861 41.8696 128.291 40.6914 127.286C39.5132 126.282 38.7838 124.914 38.6438 123.448L31.5331 33.2182C31.467 32.5224 31.5611 31.8215 31.8095 31.1609C32.0579 30.5003 32.455 29.8946 32.9752 29.3827C33.4954 28.8708 34.1273 28.4641 34.83 28.1889C35.5328 27.9136 36.2908 27.7759 37.0554 27.7846H181.811C183.421 27.8109 184.964 28.3805 186.142 29.3837C187.32 30.3868 188.05 31.7527 188.192 33.2182L195.302 123.448C195.369 124.144 195.276 124.846 195.028 125.507C194.78 126.168 194.383 126.775 193.863 127.287C193.343 127.8 192.71 128.207 192.007 128.483C191.304 128.758 190.545 128.896 189.78 128.888Z" fill="white"/>
<path d="M182.027 30.5015H37.2717H36.785C33.0877 30.7793 33.8447 35.9228 37.5758 35.9228H182.575C186.313 35.9228 186.258 30.7793 182.514 30.5015H182.027Z" fill="#4D93CA"/>
<path d="M41.0433 33.2179C41.0575 33.3771 41.035 33.5373 40.9773 33.688C40.9196 33.8388 40.8279 33.9768 40.7081 34.0932C40.5884 34.2095 40.4432 34.3017 40.2821 34.3636C40.121 34.4256 39.9474 34.456 39.7726 34.4529C39.4052 34.4481 39.0528 34.3194 38.7832 34.0913C38.5136 33.8633 38.346 33.5522 38.3126 33.2179C38.2985 33.0593 38.3208 32.8997 38.3781 32.7494C38.4354 32.599 38.5265 32.4613 38.6455 32.3451C38.7645 32.2288 38.9088 32.1365 39.0692 32.0742C39.2295 32.0118 39.4023 31.9808 39.5766 31.983C39.9451 31.9862 40.2992 32.1143 40.5702 32.3425C40.8412 32.5707 41.0098 32.8827 41.0433 33.2179Z" fill="#FAFAFA"/>
<path d="M45.687 33.2179C45.7012 33.3771 45.6787 33.5373 45.621 33.688C45.5632 33.8388 45.4715 33.9768 45.3518 34.0932C45.2321 34.2095 45.0869 34.3017 44.9258 34.3636C44.7646 34.4256 44.5911 34.456 44.4163 34.4529C44.0489 34.4481 43.6964 34.3194 43.4269 34.0913C43.1573 33.8633 42.9896 33.5522 42.9563 33.2179C42.9421 33.0593 42.9644 32.8997 43.0218 32.7494C43.0791 32.599 43.1702 32.4613 43.2892 32.3451C43.4082 32.2288 43.5525 32.1365 43.7129 32.0742C43.8732 32.0118 44.046 31.9808 44.2203 31.983C44.5888 31.9862 44.9429 32.1143 45.2139 32.3425C45.4849 32.5707 45.6535 32.8827 45.687 33.2179Z" fill="#FAFAFA"/>
<path d="M50.3237 33.2181C50.3379 33.3767 50.3156 33.5363 50.2582 33.6866C50.2009 33.837 50.1098 33.9747 49.9908 34.091C49.8718 34.2072 49.7275 34.2995 49.5672 34.3618C49.4068 34.4242 49.234 34.4552 49.0598 34.453C48.6919 34.4496 48.3387 34.3213 48.0688 34.093C47.7989 33.8647 47.6317 33.5528 47.5998 33.2181C47.5845 33.0592 47.6061 32.8992 47.6631 32.7484C47.72 32.5977 47.8111 32.4596 47.9303 32.3431C48.0495 32.2266 48.1942 32.1344 48.3551 32.0723C48.5159 32.0103 48.6892 31.9799 48.8637 31.9831C49.2311 31.9879 49.5836 32.1166 49.8532 32.3447C50.1227 32.5727 50.2904 32.8838 50.3237 33.2181Z" fill="#FAFAFA"/>
<path d="M185.941 119.884H47.4781C46.8932 119.876 46.3327 119.669 45.9056 119.303C45.4784 118.938 45.215 118.441 45.1664 117.909L39.3197 43.7084C39.2937 43.4538 39.3272 43.197 39.4182 42.9552C39.5091 42.7133 39.6553 42.4919 39.8471 42.3056C40.0389 42.1193 40.2718 41.9724 40.5305 41.8747C40.7892 41.7769 41.0677 41.7306 41.3475 41.7387H179.844C180.428 41.7461 180.989 41.9518 181.416 42.3159C181.843 42.68 182.107 43.1764 182.156 43.7084L188.009 117.909C188.034 118.167 187.999 118.426 187.905 118.671C187.812 118.915 187.662 119.138 187.466 119.326C187.27 119.513 187.033 119.659 186.77 119.756C186.507 119.852 186.224 119.896 185.941 119.884Z" fill="white"/>
<path d="M127.595 91.6176L125.338 63.0169L118.511 59.2627H99.7134L102.268 91.6176H127.595Z" fill="white"/>
<path d="M127.595 91.9143H102.268C102.185 91.916 102.103 91.8881 102.042 91.8363C101.98 91.7845 101.942 91.7129 101.937 91.6364L99.389 59.2815C99.3858 59.2409 99.3919 59.2001 99.4071 59.1618C99.4222 59.1235 99.446 59.0886 99.4769 59.0592C99.5067 59.0288 99.5431 59.0042 99.5839 58.9872C99.6246 58.9702 99.6687 58.9611 99.7135 58.9604H118.511C118.57 58.9623 118.628 58.9771 118.68 59.0037L125.507 62.7578C125.553 62.7819 125.591 62.8158 125.62 62.8567C125.648 62.8976 125.665 62.9442 125.669 62.9925L127.913 91.5932C127.918 91.6349 127.912 91.6769 127.897 91.7164C127.882 91.7559 127.857 91.7919 127.825 91.8217C127.796 91.8506 127.76 91.8737 127.721 91.8896C127.681 91.9056 127.638 91.9139 127.595 91.9143ZM102.586 91.2968H127.237L125.02 63.1715L118.45 59.5594H100.065L102.586 91.2968Z" fill="#4D93CA"/>
<path d="M125.338 63.0169L118.511 59.2627L121.019 64.2394L125.338 63.0169Z" fill="#EBEBEB"/>
<path d="M121.018 64.5361C120.956 64.5358 120.895 64.5194 120.842 64.4888C120.79 64.4582 120.748 64.4147 120.721 64.3632L118.213 59.3865C118.184 59.328 118.176 59.2627 118.189 59.1996C118.202 59.1365 118.237 59.0788 118.288 59.0345C118.341 58.9926 118.408 58.9671 118.478 58.9616C118.549 58.9561 118.619 58.9708 118.68 59.0036L125.507 62.7578C125.562 62.788 125.606 62.8319 125.635 62.8844C125.664 62.9369 125.675 62.9958 125.669 63.0542C125.66 63.111 125.634 63.1644 125.593 63.2082C125.552 63.2519 125.499 63.2842 125.439 63.3012L121.113 64.5361H121.018ZM119.254 60.0163L121.194 63.8754L124.574 62.9307L119.254 60.0163Z" fill="#4D93CA"/>
<path d="M110.339 73.8347C110.349 74.0025 110.322 74.1704 110.258 74.3281C110.195 74.4859 110.097 74.6302 109.97 74.7521C109.844 74.8741 109.691 74.9712 109.522 75.0374C109.353 75.1037 109.171 75.1378 108.987 75.1375C108.601 75.1312 108.232 74.9946 107.95 74.754C107.667 74.5134 107.493 74.1859 107.46 73.8347C107.442 73.6651 107.464 73.4941 107.525 73.3331C107.586 73.172 107.683 73.0246 107.811 72.9008C107.939 72.7769 108.095 72.6794 108.267 72.6147C108.439 72.55 108.625 72.5196 108.811 72.5256C109.198 72.5335 109.568 72.6714 109.849 72.913C110.131 73.1546 110.306 73.4828 110.339 73.8347Z" fill="#4D93CA"/>
<path d="M119.599 73.8344C119.615 74.0035 119.592 74.1738 119.531 74.3341C119.47 74.4944 119.372 74.641 119.245 74.7642C119.117 74.8873 118.962 74.9843 118.79 75.0486C118.618 75.113 118.433 75.1432 118.247 75.1372C117.861 75.1311 117.49 74.9947 117.207 74.7542C116.924 74.5137 116.748 74.1862 116.713 73.8344C116.702 73.6661 116.729 73.4975 116.792 73.339C116.855 73.1806 116.952 73.0355 117.079 72.9129C117.206 72.7902 117.358 72.6926 117.528 72.626C117.697 72.5593 117.88 72.5251 118.065 72.5254C118.453 72.5303 118.825 72.6671 119.109 72.9092C119.392 73.1512 119.567 73.481 119.599 73.8344Z" fill="#4D93CA"/>
<path d="M122.222 82.3187C122.139 82.3174 122.061 82.2882 122.001 82.2369C121.941 82.1855 121.904 82.1156 121.897 82.0408C121.728 79.9353 118.119 78.2249 113.854 78.2249C111.022 78.2249 108.48 78.9967 107.223 80.2317C106.965 80.4592 106.762 80.7344 106.629 81.0388C106.497 81.3433 106.436 81.6701 106.452 81.9976C106.455 82.0381 106.45 82.0788 106.436 82.1174C106.422 82.1559 106.399 82.1916 106.37 82.2222C106.311 82.2842 106.228 82.3222 106.138 82.3279C106.048 82.3337 105.96 82.3066 105.892 82.2528C105.824 82.1989 105.783 82.1227 105.776 82.0408C105.756 81.6315 105.83 81.2228 105.993 80.8411C106.156 80.4594 106.405 80.113 106.723 79.8241C108.075 78.4719 110.826 77.626 113.833 77.626C118.518 77.626 122.337 79.5463 122.526 81.9976C122.529 82.0365 122.523 82.0756 122.509 82.1125C122.495 82.1494 122.474 82.1835 122.445 82.2128C122.417 82.242 122.383 82.2659 122.344 82.283C122.306 82.3001 122.264 82.3101 122.222 82.3125V82.3187Z" fill="#4D93CA"/>
<path d="M105.046 71.192C104.964 71.1905 104.885 71.162 104.823 71.1117C104.762 71.0551 104.727 70.9785 104.727 70.8987C104.727 70.8189 104.762 70.7423 104.823 70.6857L106.263 69.2717C106.325 69.2174 106.407 69.187 106.493 69.187C106.579 69.187 106.661 69.2174 106.723 69.2717C106.753 69.2992 106.777 69.332 106.793 69.368C106.81 69.404 106.818 69.4426 106.818 69.4816C106.818 69.5206 106.81 69.5593 106.793 69.5953C106.777 69.6313 106.753 69.664 106.723 69.6916L105.283 71.1056C105.252 71.1338 105.215 71.156 105.174 71.1709C105.134 71.1857 105.09 71.1929 105.046 71.192Z" fill="#4D93CA"/>
<path d="M121.546 71.192C121.464 71.1885 121.385 71.1603 121.323 71.1117L119.667 69.6978C119.635 69.6701 119.611 69.637 119.594 69.6004C119.577 69.5638 119.568 69.5245 119.568 69.4847C119.568 69.445 119.577 69.4056 119.594 69.369C119.611 69.3324 119.635 69.2993 119.667 69.2717C119.728 69.2174 119.811 69.187 119.896 69.187C119.982 69.187 120.065 69.2174 120.126 69.2717L121.782 70.6857C121.813 70.7132 121.837 70.7459 121.853 70.782C121.869 70.818 121.878 70.8566 121.878 70.8956C121.878 70.9346 121.869 70.9733 121.853 71.0093C121.837 71.0453 121.813 71.078 121.782 71.1056C121.718 71.1604 121.634 71.1912 121.546 71.192Z" fill="#4D93CA"/>
<path d="M71.992 110H70.312L66.508 104.252V110H64.828V101.612H66.508L70.312 107.372V101.612H71.992V110ZM76.6042 110.108C75.9642 110.108 75.3882 109.968 74.8762 109.688C74.3642 109.4 73.9602 108.996 73.6642 108.476C73.3762 107.956 73.2322 107.356 73.2322 106.676C73.2322 105.996 73.3802 105.396 73.6762 104.876C73.9802 104.356 74.3922 103.956 74.9122 103.676C75.4322 103.388 76.0122 103.244 76.6522 103.244C77.2922 103.244 77.8722 103.388 78.3922 103.676C78.9122 103.956 79.3202 104.356 79.6162 104.876C79.9202 105.396 80.0722 105.996 80.0722 106.676C80.0722 107.356 79.9162 107.956 79.6042 108.476C79.3002 108.996 78.8842 109.4 78.3562 109.688C77.8362 109.968 77.2522 110.108 76.6042 110.108ZM76.6042 108.644C76.9082 108.644 77.1922 108.572 77.4562 108.428C77.7282 108.276 77.9442 108.052 78.1042 107.756C78.2642 107.46 78.3442 107.1 78.3442 106.676C78.3442 106.044 78.1762 105.56 77.8402 105.224C77.5122 104.88 77.1082 104.708 76.6282 104.708C76.1482 104.708 75.7442 104.88 75.4162 105.224C75.0962 105.56 74.9362 106.044 74.9362 106.676C74.9362 107.308 75.0922 107.796 75.4042 108.14C75.7242 108.476 76.1242 108.644 76.6042 108.644ZM85.8439 104.312C86.0599 104.008 86.3559 103.756 86.7319 103.556C87.1159 103.348 87.5519 103.244 88.0399 103.244C88.6079 103.244 89.1199 103.384 89.5759 103.664C90.0399 103.944 90.4039 104.344 90.6679 104.864C90.9399 105.376 91.0759 105.972 91.0759 106.652C91.0759 107.332 90.9399 107.936 90.6679 108.464C90.4039 108.984 90.0399 109.388 89.5759 109.676C89.1199 109.964 88.6079 110.108 88.0399 110.108C87.5519 110.108 87.1199 110.008 86.7439 109.808C86.3759 109.608 86.0759 109.356 85.8439 109.052V113.168H84.1639V103.352H85.8439V104.312ZM89.3599 106.652C89.3599 106.252 89.2759 105.908 89.1079 105.62C88.9479 105.324 88.7319 105.1 88.4599 104.948C88.1959 104.796 87.9079 104.72 87.5959 104.72C87.2919 104.72 87.0039 104.8 86.7319 104.96C86.4679 105.112 86.2519 105.336 86.0839 105.632C85.9239 105.928 85.8439 106.276 85.8439 106.676C85.8439 107.076 85.9239 107.424 86.0839 107.72C86.2519 108.016 86.4679 108.244 86.7319 108.404C87.0039 108.556 87.2919 108.632 87.5959 108.632C87.9079 108.632 88.1959 108.552 88.4599 108.392C88.7319 108.232 88.9479 108.004 89.1079 107.708C89.2759 107.412 89.3599 107.06 89.3599 106.652ZM93.9768 104.384C94.1928 104.032 94.4728 103.756 94.8168 103.556C95.1688 103.356 95.5688 103.256 96.0168 103.256V105.02H95.5728C95.0448 105.02 94.6448 105.144 94.3728 105.392C94.1088 105.64 93.9768 106.072 93.9768 106.688V110H92.2968V103.352H93.9768V104.384ZM100.1 110.108C99.4603 110.108 98.8843 109.968 98.3723 109.688C97.8603 109.4 97.4563 108.996 97.1603 108.476C96.8723 107.956 96.7283 107.356 96.7283 106.676C96.7283 105.996 96.8763 105.396 97.1723 104.876C97.4763 104.356 97.8883 103.956 98.4083 103.676C98.9283 103.388 99.5083 103.244 100.148 103.244C100.788 103.244 101.368 103.388 101.888 103.676C102.408 103.956 102.816 104.356 103.112 104.876C103.416 105.396 103.568 105.996 103.568 106.676C103.568 107.356 103.412 107.956 103.1 108.476C102.796 108.996 102.38 109.4 101.852 109.688C101.332 109.968 100.748 110.108 100.1 110.108ZM100.1 108.644C100.404 108.644 100.688 108.572 100.952 108.428C101.224 108.276 101.44 108.052 101.6 107.756C101.76 107.46 101.84 107.1 101.84 106.676C101.84 106.044 101.672 105.56 101.336 105.224C101.008 104.88 100.604 104.708 100.124 104.708C99.6443 104.708 99.2403 104.88 98.9123 105.224C98.5923 105.56 98.4323 106.044 98.4323 106.676C98.4323 107.308 98.5883 107.796 98.9003 108.14C99.2203 108.476 99.6203 108.644 100.1 108.644ZM104.369 106.652C104.369 105.98 104.501 105.384 104.765 104.864C105.037 104.344 105.405 103.944 105.869 103.664C106.333 103.384 106.849 103.244 107.417 103.244C107.849 103.244 108.261 103.34 108.653 103.532C109.045 103.716 109.357 103.964 109.589 104.276V101.12H111.293V110H109.589V109.016C109.381 109.344 109.089 109.608 108.713 109.808C108.337 110.008 107.901 110.108 107.405 110.108C106.845 110.108 106.333 109.964 105.869 109.676C105.405 109.388 105.037 108.984 104.765 108.464C104.501 107.936 104.369 107.332 104.369 106.652ZM109.601 106.676C109.601 106.268 109.521 105.92 109.361 105.632C109.201 105.336 108.985 105.112 108.713 104.96C108.441 104.8 108.149 104.72 107.837 104.72C107.525 104.72 107.237 104.796 106.973 104.948C106.709 105.1 106.493 105.324 106.325 105.62C106.165 105.908 106.085 106.252 106.085 106.652C106.085 107.052 106.165 107.404 106.325 107.708C106.493 108.004 106.709 108.232 106.973 108.392C107.245 108.552 107.533 108.632 107.837 108.632C108.149 108.632 108.441 108.556 108.713 108.404C108.985 108.244 109.201 108.02 109.361 107.732C109.521 107.436 109.601 107.084 109.601 106.676ZM119.209 103.352V110H117.517V109.16C117.301 109.448 117.017 109.676 116.665 109.844C116.321 110.004 115.945 110.084 115.537 110.084C115.017 110.084 114.557 109.976 114.157 109.76C113.757 109.536 113.441 109.212 113.209 108.788C112.985 108.356 112.873 107.844 112.873 107.252V103.352H114.553V107.012C114.553 107.54 114.685 107.948 114.949 108.236C115.213 108.516 115.573 108.656 116.029 108.656C116.493 108.656 116.857 108.516 117.121 108.236C117.385 107.948 117.517 107.54 117.517 107.012V103.352H119.209ZM120.435 106.676C120.435 105.988 120.575 105.388 120.855 104.876C121.135 104.356 121.523 103.956 122.019 103.676C122.515 103.388 123.083 103.244 123.723 103.244C124.547 103.244 125.227 103.452 125.763 103.868C126.307 104.276 126.671 104.852 126.855 105.596H125.043C124.947 105.308 124.783 105.084 124.551 104.924C124.327 104.756 124.047 104.672 123.711 104.672C123.231 104.672 122.851 104.848 122.571 105.2C122.291 105.544 122.151 106.036 122.151 106.676C122.151 107.308 122.291 107.8 122.571 108.152C122.851 108.496 123.231 108.668 123.711 108.668C124.391 108.668 124.835 108.364 125.043 107.756H126.855C126.671 108.476 126.307 109.048 125.763 109.472C125.219 109.896 124.539 110.108 123.723 110.108C123.083 110.108 122.515 109.968 122.019 109.688C121.523 109.4 121.135 109 120.855 108.488C120.575 107.968 120.435 107.364 120.435 106.676ZM130.042 104.732V107.948C130.042 108.172 130.094 108.336 130.198 108.44C130.31 108.536 130.494 108.584 130.75 108.584H131.53V110H130.474C129.058 110 128.35 109.312 128.35 107.936V104.732H127.558V103.352H128.35V101.708H130.042V103.352H131.53V104.732H130.042ZM135.282 110.108C134.738 110.108 134.25 110.012 133.818 109.82C133.386 109.62 133.042 109.352 132.786 109.016C132.538 108.68 132.402 108.308 132.378 107.9H134.07C134.102 108.156 134.226 108.368 134.442 108.536C134.666 108.704 134.942 108.788 135.27 108.788C135.59 108.788 135.838 108.724 136.014 108.596C136.198 108.468 136.29 108.304 136.29 108.104C136.29 107.888 136.178 107.728 135.954 107.624C135.738 107.512 135.39 107.392 134.91 107.264C134.414 107.144 134.006 107.02 133.686 106.892C133.374 106.764 133.102 106.568 132.87 106.304C132.646 106.04 132.534 105.684 132.534 105.236C132.534 104.868 132.638 104.532 132.846 104.228C133.062 103.924 133.366 103.684 133.758 103.508C134.158 103.332 134.626 103.244 135.162 103.244C135.954 103.244 136.586 103.444 137.058 103.844C137.53 104.236 137.79 104.768 137.838 105.44H136.23C136.206 105.176 136.094 104.968 135.894 104.816C135.702 104.656 135.442 104.576 135.114 104.576C134.81 104.576 134.574 104.632 134.406 104.744C134.246 104.856 134.166 105.012 134.166 105.212C134.166 105.436 134.278 105.608 134.502 105.728C134.726 105.84 135.074 105.956 135.546 106.076C136.026 106.196 136.422 106.32 136.734 106.448C137.046 106.576 137.314 106.776 137.538 107.048C137.77 107.312 137.89 107.664 137.898 108.104C137.898 108.488 137.79 108.832 137.574 109.136C137.366 109.44 137.062 109.68 136.662 109.856C136.27 110.024 135.81 110.108 135.282 110.108ZM145.185 104.732H144.021V110H142.317V104.732H141.561V103.352H142.317V103.016C142.317 102.2 142.549 101.6 143.013 101.216C143.477 100.832 144.177 100.652 145.113 100.676V102.092C144.705 102.084 144.421 102.152 144.261 102.296C144.101 102.44 144.021 102.7 144.021 103.076V103.352H145.185V104.732ZM149.225 110.108C148.585 110.108 148.009 109.968 147.497 109.688C146.985 109.4 146.581 108.996 146.285 108.476C145.997 107.956 145.853 107.356 145.853 106.676C145.853 105.996 146.001 105.396 146.297 104.876C146.601 104.356 147.013 103.956 147.533 103.676C148.053 103.388 148.633 103.244 149.273 103.244C149.913 103.244 150.493 103.388 151.013 103.676C151.533 103.956 151.941 104.356 152.237 104.876C152.541 105.396 152.693 105.996 152.693 106.676C152.693 107.356 152.537 107.956 152.225 108.476C151.921 108.996 151.505 109.4 150.977 109.688C150.457 109.968 149.873 110.108 149.225 110.108ZM149.225 108.644C149.529 108.644 149.813 108.572 150.077 108.428C150.349 108.276 150.565 108.052 150.725 107.756C150.885 107.46 150.965 107.1 150.965 106.676C150.965 106.044 150.797 105.56 150.461 105.224C150.133 104.88 149.729 104.708 149.249 104.708C148.769 104.708 148.365 104.88 148.037 105.224C147.717 105.56 147.557 106.044 147.557 106.676C147.557 107.308 147.713 107.796 148.025 108.14C148.345 108.476 148.745 108.644 149.225 108.644ZM160.202 103.352V110H158.51V109.16C158.294 109.448 158.01 109.676 157.658 109.844C157.314 110.004 156.938 110.084 156.53 110.084C156.01 110.084 155.55 109.976 155.15 109.76C154.75 109.536 154.434 109.212 154.202 108.788C153.978 108.356 153.866 107.844 153.866 107.252V103.352H155.546V107.012C155.546 107.54 155.678 107.948 155.942 108.236C156.206 108.516 156.566 108.656 157.022 108.656C157.486 108.656 157.85 108.516 158.114 108.236C158.378 107.948 158.51 107.54 158.51 107.012V103.352H160.202ZM165.543 103.256C166.335 103.256 166.975 103.508 167.463 104.012C167.951 104.508 168.195 105.204 168.195 106.1V110H166.515V106.328C166.515 105.8 166.383 105.396 166.119 105.116C165.855 104.828 165.495 104.684 165.039 104.684C164.575 104.684 164.207 104.828 163.935 105.116C163.671 105.396 163.539 105.8 163.539 106.328V110H161.859V103.352H163.539V104.18C163.763 103.892 164.047 103.668 164.391 103.508C164.743 103.34 165.127 103.256 165.543 103.256ZM169.361 106.652C169.361 105.98 169.493 105.384 169.757 104.864C170.029 104.344 170.397 103.944 170.861 103.664C171.325 103.384 171.841 103.244 172.409 103.244C172.841 103.244 173.253 103.34 173.645 103.532C174.037 103.716 174.349 103.964 174.581 104.276V101.12H176.285V110H174.581V109.016C174.373 109.344 174.081 109.608 173.705 109.808C173.329 110.008 172.893 110.108 172.397 110.108C171.837 110.108 171.325 109.964 170.861 109.676C170.397 109.388 170.029 108.984 169.757 108.464C169.493 107.936 169.361 107.332 169.361 106.652ZM174.593 106.676C174.593 106.268 174.513 105.92 174.353 105.632C174.193 105.336 173.977 105.112 173.705 104.96C173.433 104.8 173.141 104.72 172.829 104.72C172.517 104.72 172.229 104.796 171.965 104.948C171.701 105.1 171.485 105.324 171.317 105.62C171.157 105.908 171.077 106.252 171.077 106.652C171.077 107.052 171.157 107.404 171.317 107.708C171.485 108.004 171.701 108.232 171.965 108.392C172.237 108.552 172.525 108.632 172.829 108.632C173.141 108.632 173.433 108.556 173.705 108.404C173.977 108.244 174.193 108.02 174.353 107.732C174.513 107.436 174.593 107.084 174.593 106.676Z" fill="#0065B3"/>
</svg>
