<svg width="313" height="254" viewBox="0 0 313 254" fill="none" xmlns="http://www.w3.org/2000/svg">
<path d="M170.183 29.3004L173.314 23.7817C171.929 21.5331 171.128 18.8857 171.128 16.051C171.128 7.89815 177.737 1.28906 185.89 1.28906C194.043 1.28906 200.652 7.89815 200.652 16.051C200.652 24.2038 194.043 30.8128 185.89 30.8128C182.486 30.8128 179.353 29.6575 176.856 27.7213L176.861 27.7277L170.183 29.3004Z" fill="white"/>
<path d="M170.183 29.3023C170.693 29.1759 172.691 28.6826 176.844 27.6566L176.801 27.7754L176.796 27.769C176.771 27.736 176.777 27.689 176.81 27.6635C176.837 27.6421 176.876 27.6432 176.902 27.6641C178.569 28.9458 180.955 30.1887 183.936 30.5777C184.678 30.6687 185.452 30.7261 186.248 30.6837C186.645 30.6594 187.049 30.6484 187.457 30.6124C187.861 30.5498 188.272 30.4861 188.688 30.4217C190.337 30.0895 192.021 29.4577 193.591 28.478C196.727 26.5476 199.393 23.1222 200.219 18.9351C200.625 16.8552 200.589 14.6257 200.041 12.4704C199.49 10.3226 198.463 8.22352 196.926 6.4972C195.37 4.73319 193.449 3.3199 191.33 2.49905C189.22 1.66024 186.97 1.33851 184.817 1.49155C182.663 1.64343 180.602 2.25732 178.832 3.24918C177.055 4.23292 175.555 5.54824 174.395 7.0195C173.232 8.49134 172.409 10.1162 171.896 11.7359C171.386 13.3631 171.243 14.9798 171.24 16.4784C171.31 19.4968 172.305 21.9854 173.376 23.7465C173.391 23.7691 173.389 23.7981 173.377 23.8202C171.381 27.2456 170.435 28.8687 170.183 29.3023C170.425 28.8629 171.334 27.2183 173.251 23.7477L173.253 23.8213C172.151 22.0556 171.122 19.5438 171.031 16.483C171.024 14.9636 171.16 13.3213 171.669 11.6652C172.182 10.0165 173.012 8.36033 174.191 6.85835C175.366 5.35694 176.89 4.01263 178.697 3.00571C180.499 1.99067 182.6 1.35938 184.795 1.20055C186.99 1.04055 189.287 1.36518 191.44 2.22023C193.604 3.05672 195.566 4.49783 197.153 6.29836C198.722 8.06063 199.77 10.2032 200.331 12.3962C200.887 14.5967 200.921 16.8702 200.504 18.9913C199.654 23.2619 196.926 26.7459 193.727 28.6983C192.126 29.6901 190.41 30.3255 188.733 30.6547C188.31 30.7179 187.893 30.7811 187.481 30.8426C187.067 30.8768 186.656 30.886 186.253 30.9087C185.445 30.9469 184.66 30.8843 183.908 30.7875C180.885 30.3742 178.479 29.0948 176.81 27.7824L176.915 27.6769L176.92 27.6832C176.946 27.7157 176.94 27.7627 176.908 27.7882C176.899 27.7951 176.888 27.7998 176.878 27.8021C172.704 28.7377 170.696 29.1875 170.183 29.3023Z" fill="#263238"/>
<path d="M152.823 34.3479C154.393 32.9497 154.371 30.7793 153.872 28.94C155.487 27.7852 156.502 25.2363 154.591 23.8282C157.595 21.9176 154.583 17.7333 151.547 18.8319C152.661 15.5769 146.704 14.5647 145.409 17.0093C144.081 14.3462 139.773 16.5595 139.597 19.0579C138.433 18.2777 136.232 18.2151 135.97 19.913C135.055 18.5803 131.591 19.0243 132.031 21.0144C129.662 20.4631 128.531 23.9708 130.775 24.9076C129.238 26.0044 129.482 28.5539 131.198 29.3399C130.149 29.8095 131.135 31.0912 132.051 30.9237C132.485 34.0007 130.963 38.9147 134.482 40.4816" fill="#263238"/>
<path d="M134.161 51.5525L138.274 57.2329L144.048 63.249L147.612 58.5662C147.666 56.379 147.776 51.9252 147.83 49.7549C155.482 49.0488 153.314 39.0178 153.22 31.1363C153.01 25.7764 148.523 21.576 143.176 21.6195C137.629 21.7302 134.625 26.5022 134.889 32.0441L134.161 49.8047" fill="#FFBE9D"/>
<path d="M147.836 49.7493C147.836 49.7493 144.463 49.8937 140.976 47.5117C140.976 47.5117 142.469 51.4032 147.795 51.1284L147.836 49.7493Z" fill="#EB996E"/>
<path d="M151.647 35.4179C151.664 36.3506 150.116 36.3935 150.128 35.4411C150.111 34.5066 151.659 34.4654 151.647 35.4179Z" fill="#263238"/>
<path d="M152.066 33.4151C151.171 33.0006 149.978 32.9699 149.074 33.2864C149.359 32.2858 151.891 32.3658 152.066 33.4151Z" fill="#263238"/>
<path d="M143.961 34.9028C143.978 35.8355 142.43 35.8784 142.442 34.926C142.425 33.9921 143.973 33.9509 143.961 34.9028Z" fill="#263238"/>
<path d="M143.929 32.8761C142.994 32.5619 141.805 32.6598 140.94 33.0726C141.116 32.0465 143.64 31.8512 143.929 32.8761Z" fill="#263238"/>
<path d="M146.668 39.7134C146.462 39.5893 148.182 39.6844 148.454 39.3366C148.201 37.903 146.288 32.8939 146.556 32.8881C146.649 32.8579 147.349 34.6944 148.119 36.9906C148.31 37.8642 148.851 38.554 148.726 39.4357C148.502 40.0293 146.573 39.6983 146.668 39.7134Z" fill="#263238"/>
<path d="M144.267 29.9706C144.181 30.0976 140.639 30.348 140.534 30.2384C140.84 29.1422 143.809 28.9295 144.267 29.9706Z" fill="#263238"/>
<path d="M152.044 29.7913C151.836 29.8853 149.475 29.7206 149.281 29.5995C149.394 28.5479 152.077 28.7346 152.044 29.7913Z" fill="#263238"/>
<path d="M152.346 21.9173L151.974 21.7445C153.266 18.2895 147.997 16.9383 146.581 20.024C145.997 18.8484 144.522 18.1985 143.26 18.562C141.905 18.8008 141.263 20.4257 140.086 20.8582C136.098 16.5192 129.188 24.1769 133.333 26.9339C132.084 28.4747 132.757 30.9842 134.609 31.6938C136.047 36.2119 142.455 32.408 139.182 28.9826C140.972 29.8533 143.263 28.5629 143.447 26.5803C144.561 28.2521 149.551 28.4005 148.209 25.6198C150.525 26.8464 153.309 24.3543 152.346 21.9173Z" fill="#263238"/>
<path d="M137.073 32.9266C137.192 34.3717 137.179 39.5716 134.753 37.4366C133.889 35.4314 134.304 33.0587 134.241 30.915" fill="#263238"/>
<path d="M135.171 36.0078C129.998 34.2183 130.676 42.7879 135.178 41.2367C135.185 41.1323 135.171 36.0078 135.171 36.0078Z" fill="#FFBE9D"/>
<path d="M134.075 39.8299C132.5 40.8959 132.213 36.4184 133.749 37.3013C133.902 37.8125 133.928 36.8161 133.351 36.9476C131.676 37.2433 132.661 41.2066 134.075 39.8299Z" fill="#EB996E"/>
<path d="M131.916 199.814L132.169 210.766C132.169 210.766 121.122 214.701 120.972 216.729L142.224 217.002L142.53 199.922L131.916 199.814Z" fill="#4D93CA"/>
<g opacity="0.6">
<path d="M138.752 209.928C139.162 210.045 139.44 210.511 139.339 210.926C139.238 211.34 138.767 211.627 138.355 211.517C137.943 211.406 137.592 210.858 137.738 210.457C137.885 210.056 138.457 209.75 138.83 209.956" fill="white"/>
</g>
<g opacity="0.6">
<path d="M142.224 216.998L142.187 215.275L121.825 215.659C121.825 215.659 120.874 216.058 120.972 216.726L142.224 216.998Z" fill="white"/>
</g>
<path d="M131.826 210.653C131.828 210.757 132.346 210.811 132.853 211.151C133.368 211.478 133.625 211.931 133.721 211.891C133.817 211.872 133.67 211.25 133.05 210.849C132.433 210.442 131.805 210.558 131.826 210.653Z" fill="#263238"/>
<path d="M129.585 211.544C129.56 211.645 130.007 211.827 130.354 212.27C130.714 212.703 130.797 213.179 130.9 213.176C130.997 213.194 131.077 212.587 130.635 212.043C130.199 211.497 129.589 211.446 129.585 211.544Z" fill="#263238"/>
<path d="M128.285 214.203C128.379 214.226 128.53 213.71 128.271 213.138C128.016 212.564 127.529 212.334 127.484 212.42C127.424 212.504 127.736 212.813 127.941 213.286C128.158 213.754 128.182 214.191 128.285 214.203Z" fill="#263238"/>
<path d="M132.045 208.144C132.087 208.239 132.565 208.102 133.151 208.149C133.738 208.184 134.192 208.387 134.247 208.299C134.308 208.225 133.868 207.835 133.177 207.789C132.486 207.737 131.995 208.061 132.045 208.144Z" fill="#263238"/>
<g opacity="0.3">
<path d="M131.969 201.986L132.011 203.938L142.458 203.977L142.503 201.726L131.969 201.986Z" fill="black"/>
</g>
<path d="M132.035 205.94C132.033 205.983 132.443 206.053 133.1 205.948C133.426 205.896 133.812 205.794 134.217 205.62C134.42 205.533 134.627 205.428 134.832 205.304C134.931 205.242 135.048 205.18 135.157 205.058C135.273 204.951 135.342 204.676 135.211 204.507C135.105 204.342 134.913 204.269 134.76 204.264C134.603 204.257 134.476 204.287 134.36 204.314C134.122 204.368 133.9 204.443 133.695 204.532C133.286 204.712 132.953 204.941 132.705 205.163C132.206 205.614 132.033 205.999 132.068 206.02C132.115 206.054 132.359 205.733 132.865 205.362C133.118 205.178 133.44 204.988 133.821 204.84C134.013 204.767 134.218 204.704 134.435 204.659C134.661 204.603 134.852 204.603 134.908 204.704C134.928 204.743 134.931 204.758 134.883 204.823C134.834 204.883 134.742 204.941 134.644 205.003C134.455 205.123 134.264 205.227 134.078 205.317C133.705 205.496 133.349 205.617 133.044 205.698C132.435 205.861 132.034 205.884 132.035 205.94Z" fill="#263238"/>
<path d="M132.168 206.091C132.204 206.107 132.415 205.738 132.462 205.066C132.484 204.733 132.454 204.329 132.332 203.9C132.269 203.686 132.183 203.466 132.069 203.25C131.948 203.038 131.799 202.755 131.398 202.704C131.188 202.693 131.01 202.855 130.949 202.995C130.878 203.137 130.862 203.261 130.835 203.384C130.793 203.632 130.795 203.875 130.825 204.101C130.886 204.554 131.067 204.933 131.266 205.206C131.674 205.762 132.106 205.892 132.115 205.857C132.15 205.805 131.791 205.6 131.48 205.066C131.327 204.804 131.192 204.458 131.156 204.062C131.137 203.865 131.143 203.656 131.183 203.447C131.219 203.222 131.306 203.041 131.391 203.065C131.496 203.064 131.673 203.237 131.758 203.418C131.865 203.61 131.949 203.806 132.014 203.999C132.142 204.384 132.196 204.753 132.207 205.063C132.228 205.687 132.112 206.074 132.168 206.091Z" fill="#263238"/>
<path d="M169.186 199.895L168.773 210.841C168.773 210.841 179.762 214.936 179.883 216.967L158.629 216.93L158.571 199.848L169.186 199.895Z" fill="#4D93CA"/>
<g opacity="0.6">
<path d="M162.203 209.91C161.791 210.022 161.506 210.484 161.601 210.9C161.696 211.316 162.164 211.61 162.577 211.505C162.99 211.401 163.35 210.857 163.209 210.454C163.068 210.051 162.5 209.737 162.124 209.937" fill="white"/>
</g>
<g opacity="0.6">
<path d="M158.629 216.931L158.691 215.209L179.045 215.888C179.045 215.888 179.99 216.301 179.883 216.967L158.629 216.931Z" fill="white"/>
</g>
<path d="M169.118 210.736C169.114 210.84 168.595 210.886 168.084 211.219C167.564 211.538 167.3 211.988 167.205 211.946C167.109 211.926 167.265 211.306 167.891 210.914C168.514 210.516 169.141 210.641 169.118 210.736Z" fill="#263238"/>
<path d="M171.345 211.652C171.369 211.753 170.919 211.929 170.566 212.367C170.2 212.795 170.11 213.27 170.007 213.265C169.909 213.281 169.839 212.673 170.288 212.136C170.733 211.596 171.344 211.554 171.345 211.652Z" fill="#263238"/>
<path d="M172.607 214.33C172.512 214.352 172.369 213.833 172.636 213.265C172.899 212.695 173.389 212.472 173.433 212.558C173.492 212.643 173.176 212.948 172.964 213.418C172.74 213.882 172.71 214.319 172.607 214.33Z" fill="#263238"/>
<path d="M168.935 208.225C168.891 208.32 168.416 208.176 167.829 208.215C167.242 208.242 166.785 208.438 166.731 208.349C166.671 208.273 167.118 207.89 167.809 207.854C168.5 207.812 168.986 208.143 168.935 208.225Z" fill="#263238"/>
<g opacity="0.3">
<path d="M169.101 202.065L169.03 204.017L158.585 203.903L158.572 201.651L169.101 202.065Z" fill="black"/>
</g>
<path d="M168.977 206.015C168.978 206.058 168.568 206.121 167.913 206.007C167.586 205.95 167.203 205.843 166.8 205.663C166.599 205.574 166.393 205.466 166.189 205.338C166.091 205.275 165.976 205.211 165.868 205.087C165.754 204.979 165.689 204.704 165.821 204.535C165.93 204.372 166.123 204.302 166.276 204.298C166.433 204.294 166.56 204.326 166.675 204.354C166.912 204.412 167.134 204.491 167.337 204.582C167.742 204.768 168.072 205.002 168.317 205.228C168.809 205.686 168.977 206.073 168.941 206.094C168.894 206.128 168.655 205.803 168.153 205.425C167.904 205.237 167.584 205.042 167.205 204.888C167.015 204.812 166.81 204.747 166.594 204.699C166.369 204.639 166.177 204.637 166.119 204.738C166.098 204.776 166.096 204.791 166.142 204.857C166.191 204.918 166.282 204.978 166.378 205.04C166.566 205.163 166.755 205.27 166.94 205.363C167.311 205.548 167.665 205.673 167.969 205.759C168.578 205.929 168.979 205.958 168.977 206.015Z" fill="#263238"/>
<path d="M168.842 206.169C168.805 206.184 168.599 205.812 168.563 205.14C168.545 204.807 168.581 204.403 168.71 203.975C168.775 203.762 168.865 203.543 168.982 203.329C169.108 203.12 169.26 202.839 169.662 202.793C169.873 202.786 170.047 202.95 170.106 203.091C170.177 203.235 170.191 203.358 170.215 203.481C170.254 203.729 170.248 203.973 170.214 204.198C170.146 204.651 169.961 205.027 169.757 205.297C169.341 205.847 168.908 205.971 168.9 205.935C168.865 205.883 169.227 205.684 169.546 205.154C169.703 204.893 169.843 204.55 169.884 204.155C169.906 203.958 169.903 203.749 169.866 203.54C169.833 203.314 169.749 203.132 169.664 203.154C169.559 203.153 169.378 203.322 169.291 203.502C169.182 203.692 169.095 203.887 169.026 204.078C168.893 204.462 168.834 204.83 168.818 205.14C168.788 205.764 168.898 206.153 168.842 206.169Z" fill="#263238"/>
<path d="M161.583 108.818L171.641 209.951L158.644 210.56L143.198 127.565L143.388 210.054L129.584 209.873L124.268 107.746L161.583 108.818Z" fill="#263238"/>
<path d="M132.801 116.039C132.83 116.052 132.674 116.488 132.243 117.093C131.817 117.698 131.078 118.443 130.087 119.006C129.094 119.565 128.074 119.814 127.337 119.867C126.596 119.925 126.142 119.834 126.146 119.803C126.148 119.752 126.601 119.765 127.311 119.655C128.02 119.549 128.985 119.279 129.939 118.743C130.889 118.203 131.618 117.514 132.075 116.961C132.534 116.41 132.756 116.015 132.801 116.039Z" fill="#455A64"/>
<path d="M162.674 117.172C162.688 117.201 162.227 117.464 161.405 117.695C160.587 117.928 159.396 118.085 158.096 117.929C156.797 117.768 155.677 117.331 154.939 116.907C154.197 116.485 153.813 116.119 153.833 116.095C153.863 116.053 154.29 116.355 155.038 116.718C155.784 117.083 156.875 117.473 158.132 117.629C159.39 117.779 160.543 117.663 161.355 117.487C162.169 117.315 162.655 117.124 162.674 117.172Z" fill="#455A64"/>
<path d="M145.512 124.851C145.525 124.856 145.457 125.018 145.188 125.137C144.926 125.247 144.462 125.257 144.028 124.956C143.591 124.648 143.339 124.058 143.181 123.442C143.022 122.813 142.852 122.14 142.674 121.435C142.324 120.01 142.023 118.715 141.82 117.775C141.617 116.835 141.511 116.248 141.552 116.238C141.593 116.229 141.771 116.797 142.027 117.724C142.284 118.652 142.617 119.937 142.968 121.362C143.137 122.069 143.299 122.742 143.45 123.372C143.59 123.978 143.805 124.508 144.157 124.785C144.508 125.061 144.914 125.09 145.151 125.025C145.395 124.956 145.493 124.832 145.512 124.851Z" fill="#455A64"/>
<path d="M144.089 116.23C144.086 116.214 144.152 116.173 144.29 116.171C144.426 116.168 144.629 116.224 144.819 116.386C144.999 116.545 145.185 116.823 145.154 117.183C145.129 117.55 144.797 117.871 144.417 117.949C144.039 118.041 143.602 117.892 143.423 117.571C143.242 117.259 143.29 116.929 143.386 116.707C143.489 116.48 143.649 116.342 143.772 116.287C143.897 116.23 143.975 116.239 143.979 116.254C144.001 116.298 143.706 116.387 143.586 116.782C143.53 116.969 143.525 117.225 143.658 117.422C143.783 117.623 144.068 117.717 144.351 117.654C144.633 117.59 144.85 117.383 144.878 117.148C144.914 116.913 144.8 116.683 144.67 116.539C144.392 116.234 144.088 116.279 144.089 116.23Z" fill="#455A64"/>
<path d="M143.009 206.781C143.007 206.825 142.253 206.817 141.037 206.807C139.82 206.797 138.141 206.794 136.286 206.842C134.432 206.892 132.754 206.984 131.54 207.059C130.325 207.133 129.573 207.182 129.569 207.138C129.566 207.117 129.752 207.078 130.089 207.026C130.425 206.973 130.915 206.911 131.522 206.846C132.734 206.717 134.416 206.591 136.277 206.541C138.138 206.492 139.824 206.529 141.042 206.594C141.651 206.626 142.143 206.662 142.482 206.697C142.823 206.732 143.011 206.761 143.009 206.781Z" fill="#455A64"/>
<path d="M170.967 205.534C170.977 205.617 168.124 206.033 164.594 206.462C161.064 206.892 158.195 207.173 158.185 207.091C158.175 207.008 161.028 206.593 164.558 206.163C168.087 205.733 170.957 205.451 170.967 205.534Z" fill="#455A64"/>
<path d="M162.766 165.405C162.837 165.448 161.625 167.588 160.059 170.185C158.492 172.782 157.164 174.852 157.093 174.808C157.022 174.765 158.233 172.626 159.801 170.029C161.367 167.432 162.695 165.362 162.766 165.405Z" fill="#455A64"/>
<path d="M138.372 167.118C138.448 167.152 137.61 169.155 136.5 171.59C135.39 174.026 134.429 175.972 134.353 175.938C134.277 175.903 135.115 173.901 136.225 171.465C137.335 169.029 138.297 167.083 138.372 167.118Z" fill="#455A64"/>
<path d="M139.557 175.858C139.521 175.882 139.153 175.38 138.559 174.573C137.964 173.765 137.135 172.656 136.181 171.462C135.225 170.268 134.325 169.216 133.667 168.458C133.009 167.701 132.601 167.232 132.632 167.201C132.66 167.174 133.123 167.59 133.824 168.314C134.525 169.037 135.456 170.073 136.417 171.273C137.376 172.473 138.182 173.608 138.734 174.451C139.286 175.292 139.59 175.837 139.557 175.858Z" fill="#455A64"/>
<path d="M126.428 55.9902C126.428 55.9902 119.549 59.709 118.154 60.5182C116.643 61.3947 112.161 70.242 112.661 74.7445C113.162 79.2464 113.519 78.4603 113.162 79.2464C112.805 80.0324 111.585 85.4636 112.623 87.6792C113.661 89.8947 117.592 94.3253 119.879 94.7537C122.166 95.1827 133.886 78.9177 135.243 75.6517C136.601 72.3857 135.886 68.8125 135.886 68.8125L129.906 66.1476L126.428 55.9902Z" fill="#4D93CA"/>
<path d="M121.088 88.3888C121.088 88.9314 121.088 105.214 121.088 107.792C121.088 110.37 124.144 114.983 124.144 114.983H142.933H161.794C161.794 114.983 163.422 106.842 163.151 103.178C162.88 99.5143 160.03 65.1861 160.03 65.1861L159.08 55.6884L149.039 53.2461L148.514 51.1099L133.268 49.2949L132.458 52.8224L125.958 56.2466C125.958 56.7892 121.088 88.3888 121.088 88.3888Z" fill="#4D93CA"/>
<path d="M159.08 55.6904C159.08 55.6904 162.52 57.4886 164.465 60.9906C166.41 64.4925 172.636 84.2079 172.896 86.6727C173.156 89.137 173.285 92.5096 172.896 92.7688C172.507 93.0285 174.064 102.108 174.582 104.572C175.101 107.036 176.251 113.461 175.862 116.574C175.473 119.687 175.491 121.433 175.491 121.433L166.93 118.839L167.225 115.842C167.225 115.842 165.52 110.633 164.336 106.906C163.151 103.179 158.369 68.2535 158.369 68.2535L159.08 55.6904Z" fill="#4D93CA"/>
<path d="M162.424 111.425C162.424 111.435 162.284 111.452 162.015 111.473C161.716 111.492 161.325 111.518 160.838 111.549C159.816 111.611 158.335 111.679 156.505 111.744C152.846 111.877 147.786 111.969 142.198 111.921C136.609 111.871 131.552 111.701 127.894 111.535C126.065 111.452 124.586 111.373 123.564 111.307C123.077 111.274 122.687 111.246 122.387 111.226C122.118 111.204 121.978 111.187 121.978 111.176C121.979 111.166 122.121 111.162 122.39 111.165C122.69 111.171 123.081 111.18 123.569 111.19C124.627 111.222 126.098 111.267 127.902 111.322C131.56 111.434 136.615 111.569 142.201 111.619C147.785 111.667 152.84 111.609 156.499 111.531C158.303 111.489 159.775 111.456 160.833 111.431C161.321 111.423 161.713 111.416 162.012 111.411C162.281 111.411 162.423 111.415 162.424 111.425Z" fill="#263238"/>
<path d="M136.075 68.9161C136.085 68.9126 136.125 69.0158 136.193 69.2158C136.251 69.4181 136.375 69.708 136.455 70.1022C136.658 70.8789 136.829 72.0453 136.761 73.487C136.702 74.9293 136.312 76.6272 135.597 78.3912C134.87 80.1529 133.811 81.9714 132.512 83.736C129.902 87.2773 126.852 89.8766 124.617 91.6517C123.492 92.5392 122.558 93.2244 121.906 93.6887C121.6 93.9009 121.35 94.0748 121.149 94.2145C120.974 94.3316 120.879 94.389 120.873 94.3809C120.866 94.3727 120.949 94.2985 121.113 94.1658C121.305 94.0145 121.544 93.8255 121.836 93.5948C122.466 93.1026 123.379 92.3919 124.483 91.4859C126.678 89.6732 129.685 87.0634 132.268 83.558C133.556 81.8091 134.61 80.0155 135.34 78.2851C136.058 76.5518 136.462 74.8904 136.548 73.4736C136.641 72.058 136.506 70.9045 136.339 70.1271C136.178 69.3491 136.047 68.9248 136.075 68.9161Z" fill="#263238"/>
<path d="M129.779 65.5833C129.793 65.6007 129.601 65.7717 129.252 66.0731C128.91 66.3827 128.416 66.8308 127.842 67.4215C126.676 68.5879 125.258 70.3785 123.494 72.2028C121.731 74.0393 119.779 75.3233 118.298 76.0688C117.557 76.4468 116.934 76.7024 116.498 76.8618C116.063 77.0224 115.814 77.0879 115.807 77.0705C115.788 77.0207 116.754 76.6723 118.198 75.8798C119.64 75.092 121.537 73.8045 123.279 71.9907C125.024 70.1861 126.477 68.4064 127.691 67.2691C128.29 66.6928 128.81 66.265 129.177 65.9816C129.552 65.7068 129.767 65.5671 129.779 65.5833Z" fill="#263238"/>
<path d="M142.589 50.4063C142.594 50.4057 142.602 50.4584 142.615 50.5628C142.627 50.6851 142.642 50.8381 142.662 51.0277C142.693 51.459 142.736 52.0566 142.79 52.8143C142.891 54.3667 143.025 56.6136 143.169 59.3915C143.459 64.9467 143.818 72.623 144.092 81.1062C144.366 89.5923 144.498 97.2779 144.46 102.842C144.462 104.233 144.434 105.492 144.408 106.596C144.385 107.701 144.365 108.653 144.319 109.43C144.279 110.189 144.247 110.787 144.224 111.219C144.211 111.409 144.201 111.562 144.192 111.684C144.183 111.788 144.176 111.842 144.171 111.842C144.165 111.841 144.162 111.787 144.161 111.682C144.162 111.56 144.162 111.406 144.164 111.216C144.173 110.784 144.186 110.185 144.201 109.426C144.229 108.649 144.232 107.698 144.239 106.594C144.249 105.489 144.262 104.232 144.246 102.842C144.23 97.2814 144.064 89.5993 143.79 81.1161C143.516 72.6352 143.191 64.9589 142.956 59.4019C142.837 56.6409 142.741 54.3986 142.673 52.8213C142.642 52.0619 142.619 51.4636 142.601 51.0317C142.594 50.8422 142.589 50.6891 142.585 50.5674C142.582 50.4613 142.583 50.4068 142.589 50.4063Z" fill="#263238"/>
<path d="M134.705 94.0614C134.73 94.0875 134.261 94.5947 133.418 95.3251C132.577 96.0555 131.345 96.9918 129.883 97.8659C128.419 98.7384 127.01 99.3772 125.968 99.7714C124.925 100.167 124.257 100.338 124.245 100.304C124.23 100.259 124.873 100.017 125.887 99.5737C126.901 99.132 128.279 98.4694 129.728 97.6068C131.175 96.7413 132.412 95.8434 133.282 95.1599C134.154 94.4776 134.673 94.0272 134.705 94.0614Z" fill="#263238"/>
<path d="M161.092 99.4349C161.069 99.4679 160.621 99.2093 159.931 98.738C159.241 98.2673 158.314 97.5769 157.339 96.7549C156.364 95.9318 155.528 95.1341 154.948 94.533C154.367 93.9324 154.037 93.5336 154.066 93.5057C154.097 93.4756 154.48 93.8205 155.096 94.3799C155.712 94.9388 156.565 95.7062 157.534 96.5242C158.502 97.341 159.403 98.0528 160.057 98.5659C160.712 99.0789 161.117 99.3989 161.092 99.4349Z" fill="#263238"/>
<path d="M161.452 82.7207C161.462 82.719 161.488 82.8158 161.529 83.0025C161.573 83.2239 161.628 83.494 161.693 83.8216C161.833 84.5334 162.005 85.5688 162.187 86.8528C162.558 89.4197 162.916 92.9929 163.008 96.9516C163.11 100.911 162.954 104.495 162.804 107.082C162.723 108.376 162.648 109.422 162.58 110.144C162.547 110.476 162.521 110.751 162.499 110.975C162.477 111.165 162.46 111.264 162.449 111.263C162.439 111.262 162.435 111.162 162.438 110.971C162.445 110.745 162.453 110.47 162.463 110.137C162.495 109.367 162.539 108.331 162.591 107.072C162.687 104.485 162.809 100.907 162.706 96.9597C162.615 93.0126 162.292 89.4498 161.976 86.8812C161.821 85.5966 161.681 84.5578 161.578 83.8413C161.535 83.5108 161.499 83.2372 161.47 83.014C161.448 82.8233 161.442 82.7225 161.452 82.7207Z" fill="#263238"/>
<path d="M133.792 70.9061C133.718 70.8627 133.973 70.2998 134.244 69.5949C134.518 68.8911 134.709 68.3027 134.793 68.3207C134.872 68.3358 134.81 68.9734 134.526 69.7039C134.244 70.4349 133.861 70.9485 133.792 70.9061Z" fill="#263238"/>
<path d="M130.635 69.3467C130.566 69.3009 130.835 68.7723 131.235 68.1665C131.636 67.5607 132.018 67.1068 132.087 67.1526C132.157 67.1984 131.888 67.7271 131.487 68.3328C131.086 68.9386 130.705 69.3925 130.635 69.3467Z" fill="#263238"/>
<path d="M128.474 67.808C128.419 67.7477 128.819 67.2949 129.414 66.855C130.008 66.4138 130.558 66.1628 130.599 66.2335C130.643 66.306 130.174 66.6666 129.594 67.0978C129.012 67.5274 128.531 67.8706 128.474 67.808Z" fill="#263238"/>
<path d="M121.84 73.5466C121.807 73.6532 120.221 72.9141 118.136 72.8811C116.051 72.8579 114.446 73.5541 114.415 73.4469C114.402 73.4133 114.783 73.2098 115.446 72.9918C116.108 72.7762 117.066 72.5669 118.141 72.5797C119.215 72.5959 120.167 72.8307 120.822 73.0643C121.479 73.2996 121.855 73.5135 121.84 73.5466Z" fill="#263238"/>
<path d="M126.84 66.3787C126.79 66.4008 126.558 65.8628 126.03 65.0947C125.507 64.3266 124.64 63.3551 123.466 62.5568C122.287 61.7638 121.063 61.3215 120.155 61.1215C119.245 60.9175 118.66 60.9024 118.662 60.8479C118.662 60.827 118.808 60.8154 119.074 60.812C119.341 60.8033 119.726 60.8346 120.197 60.9117C121.137 61.0618 122.418 61.4873 123.635 62.3064C124.848 63.1301 125.72 64.1608 126.209 64.9776C126.456 65.3851 126.629 65.7318 126.72 65.9822C126.816 66.2309 126.859 66.3706 126.84 66.3787Z" fill="#263238"/>
<g opacity="0.3">
<path d="M120.717 94.1721C124.376 94.9993 128.286 93.3802 130.927 90.7166C133.569 88.0523 135.105 84.4796 136.115 80.8664C136.589 79.1725 137.143 77.648 136.217 76.1523C135.533 78.27 134.661 79.9308 133.599 81.8867C132.793 83.3707 131.38 85.0269 130.303 86.2784C127.522 89.5079 124.386 91.8186 120.717 94.1721Z" fill="black"/>
</g>
<g opacity="0.3">
<path d="M127.893 107.3C129.47 107.554 131.122 107.644 132.632 107.123C134.141 106.602 135.484 105.361 135.741 103.785C136.116 105.23 135.445 106.833 134.265 107.748C133.086 108.663 131.486 108.933 130.016 108.671C129.1 108.507 128.148 108.088 127.72 107.26" fill="black"/>
</g>
<g opacity="0.3">
<path d="M124.819 111.259C128.235 112.735 132.374 113.258 136.081 113.583C139.925 113.92 143.783 114.256 147.638 114.069C151.492 113.881 155.368 113.151 158.831 111.449C158.831 111.449 145.015 111.836 140.785 111.672C136.556 111.506 124.819 111.259 124.819 111.259Z" fill="black"/>
</g>
<path d="M169.331 116.987C169.414 116.996 169.453 117.554 169.419 118.235C169.385 118.917 169.289 119.468 169.206 119.468C169.122 119.468 169.083 118.91 169.118 118.22C169.152 117.531 169.248 116.979 169.331 116.987Z" fill="#263238"/>
<path d="M172.758 117.69C172.839 117.681 172.966 118.308 172.945 119.091C172.927 119.873 172.77 120.493 172.689 120.481C172.605 120.469 172.626 119.846 172.643 119.083C172.664 118.32 172.673 117.697 172.758 117.69Z" fill="#263238"/>
<path d="M142.543 50.2967C142.581 50.2717 142.822 50.8688 143.667 51.3592C144.076 51.6126 144.617 51.8253 145.205 52.132C145.352 52.2102 145.5 52.2954 145.647 52.3934C145.794 52.4949 145.955 52.6143 146.06 52.816C146.172 53.0201 146.129 53.2977 146.015 53.4716C145.904 53.6554 145.77 53.7887 145.631 53.9273C145.489 54.0635 145.332 54.1928 145.137 54.2786C144.947 54.3673 144.697 54.3864 144.494 54.2931C144.09 54.0838 143.959 53.7348 143.775 53.4722C143.43 52.9105 143.172 52.3749 142.984 51.9157C142.611 50.9929 142.506 50.3842 142.539 50.3761C142.586 50.3622 142.763 50.9465 143.179 51.8299C143.389 52.2705 143.661 52.7841 144.01 53.3244C144.19 53.5847 144.362 53.9122 144.613 54.0223C144.861 54.1383 145.172 53.9592 145.423 53.7099C145.683 53.46 145.925 53.1737 145.795 52.9459C145.672 52.707 145.338 52.5354 145.073 52.376C144.515 52.067 143.968 51.8282 143.553 51.5389C142.689 50.972 142.499 50.2926 142.543 50.2967Z" fill="#263238"/>
<g opacity="0.3">
<path d="M121.849 73.3818C121.155 74.118 120.168 74.4966 119.197 74.7841C118.227 75.0716 117.221 75.2977 116.351 75.8142C116.214 75.896 116.076 75.9893 115.993 76.1261C115.911 76.2635 115.9 76.4554 116.009 76.5736C116.149 76.7267 116.396 76.6855 116.595 76.6264C118.63 76.0235 120.49 75.0119 121.849 73.3818Z" fill="black"/>
</g>
<path d="M147.981 65.7753L137.181 60.6549C136.406 60.1598 136.379 58.7784 136.797 57.841C137.046 57.2845 137.699 57.0312 138.279 57.2202L150.055 61.383L147.981 65.7753Z" fill="#263238"/>
<path d="M151.934 64.8975C151.117 67.1943 151.328 69.3681 152.407 69.7525C153.486 70.1368 155.024 68.5861 155.842 66.2894C156.661 63.9926 156.449 61.8188 155.37 61.4345C154.291 61.0501 152.753 62.6008 151.934 64.8975Z" fill="#455A64"/>
<path d="M147.982 65.7759L151.978 69.5132C150.675 65.7759 152.914 62.4386 154.906 61.3813L150.006 61.3662L147.982 65.7759Z" fill="#263238"/>
<path d="M151.723 68.5762C151.723 68.5762 154.837 67.1328 154.287 61.7793C154.287 61.7793 151.074 63.7265 151.723 68.5762Z" fill="#FAFAFA"/>
<path d="M158.23 63.9532L157.797 71.4892L157.446 63.9532L150.882 63.6077L157.434 63.2599L157.826 55.8369L158.143 63.2639L166.551 63.6384L158.23 63.9532Z" fill="#FFF9F9"/>
<path d="M157.215 63.4854L155.515 60.751L157.634 63.1897L157.215 63.4854Z" fill="#FFF9F9"/>
<path d="M157.822 63.2969L160.103 61.0547L158.185 63.6633L157.822 63.2969Z" fill="#FFF9F9"/>
<path d="M158.228 63.8359L159.929 66.5703L157.809 64.1316L158.228 63.8359Z" fill="#FFF9F9"/>
<path d="M157.621 64.0285L155.34 66.2707L157.259 63.6621L157.621 64.0285Z" fill="#FFF9F9"/>
<path d="M142.525 55.5439C141.96 55.1039 140.49 55.0795 140.49 55.0795C140.49 55.0795 140.974 54.7491 139.92 53.8975C139.559 53.606 137.363 53.9329 137.363 53.9329C137.363 53.9329 137.363 53.0993 136.573 52.9028C136.267 52.8268 135.776 52.759 135.212 52.9242C134.479 53.1387 133.714 53.3729 133.68 54.1364L133.401 55.6702C133.391 55.6685 133.379 55.6644 133.372 55.6644C133.236 55.6563 132.113 55.5392 132.053 55.6186C131.994 55.6975 131.781 56.8366 131.709 57.3902C131.655 57.8041 132.133 59.3536 132.579 60.1884L132.446 62.2184L129.725 65.6752L135.998 68.729C135.998 68.729 137.175 66.7482 137.869 65.787C138.593 64.7824 140.206 64.0955 140.485 63.3268C140.852 62.3164 141.559 60.244 141.829 58.6493C142.025 57.4916 143.015 57.2029 143.015 57.2029C143.015 57.2029 143.091 55.9839 142.525 55.5439Z" fill="#FFBE9D"/>
<path d="M133.54 54.9023C133.629 54.8995 133.637 55.9296 133.428 57.1527C133.219 58.3765 133.124 59.359 133.062 59.3637C132.973 59.3683 132.95 58.337 133.16 57.1121C133.368 55.8884 133.478 54.9064 133.54 54.9023Z" fill="#EB996E"/>
<path d="M135.447 56.7407C135.411 56.7233 135.482 56.5163 135.499 56.1673C135.534 55.8242 135.459 55.3123 135.655 54.7448C135.753 54.4671 135.946 54.2138 136.186 54.0868C136.423 53.9581 136.651 53.9297 136.83 53.9071C137.192 53.8758 137.404 53.8492 137.417 53.8828C137.432 53.9199 137.214 54.0173 136.865 54.0961C136.694 54.1407 136.49 54.1906 136.313 54.3019C136.135 54.4109 135.996 54.601 135.91 54.8387C135.738 55.3169 135.772 55.8288 135.689 56.1917C135.62 56.561 135.477 56.7586 135.447 56.7407Z" fill="#EB996E"/>
<path d="M140.73 54.9015C140.727 54.9386 140.492 54.9699 140.121 54.9908C139.935 55.0012 139.714 55.0087 139.469 55.0128C139.219 55.007 138.976 55.0371 138.726 55.1299C138.48 55.2221 138.278 55.3728 138.154 55.5519C138.031 55.7287 137.985 55.9391 137.948 56.1177C137.885 56.4823 137.807 56.7165 137.767 56.7038C137.735 56.6927 137.742 56.4719 137.757 56.0922C137.773 55.9044 137.797 55.6586 137.944 55.4157C138.089 55.178 138.341 54.9838 138.629 54.876C138.914 54.7664 139.224 54.7421 139.466 54.7624C139.716 54.7716 139.941 54.7844 140.128 54.7983C140.505 54.8279 140.734 54.8644 140.73 54.9015Z" fill="#EB996E"/>
<path d="M142.588 55.7285C142.587 55.769 142.328 55.7743 141.924 55.8021C141.529 55.8322 140.947 55.903 140.549 56.329C140.148 56.7563 140.063 57.3307 140.015 57.7255C139.971 58.129 139.949 58.3869 139.909 58.3864C139.874 58.3864 139.827 58.1342 139.823 57.7139C139.824 57.3093 139.874 56.6577 140.351 56.1424C140.585 55.8902 140.894 55.7418 141.173 55.6746C141.455 55.6062 141.71 55.6009 141.92 55.6096C142.341 55.6322 142.59 55.6948 142.588 55.7285Z" fill="#EB996E"/>
<path d="M167.359 118.969L165.71 122.808V127.835C165.71 127.835 166.628 130.669 167.212 130.615C167.796 130.562 168.919 130.134 168.758 129.439L170.042 130.134L171.432 130.027C171.432 130.027 175.074 126.498 175.258 125.749C175.443 125 175.496 123.796 175.496 123.796L174.404 121.104L167.359 118.969Z" fill="#FFBE9D"/>
<path d="M168.447 124.991C168.489 124.999 168.463 125.275 168.355 125.693C168.246 126.112 168.108 126.671 168.162 127.305C168.248 128.592 168.977 129.435 168.901 129.483C168.876 129.507 168.652 129.34 168.407 128.967C168.161 128.6 167.909 128.013 167.86 127.328C167.801 126.641 167.991 126.024 168.151 125.63C168.311 125.228 168.407 124.984 168.447 124.991Z" fill="#EB996E"/>
<path d="M170.056 128.086C170.016 128.096 169.912 127.863 169.778 127.48C169.712 127.289 169.637 127.06 169.559 126.804C169.478 126.551 169.414 126.252 169.276 126.02C169.143 125.779 168.929 125.696 168.728 125.783C168.524 125.866 168.394 126.044 168.326 126.217C168.196 126.571 168.176 126.839 168.125 126.831C168.094 126.827 168.031 126.579 168.123 126.15C168.174 125.941 168.321 125.667 168.616 125.528C168.76 125.457 168.958 125.431 169.136 125.501C169.316 125.569 169.449 125.716 169.536 125.866C169.712 126.173 169.757 126.466 169.827 126.725C169.891 126.988 169.944 127.225 169.985 127.425C170.067 127.825 170.097 128.077 170.056 128.086Z" fill="#EB996E"/>
<path d="M173.152 125.497C173.23 125.48 173.424 126.137 173.364 126.967C173.308 127.799 173.025 128.423 172.951 128.395C172.868 128.368 173.011 127.735 173.063 126.947C173.12 126.159 173.066 125.512 173.152 125.497Z" fill="#EB996E"/>
<path d="M169.807 124.568C169.889 124.561 170.012 125.226 170.025 126.054C170.04 126.883 169.938 127.551 169.856 127.546C169.771 127.542 169.738 126.877 169.723 126.059C169.711 125.242 169.723 124.575 169.807 124.568Z" fill="#EB996E"/>
<path d="M174.652 126.648C174.583 126.616 174.643 126.213 174.655 125.69C174.68 125.168 174.673 124.749 174.751 124.73C174.836 124.709 174.984 125.151 174.956 125.702C174.945 126.253 174.736 126.688 174.652 126.648Z" fill="#EB996E"/>
<path d="M146.692 42.0109C146.391 41.8932 146.03 42.0753 145.877 42.3605C145.724 42.6451 145.747 42.9981 145.859 43.3013C145.906 43.4289 145.983 43.5639 146.114 43.6004C146.204 43.6254 146.322 43.6399 146.4 43.5877C146.477 43.5355 146.581 43.4735 146.638 43.3999C146.793 43.2016 146.887 42.9338 146.95 42.6903C147.014 42.4358 146.939 42.0637 146.692 42.0109Z" fill="#EB996E"/>
<path d="M146.351 43.7055C146.369 43.7397 146.35 43.8058 146.253 43.8498C146.158 43.8933 145.993 43.8956 145.833 43.793C145.664 43.6852 145.558 43.484 145.511 43.2881C145.467 43.0956 145.444 42.8985 145.476 42.6585C145.523 42.1733 145.956 41.7629 146.329 41.7861C146.693 41.7954 146.81 42.0342 146.749 42.0835C146.696 42.1472 146.547 42.1246 146.395 42.2081C146.254 42.28 146.114 42.4585 146.074 42.7467C146.053 42.8875 146.054 43.0597 146.06 43.1948C146.066 43.3258 146.089 43.4139 146.114 43.4707C146.177 43.6075 146.305 43.6388 146.351 43.7055Z" fill="#263238"/>
<path d="M185.89 8.28739C187.309 8.28739 188.443 8.67694 189.292 9.45605C190.155 10.2352 190.586 11.2995 190.586 12.649C190.586 14.0542 190.141 15.1115 189.25 15.8211C188.36 16.5306 187.177 16.8854 185.703 16.8854L185.619 18.534H183.553L183.449 15.2576H184.137C185.487 15.2576 186.516 15.0768 187.226 14.715C187.949 14.3533 188.311 13.6646 188.311 12.649C188.311 11.9116 188.096 11.3343 187.664 10.9169C187.247 10.4995 186.663 10.2908 185.911 10.2908C185.16 10.2908 184.569 10.4925 184.137 10.896C183.706 11.2995 183.49 11.8629 183.49 12.5864H181.257C181.257 11.7516 181.445 11.0073 181.821 10.3534C182.197 9.69952 182.732 9.19171 183.428 8.82998C184.137 8.46826 184.958 8.28739 185.89 8.28739ZM184.555 23.1461C184.123 23.1461 183.762 23 183.47 22.7078C183.177 22.4157 183.031 22.0539 183.031 21.6226C183.031 21.1914 183.177 20.8296 183.47 20.5375C183.762 20.2453 184.123 20.0992 184.555 20.0992C184.972 20.0992 185.327 20.2453 185.619 20.5375C185.911 20.8296 186.057 21.1914 186.057 21.6226C186.057 22.0539 185.911 22.4157 185.619 22.7078C185.327 23 184.972 23.1461 184.555 23.1461Z" fill="#EF323A"/>
<path d="M89.0235 249.002H87.6555L83.5395 242.774V249.002H82.1715V240.65H83.5395L87.6555 246.866V240.65H89.0235V249.002ZM93.6879 249.11C93.0639 249.11 92.4999 248.97 91.9959 248.69C91.4919 248.402 91.0959 248.002 90.8079 247.49C90.5199 246.97 90.3759 246.37 90.3759 245.69C90.3759 245.018 90.5239 244.422 90.8199 243.902C91.1159 243.382 91.5199 242.982 92.0319 242.702C92.5439 242.422 93.1159 242.282 93.7479 242.282C94.3799 242.282 94.9519 242.422 95.4639 242.702C95.9759 242.982 96.3799 243.382 96.6759 243.902C96.9719 244.422 97.1199 245.018 97.1199 245.69C97.1199 246.362 96.9679 246.958 96.6639 247.478C96.3599 247.998 95.9439 248.402 95.4159 248.69C94.8959 248.97 94.3199 249.11 93.6879 249.11ZM93.6879 247.922C94.0399 247.922 94.3679 247.838 94.6719 247.67C94.9839 247.502 95.2359 247.25 95.4279 246.914C95.6199 246.578 95.7159 246.17 95.7159 245.69C95.7159 245.21 95.6239 244.806 95.4399 244.478C95.2559 244.142 95.0119 243.89 94.7079 243.722C94.4039 243.554 94.0759 243.47 93.7239 243.47C93.3719 243.47 93.0439 243.554 92.7399 243.722C92.4439 243.89 92.2079 244.142 92.0319 244.478C91.8559 244.806 91.7679 245.21 91.7679 245.69C91.7679 246.402 91.9479 246.954 92.3079 247.346C92.6759 247.73 93.1359 247.922 93.6879 247.922ZM103.989 249.11C103.469 249.11 103.001 249.018 102.585 248.834C102.177 248.642 101.853 248.386 101.613 248.066C101.373 247.738 101.245 247.374 101.229 246.974H102.645C102.669 247.254 102.801 247.49 103.041 247.682C103.289 247.866 103.597 247.958 103.965 247.958C104.349 247.958 104.645 247.886 104.853 247.742C105.069 247.59 105.177 247.398 105.177 247.166C105.177 246.918 105.057 246.734 104.817 246.614C104.585 246.494 104.213 246.362 103.701 246.218C103.205 246.082 102.801 245.95 102.489 245.822C102.177 245.694 101.905 245.498 101.673 245.234C101.449 244.97 101.337 244.622 101.337 244.19C101.337 243.838 101.441 243.518 101.649 243.23C101.857 242.934 102.153 242.702 102.537 242.534C102.929 242.366 103.377 242.282 103.881 242.282C104.633 242.282 105.237 242.474 105.693 242.858C106.157 243.234 106.405 243.75 106.437 244.406H105.069C105.045 244.11 104.925 243.874 104.709 243.698C104.493 243.522 104.201 243.434 103.833 243.434C103.473 243.434 103.197 243.502 103.005 243.638C102.813 243.774 102.717 243.954 102.717 244.178C102.717 244.354 102.781 244.502 102.909 244.622C103.037 244.742 103.193 244.838 103.377 244.91C103.561 244.974 103.833 245.058 104.193 245.162C104.673 245.29 105.065 245.422 105.369 245.558C105.681 245.686 105.949 245.878 106.173 246.134C106.397 246.39 106.513 246.73 106.521 247.154C106.521 247.53 106.417 247.866 106.209 248.162C106.001 248.458 105.705 248.69 105.321 248.858C104.945 249.026 104.501 249.11 103.989 249.11ZM107.544 245.666C107.544 245.002 107.68 244.414 107.952 243.902C108.232 243.39 108.608 242.994 109.08 242.714C109.56 242.426 110.088 242.282 110.664 242.282C111.184 242.282 111.636 242.386 112.02 242.594C112.412 242.794 112.724 243.046 112.956 243.35V242.39H114.336V249.002H112.956V248.018C112.724 248.33 112.408 248.59 112.008 248.798C111.608 249.006 111.152 249.11 110.64 249.11C110.072 249.11 109.552 248.966 109.08 248.678C108.608 248.382 108.232 247.974 107.952 247.454C107.68 246.926 107.544 246.33 107.544 245.666ZM112.956 245.69C112.956 245.234 112.86 244.838 112.668 244.502C112.484 244.166 112.24 243.91 111.936 243.734C111.632 243.558 111.304 243.47 110.952 243.47C110.6 243.47 110.272 243.558 109.968 243.734C109.664 243.902 109.416 244.154 109.224 244.49C109.04 244.818 108.948 245.21 108.948 245.666C108.948 246.122 109.04 246.522 109.224 246.866C109.416 247.21 109.664 247.474 109.968 247.658C110.28 247.834 110.608 247.922 110.952 247.922C111.304 247.922 111.632 247.834 111.936 247.658C112.24 247.482 112.484 247.226 112.668 246.89C112.86 246.546 112.956 246.146 112.956 245.69ZM118.688 247.778L120.56 242.39H122.012L119.492 249.002H117.86L115.352 242.39H116.816L118.688 247.778ZM123.742 241.514C123.494 241.514 123.286 241.43 123.118 241.262C122.95 241.094 122.866 240.886 122.866 240.638C122.866 240.39 122.95 240.182 123.118 240.014C123.286 239.846 123.494 239.762 123.742 239.762C123.982 239.762 124.186 239.846 124.354 240.014C124.522 240.182 124.606 240.39 124.606 240.638C124.606 240.886 124.522 241.094 124.354 241.262C124.186 241.43 123.982 241.514 123.742 241.514ZM124.414 242.39V249.002H123.046V242.39H124.414ZM129.547 242.282C130.067 242.282 130.531 242.39 130.939 242.606C131.355 242.822 131.679 243.142 131.911 243.566C132.143 243.99 132.259 244.502 132.259 245.102V249.002H130.903V245.306C130.903 244.714 130.755 244.262 130.459 243.95C130.163 243.63 129.759 243.47 129.247 243.47C128.735 243.47 128.327 243.63 128.023 243.95C127.727 244.262 127.579 244.714 127.579 245.306V249.002H126.211V242.39H127.579V243.146C127.803 242.874 128.087 242.662 128.431 242.51C128.783 242.358 129.155 242.282 129.547 242.282ZM136.668 242.282C137.18 242.282 137.632 242.386 138.024 242.594C138.424 242.794 138.736 243.046 138.96 243.35V242.39H140.34V249.11C140.34 249.718 140.212 250.258 139.956 250.73C139.7 251.21 139.328 251.586 138.84 251.858C138.36 252.13 137.784 252.266 137.112 252.266C136.216 252.266 135.472 252.054 134.88 251.63C134.288 251.214 133.952 250.646 133.872 249.926H135.228C135.332 250.27 135.552 250.546 135.888 250.754C136.232 250.97 136.64 251.078 137.112 251.078C137.664 251.078 138.108 250.91 138.444 250.574C138.788 250.238 138.96 249.75 138.96 249.11V248.006C138.728 248.318 138.412 248.582 138.012 248.798C137.62 249.006 137.172 249.11 136.668 249.11C136.092 249.11 135.564 248.966 135.084 248.678C134.612 248.382 134.236 247.974 133.956 247.454C133.684 246.926 133.548 246.33 133.548 245.666C133.548 245.002 133.684 244.414 133.956 243.902C134.236 243.39 134.612 242.994 135.084 242.714C135.564 242.426 136.092 242.282 136.668 242.282ZM138.96 245.69C138.96 245.234 138.864 244.838 138.672 244.502C138.488 244.166 138.244 243.91 137.94 243.734C137.636 243.558 137.308 243.47 136.956 243.47C136.604 243.47 136.276 243.558 135.972 243.734C135.668 243.902 135.42 244.154 135.228 244.49C135.044 244.818 134.952 245.21 134.952 245.666C134.952 246.122 135.044 246.522 135.228 246.866C135.42 247.21 135.668 247.474 135.972 247.658C136.284 247.834 136.612 247.922 136.956 247.922C137.308 247.922 137.636 247.834 137.94 247.658C138.244 247.482 138.488 247.226 138.672 246.89C138.864 246.546 138.96 246.146 138.96 245.69ZM146.622 243.35C146.822 243.014 147.086 242.754 147.414 242.57C147.75 242.378 148.146 242.282 148.602 242.282V243.698H148.254C147.718 243.698 147.31 243.834 147.03 244.106C146.758 244.378 146.622 244.85 146.622 245.522V249.002H145.254V242.39H146.622V243.35ZM155.919 245.534C155.919 245.782 155.903 246.006 155.871 246.206H150.819C150.859 246.734 151.055 247.158 151.407 247.478C151.759 247.798 152.191 247.958 152.703 247.958C153.439 247.958 153.959 247.65 154.263 247.034H155.739C155.539 247.642 155.175 248.142 154.647 248.534C154.127 248.918 153.479 249.11 152.703 249.11C152.071 249.11 151.503 248.97 150.999 248.69C150.503 248.402 150.111 248.002 149.823 247.49C149.543 246.97 149.403 246.37 149.403 245.69C149.403 245.01 149.539 244.414 149.811 243.902C150.091 243.382 150.479 242.982 150.975 242.702C151.479 242.422 152.055 242.282 152.703 242.282C153.327 242.282 153.883 242.418 154.371 242.69C154.859 242.962 155.239 243.346 155.511 243.842C155.783 244.33 155.919 244.894 155.919 245.534ZM154.491 245.102C154.483 244.598 154.303 244.194 153.951 243.89C153.599 243.586 153.163 243.434 152.643 243.434C152.171 243.434 151.767 243.586 151.431 243.89C151.095 244.186 150.895 244.59 150.831 245.102H154.491ZM156.809 245.69C156.809 245.01 156.945 244.414 157.217 243.902C157.497 243.382 157.881 242.982 158.369 242.702C158.857 242.422 159.417 242.282 160.049 242.282C160.849 242.282 161.509 242.474 162.029 242.858C162.557 243.234 162.913 243.774 163.097 244.478H161.621C161.501 244.15 161.309 243.894 161.045 243.71C160.781 243.526 160.449 243.434 160.049 243.434C159.489 243.434 159.041 243.634 158.705 244.034C158.377 244.426 158.213 244.978 158.213 245.69C158.213 246.402 158.377 246.958 158.705 247.358C159.041 247.758 159.489 247.958 160.049 247.958C160.841 247.958 161.365 247.61 161.621 246.914H163.097C162.905 247.586 162.545 248.122 162.017 248.522C161.489 248.914 160.833 249.11 160.049 249.11C159.417 249.11 158.857 248.97 158.369 248.69C157.881 248.402 157.497 248.002 157.217 247.49C156.945 246.97 156.809 246.37 156.809 245.69ZM167.329 249.11C166.705 249.11 166.141 248.97 165.637 248.69C165.133 248.402 164.737 248.002 164.449 247.49C164.161 246.97 164.017 246.37 164.017 245.69C164.017 245.018 164.165 244.422 164.461 243.902C164.757 243.382 165.161 242.982 165.673 242.702C166.185 242.422 166.757 242.282 167.389 242.282C168.021 242.282 168.593 242.422 169.105 242.702C169.617 242.982 170.021 243.382 170.317 243.902C170.613 244.422 170.761 245.018 170.761 245.69C170.761 246.362 170.609 246.958 170.305 247.478C170.001 247.998 169.585 248.402 169.057 248.69C168.537 248.97 167.961 249.11 167.329 249.11ZM167.329 247.922C167.681 247.922 168.009 247.838 168.313 247.67C168.625 247.502 168.877 247.25 169.069 246.914C169.261 246.578 169.357 246.17 169.357 245.69C169.357 245.21 169.265 244.806 169.081 244.478C168.897 244.142 168.653 243.89 168.349 243.722C168.045 243.554 167.717 243.47 167.365 243.47C167.013 243.47 166.685 243.554 166.381 243.722C166.085 243.89 165.849 244.142 165.673 244.478C165.497 244.806 165.409 245.21 165.409 245.69C165.409 246.402 165.589 246.954 165.949 247.346C166.317 247.73 166.777 247.922 167.329 247.922ZM173.481 243.35C173.681 243.014 173.945 242.754 174.273 242.57C174.609 242.378 175.005 242.282 175.461 242.282V243.698H175.113C174.577 243.698 174.169 243.834 173.889 244.106C173.617 244.378 173.481 244.85 173.481 245.522V249.002H172.113V242.39H173.481V243.35ZM176.262 245.666C176.262 245.002 176.398 244.414 176.67 243.902C176.95 243.39 177.326 242.994 177.798 242.714C178.278 242.426 178.81 242.282 179.394 242.282C179.826 242.282 180.25 242.378 180.666 242.57C181.09 242.754 181.426 243.002 181.674 243.314V240.122H183.054V249.002H181.674V248.006C181.45 248.326 181.138 248.59 180.738 248.798C180.346 249.006 179.894 249.11 179.382 249.11C178.806 249.11 178.278 248.966 177.798 248.678C177.326 248.382 176.95 247.974 176.67 247.454C176.398 246.926 176.262 246.33 176.262 245.666ZM181.674 245.69C181.674 245.234 181.578 244.838 181.386 244.502C181.202 244.166 180.958 243.91 180.654 243.734C180.35 243.558 180.022 243.47 179.67 243.47C179.318 243.47 178.99 243.558 178.686 243.734C178.382 243.902 178.134 244.154 177.942 244.49C177.758 244.818 177.666 245.21 177.666 245.666C177.666 246.122 177.758 246.522 177.942 246.866C178.134 247.21 178.382 247.474 178.686 247.658C178.998 247.834 179.326 247.922 179.67 247.922C180.022 247.922 180.35 247.834 180.654 247.658C180.958 247.482 181.202 247.226 181.386 246.89C181.578 246.546 181.674 246.146 181.674 245.69ZM187.251 249.11C186.731 249.11 186.263 249.018 185.847 248.834C185.439 248.642 185.115 248.386 184.875 248.066C184.635 247.738 184.507 247.374 184.491 246.974H185.907C185.931 247.254 186.063 247.49 186.303 247.682C186.551 247.866 186.859 247.958 187.227 247.958C187.611 247.958 187.907 247.886 188.115 247.742C188.331 247.59 188.439 247.398 188.439 247.166C188.439 246.918 188.319 246.734 188.079 246.614C187.847 246.494 187.475 246.362 186.963 246.218C186.467 246.082 186.063 245.95 185.751 245.822C185.439 245.694 185.167 245.498 184.935 245.234C184.711 244.97 184.599 244.622 184.599 244.19C184.599 243.838 184.703 243.518 184.911 243.23C185.119 242.934 185.415 242.702 185.799 242.534C186.191 242.366 186.639 242.282 187.143 242.282C187.895 242.282 188.499 242.474 188.955 242.858C189.419 243.234 189.667 243.75 189.699 244.406H188.331C188.307 244.11 188.187 243.874 187.971 243.698C187.755 243.522 187.463 243.434 187.095 243.434C186.735 243.434 186.459 243.502 186.267 243.638C186.075 243.774 185.979 243.954 185.979 244.178C185.979 244.354 186.043 244.502 186.171 244.622C186.299 244.742 186.455 244.838 186.639 244.91C186.823 244.974 187.095 245.058 187.455 245.162C187.935 245.29 188.327 245.422 188.631 245.558C188.943 245.686 189.211 245.878 189.435 246.134C189.659 246.39 189.775 246.73 189.783 247.154C189.783 247.53 189.679 247.866 189.471 248.162C189.263 248.458 188.967 248.69 188.583 248.858C188.207 249.026 187.763 249.11 187.251 249.11ZM197.151 243.506H195.927V249.002H194.547V243.506H193.767V242.39H194.547V241.922C194.547 241.162 194.747 240.61 195.147 240.266C195.555 239.914 196.191 239.738 197.055 239.738V240.878C196.639 240.878 196.347 240.958 196.179 241.118C196.011 241.27 195.927 241.538 195.927 241.922V242.39H197.151V243.506ZM201.231 249.11C200.607 249.11 200.043 248.97 199.539 248.69C199.035 248.402 198.639 248.002 198.351 247.49C198.063 246.97 197.919 246.37 197.919 245.69C197.919 245.018 198.067 244.422 198.363 243.902C198.659 243.382 199.063 242.982 199.575 242.702C200.087 242.422 200.659 242.282 201.291 242.282C201.923 242.282 202.495 242.422 203.007 242.702C203.519 242.982 203.923 243.382 204.219 243.902C204.515 244.422 204.663 245.018 204.663 245.69C204.663 246.362 204.511 246.958 204.207 247.478C203.903 247.998 203.487 248.402 202.959 248.69C202.439 248.97 201.863 249.11 201.231 249.11ZM201.231 247.922C201.583 247.922 201.911 247.838 202.215 247.67C202.527 247.502 202.779 247.25 202.971 246.914C203.163 246.578 203.259 246.17 203.259 245.69C203.259 245.21 203.167 244.806 202.983 244.478C202.799 244.142 202.555 243.89 202.251 243.722C201.947 243.554 201.619 243.47 201.267 243.47C200.915 243.47 200.587 243.554 200.283 243.722C199.987 243.89 199.751 244.142 199.575 244.478C199.399 244.806 199.311 245.21 199.311 245.69C199.311 246.402 199.491 246.954 199.851 247.346C200.219 247.73 200.679 247.922 201.231 247.922ZM212.003 242.39V249.002H210.635V248.222C210.419 248.494 210.135 248.71 209.783 248.87C209.439 249.022 209.071 249.098 208.679 249.098C208.159 249.098 207.691 248.99 207.275 248.774C206.867 248.558 206.543 248.238 206.303 247.814C206.071 247.39 205.955 246.878 205.955 246.278V242.39H207.311V246.074C207.311 246.666 207.459 247.122 207.755 247.442C208.051 247.754 208.455 247.91 208.967 247.91C209.479 247.91 209.883 247.754 210.179 247.442C210.483 247.122 210.635 246.666 210.635 246.074V242.39H212.003ZM217.144 242.282C217.664 242.282 218.128 242.39 218.536 242.606C218.952 242.822 219.276 243.142 219.508 243.566C219.74 243.99 219.856 244.502 219.856 245.102V249.002H218.5V245.306C218.5 244.714 218.352 244.262 218.056 243.95C217.76 243.63 217.356 243.47 216.844 243.47C216.332 243.47 215.924 243.63 215.62 243.95C215.324 244.262 215.176 244.714 215.176 245.306V249.002H213.808V242.39H215.176V243.146C215.4 242.874 215.684 242.662 216.028 242.51C216.38 242.358 216.752 242.282 217.144 242.282ZM221.145 245.666C221.145 245.002 221.281 244.414 221.553 243.902C221.833 243.39 222.209 242.994 222.681 242.714C223.161 242.426 223.693 242.282 224.277 242.282C224.709 242.282 225.133 242.378 225.549 242.57C225.973 242.754 226.309 243.002 226.557 243.314V240.122H227.937V249.002H226.557V248.006C226.333 248.326 226.021 248.59 225.621 248.798C225.229 249.006 224.777 249.11 224.265 249.11C223.689 249.11 223.161 248.966 222.681 248.678C222.209 248.382 221.833 247.974 221.553 247.454C221.281 246.926 221.145 246.33 221.145 245.666ZM226.557 245.69C226.557 245.234 226.461 244.838 226.269 244.502C226.085 244.166 225.841 243.91 225.537 243.734C225.233 243.558 224.905 243.47 224.553 243.47C224.201 243.47 223.873 243.558 223.569 243.734C223.265 243.902 223.017 244.154 222.825 244.49C222.641 244.818 222.549 245.21 222.549 245.666C222.549 246.122 222.641 246.522 222.825 246.866C223.017 247.21 223.265 247.474 223.569 247.658C223.881 247.834 224.209 247.922 224.553 247.922C224.905 247.922 225.233 247.834 225.537 247.658C225.841 247.482 226.085 247.226 226.269 246.89C226.461 246.546 226.557 246.146 226.557 245.69ZM230.286 249.086C230.038 249.086 229.83 249.002 229.662 248.834C229.494 248.666 229.41 248.458 229.41 248.21C229.41 247.962 229.494 247.754 229.662 247.586C229.83 247.418 230.038 247.334 230.286 247.334C230.526 247.334 230.73 247.418 230.898 247.586C231.066 247.754 231.15 247.962 231.15 248.21C231.15 248.458 231.066 248.666 230.898 248.834C230.73 249.002 230.526 249.086 230.286 249.086Z" fill="#0065B3"/>
</svg>
