<svg width="68" height="67" viewBox="0 0 68 67" fill="none" xmlns="http://www.w3.org/2000/svg">
<g clip-path="url(#clip0_1197_2991)">
<path d="M12.4718 38.189H1.91406C0.458117 38.189 -0.0449064 36.2524 1.22705 35.5439L10.1039 30.5991C11.1656 30.0078 12.4718 30.7753 12.4718 31.9905V38.189Z" fill="url(#paint0_linear_1197_2991)"/>
<path d="M12.4718 38.189H1.91406C0.458117 38.189 -0.0449064 36.2524 1.22705 35.5439L10.1039 30.5991C11.1656 30.0078 12.4718 30.7753 12.4718 31.9905V38.189Z" fill="url(#paint1_linear_1197_2991)"/>
<path d="M12.4718 38.189H1.91406C0.458117 38.189 -0.0449064 36.2524 1.22705 35.5439L10.1039 30.5991C11.1656 30.0078 12.4718 30.7753 12.4718 31.9905V38.189Z" fill="url(#paint2_linear_1197_2991)"/>
<path d="M60.0423 32.292V58.9706C60.0423 60.053 59.2973 60.9936 58.2438 61.242L35.2397 66.6687C34.8873 66.7514 34.5211 66.7514 34.1687 66.6687L11.1646 61.242C10.1111 60.9936 9.36609 60.053 9.36609 58.9706V32.292C9.36609 31.6411 9.63579 31.0428 10.0785 30.6138H59.3273V30.6113C59.7726 31.0403 60.0423 31.6398 60.0423 32.292Z" fill="url(#paint3_linear_1197_2991)"/>
<path d="M34.7043 50.2818V66.7301C34.8837 66.7301 35.063 66.7101 35.2398 66.6686L58.2438 61.2419C59.2973 60.9935 60.0423 60.0529 60.0423 58.9706V44.6143L37.2905 49.9808C36.44 50.1814 35.5721 50.2818 34.7043 50.2818Z" fill="url(#paint4_linear_1197_2991)"/>
<path d="M59.3274 30.6138H45.0865V64.3458L58.2437 61.242C59.2973 60.9936 60.0423 60.053 60.0423 58.9706V32.292C60.0423 31.6398 59.7726 31.0403 59.3274 30.6113V30.6138Z" fill="url(#paint5_linear_1197_2991)"/>
<path d="M34.7043 30.6143V66.7307C34.5248 66.7307 34.3456 66.7106 34.1688 66.6692L11.1647 61.2424C10.1112 60.994 9.36621 60.0534 9.36621 58.9711V32.2924C9.36621 31.6415 9.63591 31.0432 10.0786 30.6143H34.7043Z" fill="url(#paint6_linear_1197_2991)"/>
<path d="M34.7043 30.6143V49.2956V66.7307C34.5248 66.7307 34.3456 66.7106 34.1688 66.6692L11.1647 61.2424C10.1112 60.994 9.36621 60.0534 9.36621 58.9711V32.2924C9.36621 31.6415 9.63591 31.0432 10.0786 30.6143H34.7043Z" fill="url(#paint7_linear_1197_2991)"/>
<path d="M34.7043 50.2818V66.7301C34.5248 66.7301 34.3456 66.7101 34.1688 66.6686L11.1647 61.2419C10.1112 60.9935 9.36621 60.0529 9.36621 58.9706V44.6143L32.1181 49.9808C32.9684 50.1814 33.8364 50.2818 34.7043 50.2818Z" fill="url(#paint8_linear_1197_2991)"/>
<path d="M42.5734 45.9856L57.9084 61.3206L58.2438 61.2414C59.2973 60.9931 60.0423 60.0525 60.0423 58.9701V40.8584L42.5734 45.9856Z" fill="url(#paint9_linear_1197_2991)"/>
<path d="M12.1409 57.8964L22.2245 60.2751C22.5584 60.3539 22.8787 60.1006 22.8787 59.7573V54.2194C22.8787 53.9725 22.7089 53.7582 22.4688 53.7015L12.3852 51.323C12.0512 51.2443 11.7311 51.4976 11.7311 51.8409V57.3784C11.7311 57.6254 11.9007 57.8397 12.1409 57.8964Z" fill="url(#paint10_linear_1197_2991)"/>
<path d="M11.7311 53.4111V57.3788C11.7311 57.6256 11.9009 57.8399 12.141 57.8966L22.2246 60.2754C22.5586 60.3541 22.8787 60.1008 22.8787 59.7577V56.041L11.7311 53.4111Z" fill="url(#paint11_linear_1197_2991)"/>
<path d="M22.4688 53.702L17.348 52.4941V59.125L22.2245 60.2754C22.5585 60.3542 22.8785 60.1009 22.8785 59.7578V54.2198C22.8787 53.973 22.7091 53.7586 22.4688 53.702Z" fill="url(#paint12_linear_1197_2991)"/>
<path d="M38.7088 58.9299V58.9412C38.7088 59.2568 39.0032 59.49 39.3105 59.4175L46.5469 57.7106C46.7678 57.6585 46.9239 57.4613 46.9239 57.2343V57.223C46.9239 56.9074 46.6295 56.6742 46.3222 56.7467L39.0858 58.4536C38.8649 58.5057 38.7088 58.7029 38.7088 58.9299Z" fill="url(#paint13_linear_1197_2991)"/>
<path d="M39.3105 61.332L42.9176 60.4812C43.1385 60.4292 43.2946 60.232 43.2946 60.0049V59.9935C43.2946 59.6779 43.0002 59.4447 42.6929 59.5172L39.0858 60.368C38.8649 60.4201 38.7088 60.6173 38.7088 60.8444V60.8558C38.7088 61.1714 39.0032 61.4045 39.3105 61.332Z" fill="url(#paint14_linear_1197_2991)"/>
<path d="M66.4038 40.7684L46.3794 46.6438C44.6626 47.1474 42.8119 46.5564 41.705 45.1508L34.7043 36.2607L59.3274 30.6104L67.045 38.2196C67.8728 39.036 67.5192 40.4412 66.4038 40.7684Z" fill="url(#paint15_linear_1197_2991)"/>
<path d="M59.3275 30.6104L49.7719 32.8032V45.6484L66.4038 40.7684C67.5194 40.4412 67.8728 39.0359 67.045 38.2197L59.3275 30.6104Z" fill="url(#paint16_linear_1197_2991)"/>
<path d="M67.045 38.2197L62.4165 33.6562L38.2394 40.7501L41.705 45.1509C42.8119 46.5566 44.6625 47.1477 46.3794 46.6439L66.4038 40.7686C67.5192 40.4412 67.8728 39.036 67.045 38.2197Z" fill="url(#paint17_linear_1197_2991)"/>
<path d="M3.0048 40.7693L23.0292 46.6446C24.746 47.1483 26.5966 46.5572 27.7036 45.1516L34.7043 36.2616L10.0811 30.6113L2.36358 38.2205C1.53577 39.0368 1.88935 40.442 3.0048 40.7693Z" fill="url(#paint18_linear_1197_2991)"/>
<path d="M23.7103 33.7393L14.3828 44.1082L23.0292 46.6451C24.746 47.1488 26.5966 46.5577 27.7036 45.1522L34.7043 36.2621L23.7103 33.7393Z" fill="url(#paint19_linear_1197_2991)"/>
<path d="M2.36358 38.2207L6.99208 33.6572L31.1691 40.7511L27.7036 45.1519C26.5966 46.5576 24.746 47.1487 23.0292 46.6449L3.0048 40.7694C1.88935 40.4422 1.53577 39.037 2.36358 38.2207Z" fill="url(#paint20_linear_1197_2991)"/>
<path d="M59.3274 30.6133L36.0525 36.104C35.1658 36.3134 34.2427 36.3134 33.356 36.104L10.0811 30.6133C10.3758 30.3299 10.7446 30.1192 11.1635 30.0201L34.1687 24.5934C34.5211 24.5105 34.8873 24.5105 35.2397 24.5934L58.245 30.0201C58.664 30.1192 59.0326 30.3299 59.3274 30.6133Z" fill="url(#paint21_linear_1197_2991)"/>
<path d="M34.7043 24.5312C34.5246 24.5312 34.3449 24.5519 34.1688 24.5933L11.1636 30.02C10.7447 30.1191 10.3759 30.3298 10.0812 30.6132L33.3561 36.1039C33.7995 36.2086 34.2519 36.261 34.7044 36.261V24.5312H34.7043Z" fill="url(#paint22_linear_1197_2991)"/>
<path d="M34.704 24.5312V36.2615C34.2513 36.2615 33.7998 36.2091 33.3562 36.1045L23.0759 33.6796V27.2099L34.1688 24.5928C34.3455 24.5522 34.5248 24.5312 34.704 24.5312Z" fill="url(#paint23_linear_1197_2991)"/>
<path d="M59.3278 30.6136L36.0519 36.1045C35.6096 36.2091 35.1568 36.2615 34.704 36.2615V24.5312C34.8833 24.5312 35.0626 24.5522 35.2393 24.5928L58.2456 30.0195C58.6644 30.1189 59.0321 30.3296 59.3278 30.6136Z" fill="url(#paint24_linear_1197_2991)"/>
<path d="M58.2451 30.0206L39.9426 25.7031L32.4363 33.2094L35.4407 36.2138C35.6459 36.1878 35.8502 36.1524 36.0524 36.1046L59.3273 30.6139C59.0326 30.3303 58.664 30.1196 58.2451 30.0206Z" fill="url(#paint25_linear_1197_2991)"/>
<path d="M36 4C29.6635 4 24.5 9.1635 24.5 15.5C24.5 21.8365 29.6635 27 36 27C42.3365 27 47.5 21.8365 47.5 15.5C47.5 9.1635 42.3365 4 36 4ZM41.497 12.855L34.9765 19.3755C34.8155 19.5365 34.597 19.6285 34.367 19.6285C34.137 19.6285 33.9185 19.5365 33.7575 19.3755L30.503 16.121C30.1695 15.7875 30.1695 15.2355 30.503 14.902C30.8365 14.5685 31.3885 14.5685 31.722 14.902L34.367 17.547L40.278 11.636C40.6115 11.3025 41.1635 11.3025 41.497 11.636C41.8305 11.9695 41.8305 12.51 41.497 12.855Z" fill="white"/>
</g>
<defs>
<linearGradient id="paint0_linear_1197_2991" x1="5.92058" y1="33.2662" x2="9.41884" y2="40.0294" gradientUnits="userSpaceOnUse">
<stop stop-color="#FEA613"/>
<stop offset="1" stop-color="#C4573A"/>
</linearGradient>
<linearGradient id="paint1_linear_1197_2991" x1="4.30224" y1="32.166" x2="6.72759" y2="34.5914" gradientUnits="userSpaceOnUse">
<stop stop-color="#C4573A" stop-opacity="0"/>
<stop offset="0.235" stop-color="#BE5539" stop-opacity="0.235294"/>
<stop offset="0.539" stop-color="#AE4E35" stop-opacity="0.537255"/>
<stop offset="0.8794" stop-color="#934330" stop-opacity="0.878431"/>
<stop offset="1" stop-color="#883F2E"/>
</linearGradient>
<linearGradient id="paint2_linear_1197_2991" x1="6.48589" y1="36.1457" x2="6.48589" y2="38.2918" gradientUnits="userSpaceOnUse">
<stop stop-color="#C4573A" stop-opacity="0"/>
<stop offset="0.235" stop-color="#BE5539" stop-opacity="0.235294"/>
<stop offset="0.539" stop-color="#AE4E35" stop-opacity="0.537255"/>
<stop offset="0.8794" stop-color="#934330" stop-opacity="0.878431"/>
<stop offset="1" stop-color="#883F2E"/>
</linearGradient>
<linearGradient id="paint3_linear_1197_2991" x1="12.5506" y1="27.8787" x2="56.7172" y2="63.2835" gradientUnits="userSpaceOnUse">
<stop stop-color="#FEA613"/>
<stop offset="1" stop-color="#C4573A"/>
</linearGradient>
<linearGradient id="paint4_linear_1197_2991" x1="47.6897" y1="57.0392" x2="49.2445" y2="63.7557" gradientUnits="userSpaceOnUse">
<stop stop-color="#C4573A" stop-opacity="0"/>
<stop offset="0.235" stop-color="#BE5539" stop-opacity="0.235294"/>
<stop offset="0.539" stop-color="#AE4E35" stop-opacity="0.537255"/>
<stop offset="0.8794" stop-color="#934330" stop-opacity="0.878431"/>
<stop offset="1" stop-color="#883F2E"/>
</linearGradient>
<linearGradient id="paint5_linear_1197_2991" x1="56.3639" y1="47.4786" x2="59.7228" y2="47.4786" gradientUnits="userSpaceOnUse">
<stop stop-color="#C4573A" stop-opacity="0"/>
<stop offset="0.235" stop-color="#BE5539" stop-opacity="0.235294"/>
<stop offset="0.539" stop-color="#AE4E35" stop-opacity="0.537255"/>
<stop offset="0.8794" stop-color="#934330" stop-opacity="0.878431"/>
<stop offset="1" stop-color="#883F2E"/>
</linearGradient>
<linearGradient id="paint6_linear_1197_2991" x1="20.1252" y1="42.8424" x2="38.23" y2="65.2386" gradientUnits="userSpaceOnUse">
<stop stop-color="#C4573A" stop-opacity="0"/>
<stop offset="0.235" stop-color="#BE5539" stop-opacity="0.235294"/>
<stop offset="0.539" stop-color="#AE4E35" stop-opacity="0.537255"/>
<stop offset="0.8794" stop-color="#934330" stop-opacity="0.878431"/>
<stop offset="1" stop-color="#883F2E"/>
</linearGradient>
<linearGradient id="paint7_linear_1197_2991" x1="24.056" y1="55.2618" x2="21.0708" y2="39.9629" gradientUnits="userSpaceOnUse">
<stop stop-color="#C4573A" stop-opacity="0"/>
<stop offset="0.235" stop-color="#BE5539" stop-opacity="0.235294"/>
<stop offset="0.539" stop-color="#AE4E35" stop-opacity="0.537255"/>
<stop offset="0.8794" stop-color="#934330" stop-opacity="0.878431"/>
<stop offset="1" stop-color="#883F2E"/>
</linearGradient>
<linearGradient id="paint8_linear_1197_2991" x1="21.4847" y1="58.5168" x2="20.4118" y2="64.06" gradientUnits="userSpaceOnUse">
<stop stop-color="#C4573A" stop-opacity="0"/>
<stop offset="0.235" stop-color="#BE5539" stop-opacity="0.235294"/>
<stop offset="0.539" stop-color="#AE4E35" stop-opacity="0.537255"/>
<stop offset="0.8794" stop-color="#934330" stop-opacity="0.878431"/>
<stop offset="1" stop-color="#883F2E"/>
</linearGradient>
<linearGradient id="paint9_linear_1197_2991" x1="55.79" y1="60.5301" x2="51.3744" y2="43.6765" gradientUnits="userSpaceOnUse">
<stop stop-color="#C4573A" stop-opacity="0"/>
<stop offset="0.235" stop-color="#BE5539" stop-opacity="0.235294"/>
<stop offset="0.539" stop-color="#AE4E35" stop-opacity="0.537255"/>
<stop offset="0.8794" stop-color="#934330" stop-opacity="0.878431"/>
<stop offset="1" stop-color="#883F2E"/>
</linearGradient>
<linearGradient id="paint10_linear_1197_2991" x1="14.1007" y1="50.2806" x2="20.3226" y2="60.9962" gradientUnits="userSpaceOnUse">
<stop stop-color="#F5FBFF"/>
<stop offset="1" stop-color="#DBD5EF"/>
</linearGradient>
<linearGradient id="paint11_linear_1197_2991" x1="17.2407" y1="56.8949" x2="16.7654" y2="58.9689" gradientUnits="userSpaceOnUse">
<stop stop-color="#DBD5EF" stop-opacity="0"/>
<stop offset="0.2853" stop-color="#D9D2EE" stop-opacity="0.286275"/>
<stop offset="0.4739" stop-color="#D4C9E9" stop-opacity="0.47451"/>
<stop offset="0.6346" stop-color="#CBBAE2" stop-opacity="0.635294"/>
<stop offset="0.7795" stop-color="#BFA5D7" stop-opacity="0.780392"/>
<stop offset="0.9126" stop-color="#AF8ACA" stop-opacity="0.913725"/>
<stop offset="1" stop-color="#A274BF"/>
</linearGradient>
<linearGradient id="paint12_linear_1197_2991" x1="21.2801" y1="56.392" x2="22.8996" y2="56.392" gradientUnits="userSpaceOnUse">
<stop stop-color="#DBD5EF" stop-opacity="0"/>
<stop offset="0.2853" stop-color="#D9D2EE" stop-opacity="0.286275"/>
<stop offset="0.4739" stop-color="#D4C9E9" stop-opacity="0.47451"/>
<stop offset="0.6346" stop-color="#CBBAE2" stop-opacity="0.635294"/>
<stop offset="0.7795" stop-color="#BFA5D7" stop-opacity="0.780392"/>
<stop offset="0.9126" stop-color="#AF8ACA" stop-opacity="0.913725"/>
<stop offset="1" stop-color="#A274BF"/>
</linearGradient>
<linearGradient id="paint13_linear_1197_2991" x1="40.8749" y1="54.1637" x2="44.1531" y2="60.7796" gradientUnits="userSpaceOnUse">
<stop stop-color="#5A5A5A"/>
<stop offset="1" stop-color="#444444"/>
</linearGradient>
<linearGradient id="paint14_linear_1197_2991" x1="38.4862" y1="55.3478" x2="41.7644" y2="61.9637" gradientUnits="userSpaceOnUse">
<stop stop-color="#5A5A5A"/>
<stop offset="1" stop-color="#444444"/>
</linearGradient>
<linearGradient id="paint15_linear_1197_2991" x1="48.9974" y1="32.4148" x2="55.8073" y2="49.2996" gradientUnits="userSpaceOnUse">
<stop stop-color="#FEA613"/>
<stop offset="1" stop-color="#C4573A"/>
</linearGradient>
<linearGradient id="paint16_linear_1197_2991" x1="59.3899" y1="35.8345" x2="63.4323" y2="32.6627" gradientUnits="userSpaceOnUse">
<stop stop-color="#C4573A" stop-opacity="0"/>
<stop offset="0.235" stop-color="#BE5539" stop-opacity="0.235294"/>
<stop offset="0.539" stop-color="#AE4E35" stop-opacity="0.537255"/>
<stop offset="0.8794" stop-color="#934330" stop-opacity="0.878431"/>
<stop offset="1" stop-color="#883F2E"/>
</linearGradient>
<linearGradient id="paint17_linear_1197_2991" x1="53.5662" y1="41.8808" x2="54.81" y2="45.4256" gradientUnits="userSpaceOnUse">
<stop stop-color="#C4573A" stop-opacity="0"/>
<stop offset="0.235" stop-color="#BE5539" stop-opacity="0.235294"/>
<stop offset="0.539" stop-color="#AE4E35" stop-opacity="0.537255"/>
<stop offset="0.8794" stop-color="#934330" stop-opacity="0.878431"/>
<stop offset="1" stop-color="#883F2E"/>
</linearGradient>
<linearGradient id="paint18_linear_1197_2991" x1="16.1906" y1="32.631" x2="23.3424" y2="50.5419" gradientUnits="userSpaceOnUse">
<stop stop-color="#FEA613"/>
<stop offset="1" stop-color="#C4573A"/>
</linearGradient>
<linearGradient id="paint19_linear_1197_2991" x1="26.4973" y1="41.7916" x2="29.2959" y2="44.0926" gradientUnits="userSpaceOnUse">
<stop stop-color="#C4573A" stop-opacity="0"/>
<stop offset="0.235" stop-color="#BE5539" stop-opacity="0.235294"/>
<stop offset="0.539" stop-color="#AE4E35" stop-opacity="0.537255"/>
<stop offset="0.8794" stop-color="#934330" stop-opacity="0.878431"/>
<stop offset="1" stop-color="#883F2E"/>
</linearGradient>
<linearGradient id="paint20_linear_1197_2991" x1="15.8424" y1="41.8817" x2="14.5985" y2="45.4266" gradientUnits="userSpaceOnUse">
<stop stop-color="#C4573A" stop-opacity="0"/>
<stop offset="0.235" stop-color="#BE5539" stop-opacity="0.235294"/>
<stop offset="0.539" stop-color="#AE4E35" stop-opacity="0.537255"/>
<stop offset="0.8794" stop-color="#934330" stop-opacity="0.878431"/>
<stop offset="1" stop-color="#883F2E"/>
</linearGradient>
<linearGradient id="paint21_linear_1197_2991" x1="32.3056" y1="24.6015" x2="39.6752" y2="43.072" gradientUnits="userSpaceOnUse">
<stop stop-color="#FEA613"/>
<stop offset="1" stop-color="#C4573A"/>
</linearGradient>
<linearGradient id="paint22_linear_1197_2991" x1="23.4583" y1="26.7765" x2="22.1524" y2="34.9391" gradientUnits="userSpaceOnUse">
<stop stop-color="#C4573A" stop-opacity="0"/>
<stop offset="0.235" stop-color="#BE5539" stop-opacity="0.235294"/>
<stop offset="0.539" stop-color="#AE4E35" stop-opacity="0.537255"/>
<stop offset="0.8794" stop-color="#934330" stop-opacity="0.878431"/>
<stop offset="1" stop-color="#883F2E"/>
</linearGradient>
<linearGradient id="paint23_linear_1197_2991" x1="30.0194" y1="29.8536" x2="35.0568" y2="30.46" gradientUnits="userSpaceOnUse">
<stop stop-color="#C4573A" stop-opacity="0"/>
<stop offset="0.235" stop-color="#BE5539" stop-opacity="0.235294"/>
<stop offset="0.539" stop-color="#AE4E35" stop-opacity="0.537255"/>
<stop offset="0.8794" stop-color="#934330" stop-opacity="0.878431"/>
<stop offset="1" stop-color="#883F2E"/>
</linearGradient>
<linearGradient id="paint24_linear_1197_2991" x1="45.5798" y1="27.0589" x2="47.1655" y2="34.1019" gradientUnits="userSpaceOnUse">
<stop stop-color="#C4573A" stop-opacity="0"/>
<stop offset="0.235" stop-color="#BE5539" stop-opacity="0.235294"/>
<stop offset="0.539" stop-color="#AE4E35" stop-opacity="0.537255"/>
<stop offset="0.8794" stop-color="#934330" stop-opacity="0.878431"/>
<stop offset="1" stop-color="#883F2E"/>
</linearGradient>
<linearGradient id="paint25_linear_1197_2991" x1="44.273" y1="30.2193" x2="40.6658" y2="26.4257" gradientUnits="userSpaceOnUse">
<stop stop-color="#C4573A" stop-opacity="0"/>
<stop offset="0.235" stop-color="#BE5539" stop-opacity="0.235294"/>
<stop offset="0.539" stop-color="#AE4E35" stop-opacity="0.537255"/>
<stop offset="0.8794" stop-color="#934330" stop-opacity="0.878431"/>
<stop offset="1" stop-color="#883F2E"/>
</linearGradient>
<clipPath id="clip0_1197_2991">
<rect width="67" height="67" fill="white" transform="translate(0.5)"/>
</clipPath>
</defs>
</svg>
