<svg width="17" height="23" viewBox="0 0 17 23" fill="none" xmlns="http://www.w3.org/2000/svg">
<path d="M1.6 15.55C1.23333 14.9167 0.958333 14.2667 0.775 13.6C0.591667 12.9333 0.5 12.25 0.5 11.55C0.5 9.31667 1.275 7.41667 2.825 5.85C4.375 4.28333 6.26667 3.5 8.5 3.5H8.675L7.075 1.9L8.475 0.5L12.475 4.5L8.475 8.5L7.075 7.1L8.675 5.5H8.5C6.83333 5.5 5.41667 6.0875 4.25 7.2625C3.08333 8.4375 2.5 9.86667 2.5 11.55C2.5 11.9833 2.55 12.4083 2.65 12.825C2.75 13.2417 2.9 13.65 3.1 14.05L1.6 15.55ZM8.525 22.5L4.525 18.5L8.525 14.5L9.925 15.9L8.325 17.5H8.5C10.1667 17.5 11.5833 16.9125 12.75 15.7375C13.9167 14.5625 14.5 13.1333 14.5 11.45C14.5 11.0167 14.45 10.5917 14.35 10.175C14.25 9.75833 14.1 9.35 13.9 8.95L15.4 7.45C15.7667 8.08333 16.0417 8.73333 16.225 9.4C16.4083 10.0667 16.5 10.75 16.5 11.45C16.5 13.6833 15.725 15.5833 14.175 17.15C12.625 18.7167 10.7333 19.5 8.5 19.5H8.325L9.925 21.1L8.525 22.5Z" fill="#B3B3B3"/>
</svg>
