<svg width="15" height="18" viewBox="0 0 15 18" fill="none" xmlns="http://www.w3.org/2000/svg">
<path d="M8.19216 1H3.63574C2.7595 1.05926 1.00703 1.78222 1.00703 4.2C1.00703 6.61778 1.00703 10.7778 1.00703 13.8C0.948618 14.6889 1.18226 17 4.51197 17C7.45612 17 9.82776 17 10.6456 17C11.8723 17 13.8 16.5022 13.8 13.8C13.8 11.4132 13.8 8.21773 13.8 6.68889M8.19216 1L13.8 6.51111C13.8 6.66328 13.8 6.48686 13.8 6.68889M8.19216 1V4.91111C8.19216 5.8 8.75289 6.68889 10.2951 6.68889C11.8372 6.68889 13.2743 6.68889 13.8 6.68889M3.98621 10.2444H10.8208M3.98621 13.2667H10.8208" stroke="white" stroke-width="1.5"/>
</svg>
