<svg width="31" height="31" viewBox="0 0 31 31" fill="none" xmlns="http://www.w3.org/2000/svg">
<path d="M19.547 16.3575L21.7386 19.3943C22.0333 19.8026 21.9411 20.3726 21.5328 20.6673C19.325 22.2606 16.2816 21.988 14.3921 20.0277L13.0254 18.6098C11.5129 17.0407 10.2311 15.2646 9.2185 13.3347L8.3035 11.5909C7.03846 9.17995 7.73871 6.2057 9.94651 4.61241C10.3549 4.31771 10.9248 4.40985 11.2195 4.81821L13.4111 7.85502C13.7343 8.30286 13.6332 8.92791 13.1854 9.2511L12.0143 10.0962C11.8282 10.2305 11.749 10.4688 11.8175 10.6878C12.6102 13.2201 14.2028 15.427 16.3564 16.9772C16.5426 17.1113 16.7938 17.1112 16.9799 16.9769L18.1509 16.1318C18.5988 15.8086 19.2238 15.9096 19.547 16.3575Z" stroke="#004C9A" stroke-width="1.2"/>
</svg>
