<svg width="18" height="18" viewBox="0 0 18 18" fill="none" xmlns="http://www.w3.org/2000/svg">
<path d="M11.1922 1H6.63574C5.7595 1.05926 4.00703 1.78222 4.00703 4.2C4.00703 6.61778 4.00703 10.7778 4.00703 13.8C3.94862 14.6889 4.18226 17 7.51197 17C10.4561 17 12.8278 17 13.6456 17C14.8723 17 16.8 16.5022 16.8 13.8C16.8 11.4132 16.8 8.21773 16.8 6.68889M11.1922 1L16.8 6.51111C16.8 6.66328 16.8 6.48686 16.8 6.68889M11.1922 1V4.91111C11.1922 5.8 11.7529 6.68889 13.2951 6.68889C14.8372 6.68889 16.2743 6.68889 16.8 6.68889" stroke="white" stroke-width="1.5"/>
<path d="M1.5 14.5L9 9L10.5 11L3 16.5H1L1.5 14.5Z" fill="#BDD6E7" stroke="white" stroke-width="1.5"/>
<path d="M7 10L8.5 12" stroke="white" stroke-width="1.5"/>
</svg>
