<svg width="16" height="16" viewBox="0 0 16 16" fill="none" xmlns="http://www.w3.org/2000/svg">
<path d="M2.66675 6.66667L2.31319 7.02022L1.95964 6.66667L2.31319 6.31311L2.66675 6.66667ZM13.8334 12C13.8334 12.2761 13.6096 12.5 13.3334 12.5C13.0573 12.5 12.8334 12.2761 12.8334 12L13.8334 12ZM5.64653 10.3536L2.31319 7.02022L3.0203 6.31311L6.35363 9.64645L5.64653 10.3536ZM2.31319 6.31311L5.64653 2.97978L6.35363 3.68689L3.0203 7.02022L2.31319 6.31311ZM2.66675 6.16667L8.00008 6.16667L8.00008 7.16667L2.66675 7.16667L2.66675 6.16667ZM8.00008 6.16667C11.2217 6.16667 13.8334 8.77834 13.8334 12L12.8334 12C12.8334 9.33062 10.6695 7.16667 8.00008 7.16667L8.00008 6.16667Z" fill="#0065B3"/>
</svg>
