<svg width="18" height="18" viewBox="0 0 18 18" fill="none" xmlns="http://www.w3.org/2000/svg">
<path fill-rule="evenodd" clip-rule="evenodd" d="M6.69648 0.00351563C6.85825 0 7.05871 0.0316406 7.27676 0.0914062C7.46315 0.140625 7.80076 0.270703 8.03287 0.386719C8.26498 0.502734 8.54985 0.61875 8.6659 0.650391C8.78196 0.678516 8.94373 0.703125 9.02814 0.703125C9.10902 0.703125 9.30596 0.660937 9.46422 0.611719C9.626 0.5625 9.88272 0.453516 10.0375 0.369141C10.1922 0.284766 10.3927 0.193359 10.4841 0.161719C10.5791 0.130078 10.769 0.0808594 10.9061 0.0527344C11.0468 0.0246094 11.2332 0 11.3211 0C11.409 0 11.5673 0.0210937 11.6728 0.0457031C11.7853 0.0703125 11.9682 0.154688 12.1089 0.246094C12.2425 0.333984 12.4395 0.492188 12.545 0.597656C12.6505 0.703125 12.7947 0.878906 12.8685 0.984375C12.9388 1.08984 13.0725 1.32891 13.1604 1.51172C13.2518 1.69453 13.3995 1.94062 13.4945 2.05664C13.5859 2.17266 13.7266 2.30273 13.8005 2.34492C13.8778 2.39062 14.0255 2.45742 14.124 2.49609C14.226 2.53477 14.4651 2.59102 14.6515 2.62266C14.8414 2.6543 15.1052 2.72109 15.2424 2.77031C15.376 2.81953 15.5835 2.91445 15.6995 2.98125C15.8156 3.05156 16.0161 3.20977 16.1427 3.33633C16.3537 3.54727 16.3853 3.59648 16.4697 3.86719C16.5225 4.03242 16.5858 4.29961 16.6034 4.46484C16.635 4.69688 16.6315 4.84102 16.5928 5.11523C16.5647 5.30859 16.5436 5.68828 16.5436 6.45117L16.7018 6.70781C16.7898 6.84844 17.0008 7.12266 17.1766 7.3125C17.3489 7.50234 17.5459 7.74141 17.6057 7.84687C17.669 7.94883 17.7604 8.12813 17.8096 8.24414C17.8554 8.36016 17.9222 8.57461 17.9573 8.71875C18.0136 8.96484 18.0136 9 17.9609 9.24609C17.9327 9.39023 17.8659 9.61172 17.8132 9.73828C17.7639 9.86484 17.669 10.0512 17.6057 10.1531C17.5459 10.2586 17.37 10.4801 17.2153 10.6453C17.0641 10.8141 16.8953 11.0145 16.8425 11.0918C16.7898 11.1691 16.7054 11.3133 16.6561 11.4082C16.5928 11.5348 16.5612 11.6684 16.5436 11.8828C16.526 12.0902 16.5366 12.2941 16.5752 12.5508C16.6069 12.7547 16.6315 13.0535 16.6315 13.2188C16.6315 13.384 16.6069 13.6266 16.5788 13.7637C16.5506 13.8973 16.4838 14.1187 16.4275 14.2523C16.3537 14.4422 16.2869 14.5371 16.1216 14.6918C16.0055 14.8008 15.8156 14.9484 15.6995 15.0152C15.5835 15.0855 15.376 15.1805 15.2424 15.2297C15.1052 15.2789 14.8379 15.3457 14.6445 15.3809C14.4511 15.4125 14.2225 15.4652 14.1346 15.4934C14.0466 15.5215 13.9025 15.5848 13.8075 15.6305C13.702 15.6867 13.5824 15.7887 13.4734 15.9293C13.382 16.0453 13.2132 16.3266 13.0971 16.5516C12.981 16.7801 12.8017 17.0684 12.7032 17.1914C12.6012 17.318 12.4254 17.4937 12.3164 17.5816C12.2038 17.673 12.0561 17.7785 11.9893 17.8207C11.9225 17.8594 11.7783 17.9191 11.6728 17.9473C11.5673 17.9754 11.3914 18 11.2859 18C11.1804 18 10.9413 17.9613 10.7584 17.9156C10.5474 17.8664 10.2661 17.7574 9.98471 17.6203C9.74205 17.5008 9.45015 17.3777 9.3341 17.3496C9.21804 17.3215 9.05979 17.2969 8.98242 17.2969C8.90505 17.2969 8.72921 17.3285 8.59557 17.3707C8.45841 17.4094 8.16651 17.5289 7.94495 17.6309C7.72339 17.7363 7.38578 17.8594 7.19587 17.9086C6.98838 17.9648 6.75978 18 6.60856 18C6.43624 18 6.31315 17.9789 6.19358 17.9262C6.10214 17.884 5.94036 17.7926 5.83486 17.7188C5.72935 17.6449 5.54296 17.4832 5.42691 17.3602C5.30734 17.2406 5.16315 17.0684 5.10688 16.9805C5.04709 16.8926 4.93455 16.6887 4.85718 16.5234C4.77981 16.3582 4.63914 16.1227 4.54419 15.9996C4.45275 15.8766 4.32614 15.7395 4.26987 15.6973C4.21009 15.6516 4.06238 15.5777 3.93578 15.5285C3.80917 15.4793 3.55596 15.4125 3.37308 15.3809C3.19021 15.3492 2.9581 15.3 2.86314 15.2684C2.76467 15.2402 2.5607 15.1488 2.40596 15.068C2.21605 14.9695 2.04372 14.843 1.87492 14.6777C1.64281 14.4492 1.61819 14.4105 1.53027 14.1328C1.47752 13.9676 1.41421 13.7004 1.39663 13.5352C1.36498 13.3031 1.36849 13.159 1.40718 12.8848C1.43531 12.6914 1.45642 12.3117 1.45642 11.5488L1.29112 11.2852C1.2032 11.141 0.988677 10.8703 0.816353 10.6805C0.647546 10.4941 0.45412 10.2586 0.394334 10.1531C0.331032 10.0512 0.239594 9.87187 0.190359 9.75586C0.14464 9.63984 0.0778203 9.42539 0.0426521 9.28125C-0.0136171 9.03516 -0.0136171 9 0.0391353 8.75391C0.0672699 8.60977 0.13409 8.38828 0.186842 8.26172C0.236077 8.13516 0.331032 7.94883 0.394334 7.84687C0.45412 7.74141 0.647546 7.50234 0.823387 7.3125C0.995711 7.12266 1.21024 6.84844 1.45642 6.45117V5.95898C1.45642 5.68828 1.43531 5.30859 1.40718 5.11523C1.36498 4.8375 1.36498 4.70039 1.39311 4.46484C1.41421 4.29961 1.47752 4.03242 1.53027 3.86719C1.61819 3.59297 1.64281 3.55078 1.87492 3.32227C2.05779 3.13945 2.20902 3.03047 2.44113 2.91445C2.61697 2.82656 2.87721 2.72812 3.0214 2.69648C3.16559 2.66484 3.41177 2.61562 3.56651 2.58398C3.73532 2.55234 3.95336 2.47852 4.11162 2.40117C4.33669 2.28516 4.40351 2.23242 4.55825 2.02148C4.66024 1.88437 4.82201 1.61719 4.91697 1.42383C5.01192 1.23047 5.16315 0.970313 5.2581 0.847266C5.35306 0.724219 5.50076 0.558984 5.58868 0.485156C5.6766 0.407813 5.83486 0.288281 5.94036 0.217969C6.04587 0.147656 6.20413 0.0738281 6.29205 0.0492187C6.37997 0.0246094 6.55933 0.00351563 6.69648 0.00351563ZM5.52538 5.27695C5.44449 5.3332 5.33195 5.4457 5.27568 5.53008C5.21942 5.61094 5.14556 5.76562 5.11391 5.87109C5.06468 6.01523 5.05764 6.1207 5.07171 6.28594C5.08578 6.40547 5.12798 6.5707 5.16666 6.65508C5.20535 6.73594 5.28272 6.85898 5.33547 6.92578C5.39174 6.99258 5.53945 7.10508 5.66254 7.17188C5.87003 7.28438 5.91223 7.29492 6.18654 7.29492C6.46437 7.29492 6.50306 7.28437 6.71407 7.16836C6.86646 7.08398 6.98603 6.98438 7.07278 6.86953C7.14663 6.77461 7.23104 6.60938 7.26269 6.50391C7.30489 6.36328 7.31544 6.25078 7.29786 6.09258C7.28731 5.96953 7.24159 5.79727 7.19939 5.70586C7.15367 5.61094 7.0552 5.47383 6.97783 5.39648C6.90046 5.31914 6.75627 5.21719 6.66131 5.17148C6.54526 5.11523 6.40458 5.08359 6.23929 5.07305C6.07049 5.06602 5.94388 5.08008 5.83486 5.11875C5.74694 5.15039 5.60978 5.2207 5.52538 5.27695ZM8.57095 8.63789C6.10566 11.1059 5.65902 11.5664 5.64143 11.6719C5.62737 11.7387 5.62737 11.8582 5.64143 11.9355C5.65785 12.0293 5.70943 12.1184 5.79617 12.2027C5.87003 12.2766 5.97553 12.3434 6.04587 12.3574C6.11269 12.3715 6.23226 12.3715 6.30963 12.3574C6.43975 12.3363 6.68241 12.1043 9.37982 9.41133C11.5954 7.19648 12.3164 6.4582 12.3445 6.36328C12.3691 6.29648 12.3762 6.17695 12.3656 6.09961C12.3515 6.02227 12.3128 5.92031 12.2777 5.87109C12.239 5.82188 12.1722 5.75508 12.1265 5.71992C12.0807 5.68477 11.9647 5.64609 11.8662 5.63906C11.7572 5.62852 11.6517 5.64258 11.5849 5.67422C11.5251 5.70234 10.1711 7.03477 8.57095 8.63789ZM11.1558 10.902C11.0714 10.9582 10.9589 11.0707 10.9026 11.1551C10.8463 11.2359 10.7725 11.3906 10.7408 11.4961C10.6951 11.6332 10.681 11.7527 10.6951 11.9004C10.7057 12.0164 10.7514 12.1922 10.7971 12.2871C10.8428 12.3855 10.9448 12.5262 11.0222 12.6035C11.0995 12.6809 11.2437 12.7863 11.3387 12.832C11.4829 12.9023 11.5673 12.9199 11.8135 12.9164C12.0632 12.9164 12.1405 12.9023 12.2882 12.825C12.3867 12.7758 12.5098 12.6949 12.5696 12.6492C12.6258 12.6 12.7313 12.4594 12.7982 12.3363C12.9107 12.1289 12.9177 12.0867 12.9213 11.8125C12.9213 11.5664 12.9037 11.482 12.8333 11.3379C12.7876 11.243 12.6821 11.0988 12.6047 11.0215C12.5274 10.9441 12.3867 10.8422 12.2882 10.7965C12.1722 10.7402 12.0315 10.7086 11.8662 10.698C11.6974 10.691 11.5708 10.7051 11.4618 10.7438C11.3739 10.7754 11.2367 10.8457 11.1558 10.902Z" fill="#12B76A"/>
</svg>
