<svg width="41" height="43" viewBox="0 0 41 43" fill="none" xmlns="http://www.w3.org/2000/svg">
<g clip-path="url(#clip0_1790_3604)">
<path d="M20.5002 15.8154C24.4807 15.8154 27.7073 12.5888 27.7073 8.6084C27.7073 4.62795 24.4807 1.32129 20.5002 1.32129C16.5198 1.32129 13.2932 4.62795 13.2932 8.6084C13.2932 12.5888 16.5198 15.8154 20.5002 15.8154ZM19.2991 6.20605C19.2991 5.54228 19.8365 5.00488 20.5002 5.00488C21.164 5.00488 21.7014 5.54228 21.7014 6.20605V7.40723H22.9026C23.5664 7.40723 24.1038 7.94463 24.1038 8.6084C24.1038 9.27217 23.5664 9.80957 22.9026 9.80957H20.5002C19.8365 9.80957 19.2991 9.27217 19.2991 8.6084V6.20605Z" fill="black"/>
<path d="M39.7988 15.8151C39.1351 15.8151 38.5977 16.3525 38.5977 17.0163C38.5977 18.0679 38.1341 19.0223 37.3815 19.6929C35.8881 16.2536 33.0282 13.4784 29.4428 12.0567C28.8763 13.5194 27.9529 14.7966 26.7971 15.8151H27.707C28.3708 15.8151 28.9082 16.3525 28.9082 17.0163C28.9082 17.68 28.3708 18.2174 27.707 18.2174H13.293C12.6292 18.2174 12.0918 17.68 12.0918 17.0163C12.0918 16.3525 12.6292 15.8151 13.293 15.8151H14.2045C13.0437 14.7922 12.1171 13.5082 11.5513 12.0373C11.5388 12.0427 11.525 12.0445 11.5125 12.0499C7.85829 10.1505 3.30322 10.8133 0.351906 13.7647C0.0972824 14.0193 -0.0294037 14.3746 0.0059433 14.7325C0.0412903 15.0903 0.235855 15.4141 0.534897 15.6133L4.36238 18.1646C3.48746 19.6638 2.89032 21.312 2.6016 23.0221H1.20117C0.537399 23.0221 0 23.5595 0 24.2233V31.4303C0 32.0941 0.537399 32.6315 1.20117 32.6315H4.33079C5.59296 34.8086 7.51233 36.728 9.68945 37.9902V41.1198C9.68945 41.7835 10.2269 42.3209 10.8906 42.3209H15.6953C16.0144 42.3209 16.3194 42.1943 16.5446 41.969L18.595 39.9186H22.405L24.4554 41.969C24.6806 42.1943 24.9856 42.3209 25.3047 42.3209H30.1094C30.7731 42.3209 31.3105 41.7835 31.3105 41.1198V37.9902C35.7752 35.4155 38.5977 30.6173 38.5977 25.4245C38.5977 24.2793 38.4262 23.177 38.1732 22.1044C39.9149 21.0205 41 19.1218 41 17.0163C41 16.3525 40.4626 15.8151 39.7988 15.8151ZM10.8906 25.4245C10.2272 25.4245 9.68945 24.8868 9.68945 24.2233C9.68945 23.5598 10.2272 23.0221 10.8906 23.0221C11.5541 23.0221 12.0918 23.5598 12.0918 24.2233C12.0918 24.8868 11.5541 25.4245 10.8906 25.4245Z" fill="#4D93CA"/>
<circle cx="20.6001" cy="8.76758" r="7.44727" fill="#F4767C"/>
</g>
<path d="M22.833 5.81304V6.72188H24.0408V7.82204H22.7613C22.6337 8.5794 22.3188 9.12949 21.8166 9.47229C21.3223 9.8151 20.5729 9.9865 19.5684 9.9865V10.6203C19.5684 10.995 19.6441 11.29 19.7956 11.5052C19.9551 11.7205 20.2221 11.8281 20.5968 11.8281C20.9556 11.8281 21.2147 11.7284 21.3741 11.5291C21.5336 11.3218 21.6133 11.0229 21.6133 10.6323H23.1679C23.1519 11.4374 22.9247 12.0553 22.4862 12.4858C22.0478 12.9083 21.4219 13.1196 20.6088 13.1196C19.7637 13.1196 19.118 12.8924 18.6715 12.438C18.2251 11.9835 18.0019 11.3218 18.0019 10.4529V8.86242C18.8549 8.86242 19.4847 8.84249 19.8913 8.80263C20.2979 8.75479 20.6008 8.65913 20.8001 8.51563C20.9994 8.37213 21.131 8.14093 21.1947 7.82204H17.6192V6.72188H21.2545V5.81304H17.6192V4.64113H24.0408V5.81304H22.833Z" fill="white"/>
<defs>
<clipPath id="clip0_1790_3604">
<rect width="41" height="41" fill="white" transform="translate(0 1.32129)"/>
</clipPath>
</defs>
</svg>
