<svg width="18" height="18" viewBox="0 0 18 18" fill="none" xmlns="http://www.w3.org/2000/svg">
<path d="M9.00008 16.0832C12.9121 16.0832 16.0834 12.9119 16.0834 8.99984C16.0834 5.08782 12.9121 1.9165 9.00008 1.9165C5.08806 1.9165 1.91675 5.08782 1.91675 8.99984C1.91675 12.9119 5.08806 16.0832 9.00008 16.0832Z" stroke="#0065B3" stroke-linecap="round" stroke-linejoin="round"/>
<path d="M9 12.5415H9.00708" stroke="#0065B3" stroke-width="2" stroke-linecap="round" stroke-linejoin="round"/>
<path d="M6.93872 6.87492C7.10525 6.40151 7.43395 6.00232 7.86661 5.74805C8.29926 5.49378 8.80794 5.40083 9.30255 5.48567C9.79717 5.57051 10.2458 5.82766 10.569 6.21158C10.8922 6.5955 11.0691 7.08141 11.0683 7.58325C11.0683 8.99992 8.9433 9.70825 8.9433 9.70825" stroke="#0065B3" stroke-linecap="round" stroke-linejoin="round"/>
</svg>
