<svg width="20" height="17" viewBox="0 0 20 17" fill="none" xmlns="http://www.w3.org/2000/svg">
<path d="M14.4941 1.02202C14.467 0.551053 14.0761 0.182129 13.6044 0.182129H2.24914C1.77739 0.182129 1.38656 0.551053 1.35941 1.02202L0.501439 15.8937C0.472883 16.3949 0.873073 16.818 1.3746 16.818H14.479C14.9612 16.818 15.3535 16.4257 15.3535 15.9435C15.3535 15.9042 15.0192 10.1245 14.4941 1.02202ZM11.4916 3.77085V6.07808C11.4916 8.04067 9.92446 9.66917 7.96194 9.68822C5.98023 9.70742 4.36194 8.10094 4.36194 6.12356V3.77085C4.36194 3.72692 4.33594 3.68737 4.29584 3.6694C3.95915 3.51852 3.73237 3.16482 3.77236 2.7646C3.81366 2.35137 4.14426 2.01639 4.55696 1.9703C5.09384 1.91033 5.55022 2.33076 5.55022 2.8558C5.55022 3.21785 5.33313 3.53 5.02236 3.66932C4.98218 3.68733 4.95608 3.72684 4.95608 3.77088V6.08569C4.95608 7.72121 6.26203 9.07826 7.89748 9.09412C9.54893 9.11012 10.8975 7.77137 10.8975 6.12356V3.77085C10.8975 3.72692 10.8715 3.68737 10.8314 3.6694C10.4947 3.51852 10.2679 3.16482 10.3079 2.7646C10.3492 2.35137 10.6798 2.01639 11.0925 1.9703C11.6294 1.91033 12.0858 2.33076 12.0858 2.8558C12.0858 3.21785 11.8687 3.53 11.5579 3.66932C11.5177 3.68729 11.4916 3.7268 11.4916 3.77085Z" fill="white"/>
<path d="M4.65901 3.15273C4.82308 3.15273 4.95608 3.01973 4.95608 2.85566C4.95608 2.6916 4.82308 2.55859 4.65901 2.55859C4.49494 2.55859 4.36194 2.6916 4.36194 2.85566C4.36194 3.01973 4.49494 3.15273 4.65901 3.15273Z" fill="white"/>
<path d="M11.1945 3.15273C11.3586 3.15273 11.4916 3.01973 11.4916 2.85566C11.4916 2.6916 11.3586 2.55859 11.1945 2.55859C11.0305 2.55859 10.8975 2.6916 10.8975 2.85566C10.8975 3.01973 11.0305 3.15273 11.1945 3.15273Z" fill="white"/>
<path d="M17.4221 14.5732L16.5272 0.286549C16.5235 0.227841 16.4748 0.182129 16.416 0.182129H14.9975C14.9128 0.182129 14.8585 0.273107 14.9 0.346928C15.0073 0.538019 15.0739 0.755511 15.0873 0.987931C15.7864 13.1074 15.9269 15.4247 15.9444 15.9274C15.9466 15.9923 16.0251 16.0232 16.0711 15.9772L17.3897 14.659C17.4123 14.6364 17.4241 14.6051 17.4221 14.5732Z" fill="white"/>
<path d="M16.2611 16.6278C16.1909 16.698 16.2407 16.818 16.3399 16.818H18.638C18.8691 16.818 19.0795 16.7278 19.236 16.5807C19.2837 16.5359 19.2805 16.4588 19.2307 16.4162L17.824 15.2104C17.7798 15.1725 17.7139 15.1751 17.6727 15.2162L16.2611 16.6278Z" fill="white"/>
<path d="M19.3774 15.7594C19.4271 15.802 19.5036 15.7641 19.4999 15.6987L18.6532 1.02209C18.6258 0.551238 18.2351 0.182129 17.7635 0.182129H17.2345C17.1702 0.182129 17.1193 0.236344 17.1233 0.300511L18.0157 14.5479C18.0176 14.5779 18.0315 14.6059 18.0544 14.6255L19.3774 15.7594Z" fill="white"/>
</svg>
