<svg width="17" height="17" viewBox="0 0 17 17" fill="none" xmlns="http://www.w3.org/2000/svg">
<path d="M15.9561 7.36351C15.8897 5.42678 15.1234 3.61573 13.7778 2.23857C12.3674 0.794833 10.4929 0 8.5 0C4.47485 0 1.18594 3.27893 1.04417 7.36351C0.42992 7.64288 0 8.27209 0 9.00339V11.0181C0 12.0074 0.786379 12.8125 1.75329 12.8125C2.37893 12.8125 2.88773 12.2918 2.88773 11.6515V8.36975C2.88773 7.76856 2.43721 7.27834 1.86443 7.22008C2.07587 3.6615 4.97037 0.832286 8.5 0.832286C10.2761 0.832286 11.9461 1.54084 13.2031 2.82728C14.3573 4.00857 15.0328 5.5483 15.1345 7.22036C14.5623 7.27917 14.1125 7.76911 14.1125 8.36975V11.6512C14.1125 12.2574 14.5701 12.7506 15.1497 12.8019V13.6312C15.1497 14.565 14.4072 15.3246 13.4948 15.3246H12.2693C12.2091 15.1487 12.1147 14.9861 11.9825 14.8513C11.7507 14.613 11.4417 14.4818 11.1126 14.4818H9.8494C9.66805 14.4818 9.49402 14.5212 9.33463 14.5972C8.89983 14.8017 8.619 15.2505 8.619 15.7408C8.619 16.0775 8.74722 16.3938 8.97953 16.6305C9.21183 16.8688 9.52086 17 9.8494 17H11.1126C11.6363 17 12.0979 16.6535 12.2701 16.1569H13.4948C14.8558 16.1569 15.9629 15.0239 15.9629 13.6312V12.6538C16.5733 12.3728 17 11.7458 17 11.0175V9.00284C17 8.27209 16.5701 7.64288 15.9561 7.36351ZM2.07424 8.36975V11.6512C2.07424 11.8323 1.9303 11.9799 1.75302 11.9799C1.23473 11.9799 0.812944 11.5482 0.812944 11.0178V9.00312C0.812944 8.4724 1.23473 8.04099 1.75302 8.04099C1.9303 8.04099 2.07424 8.18859 2.07424 8.36975ZM11.5206 15.8301C11.4802 16.0259 11.3083 16.1683 11.1123 16.1683H9.84912C9.73798 16.1683 9.63362 16.1239 9.55393 16.0423C9.47532 15.9621 9.43194 15.8551 9.43194 15.7413C9.43194 15.5751 9.52709 15.4234 9.67618 15.3532C9.72931 15.3277 9.78759 15.3146 9.84912 15.3146H11.1123C11.2235 15.3146 11.3278 15.3587 11.4072 15.4403C11.4859 15.5205 11.5292 15.6276 11.5292 15.7413C11.5295 15.7718 11.5262 15.8023 11.5206 15.8301ZM16.1868 11.0178C16.1868 11.5482 15.765 11.9799 15.2467 11.9799C15.0697 11.9799 14.9255 11.8326 14.9255 11.6512V8.36975C14.9255 8.18859 15.0694 8.04099 15.2467 8.04099C15.765 8.04099 16.1868 8.47267 16.1868 9.00312V11.0178Z" fill="#003280"/>
<path d="M11.1328 11.1607C12.0829 11.1607 12.8558 10.3694 12.8558 9.39733V5.80435C12.8558 5.33439 12.6763 4.89161 12.3505 4.55814C12.0246 4.22467 11.5923 4.04102 11.1328 4.04102H5.86698C4.91687 4.04102 4.14404 4.83196 4.14404 5.80435V9.39733C4.14404 10.3697 4.91687 11.1607 5.86698 11.1607H5.89923V12.0917C5.89923 12.4468 6.10606 12.762 6.42593 12.8949C6.5292 12.9373 6.63655 12.9584 6.74281 12.9584C6.96427 12.9584 7.18005 12.8685 7.33808 12.7012L8.85148 11.1607H11.1328ZM8.39743 10.4493L6.75962 12.1164C6.7523 12.1242 6.74687 12.13 6.73142 12.1231C6.71272 12.1153 6.71272 12.1028 6.71272 12.0917V10.7445C6.71272 10.5148 6.53083 10.3284 6.30611 10.3284H5.86725C5.36549 10.3284 4.95753 9.91058 4.95753 9.39733V5.80435C4.95753 5.29083 5.36549 4.8733 5.86725 4.8733H11.1331C11.3754 4.8733 11.6034 4.9704 11.7758 5.14657C11.9482 5.32301 12.0428 5.55661 12.0428 5.80435V9.39733C12.0428 9.91085 11.6346 10.3284 11.1331 10.3284H8.68423C8.57661 10.3284 8.4736 10.3719 8.39743 10.4493Z" fill="#003280"/>
<path d="M6.52469 7.05371C6.19398 7.05371 5.9248 7.32947 5.9248 7.66766C5.9248 8.00585 6.19425 8.28161 6.52469 8.28161C6.85567 8.28161 7.12511 8.00585 7.12511 7.66766C7.12511 7.32947 6.85594 7.05371 6.52469 7.05371Z" fill="#003280"/>
<path d="M8.49978 7.05371C8.16908 7.05371 7.8999 7.32947 7.8999 7.66766C7.8999 8.00585 8.16935 8.28161 8.49978 8.28161C8.83103 8.28161 9.10021 8.00585 9.10021 7.66766C9.10021 7.32947 8.83103 7.05371 8.49978 7.05371Z" fill="#003280"/>
<path d="M10.4749 7.05371C10.1442 7.05371 9.875 7.32947 9.875 7.66766C9.875 8.00585 10.1444 8.28161 10.4749 8.28161C10.8059 8.28161 11.0753 8.00585 11.0753 7.66766C11.0753 7.32947 10.8059 7.05371 10.4749 7.05371Z" fill="#003280"/>
</svg>
