<svg width="220" height="186" viewBox="0 0 220 186" fill="none" xmlns="http://www.w3.org/2000/svg">
<path d="M102.513 26.4533C131.178 29.2948 143.758 7.27076 172.167 10.1545C197.518 12.7266 215.003 28.735 209.085 50.2943C203.829 69.4346 178.805 75.4397 169.908 93.3706C160.474 112.384 153.162 132.871 124.676 139.489C68.7469 152.482 41.5779 91.4903 37.7698 56.4578C36.3097 43.011 33.7591 10.8622 53.5682 6.70036C73.5025 2.50681 84.9505 24.7104 102.513 26.4533Z" fill="#4D93CA"/>
<path opacity="0.9" d="M102.513 26.4533C131.178 29.2948 143.758 7.27076 172.167 10.1545C197.518 12.7266 215.003 28.735 209.085 50.2943C203.829 69.4346 178.805 75.4397 169.908 93.3706C160.474 112.384 153.162 132.871 124.676 139.489C68.7469 152.482 41.5779 91.4903 37.7698 56.4578C36.3097 43.011 33.7591 10.8622 53.5682 6.70036C73.5025 2.50681 84.9505 24.7104 102.513 26.4533Z" fill="white"/>
<path d="M110 159.052C157.116 159.052 195.312 157.167 195.312 154.841C195.312 152.516 157.116 150.63 110 150.63C62.8837 150.63 24.6884 152.516 24.6884 154.841C24.6884 157.167 62.8837 159.052 110 159.052Z" fill="#F5F5F5"/>
<path d="M31.3362 59.2369L30.662 59.2812L31.5599 70.6686L32.2341 70.6242L31.3362 59.2369Z" fill="#4D93CA"/>
<path d="M32.6921 76.503L32.0179 76.5474L32.3559 80.8338L33.0301 80.7894L32.6921 76.503Z" fill="#4D93CA"/>
<path d="M189.226 128.888H44.4702C42.8589 128.861 41.3154 128.291 40.1372 127.286C38.959 126.282 38.2296 124.914 38.0895 123.448L30.9788 33.2182C30.9127 32.5224 31.0069 31.8215 31.2552 31.1609C31.5036 30.5003 31.9007 29.8946 32.4209 29.3827C32.9412 28.8708 33.573 28.4641 34.2758 28.1889C34.9785 27.9136 35.7366 27.7759 36.5011 27.7846H181.257C182.867 27.8109 184.41 28.3805 185.588 29.3837C186.766 30.3868 187.496 31.7527 187.637 33.2182L194.748 123.448C194.814 124.144 194.72 124.845 194.472 125.506C194.223 126.167 193.826 126.773 193.306 127.285C192.786 127.798 192.154 128.205 191.452 128.481C190.749 128.757 189.991 128.895 189.226 128.888Z" fill="#4D93CA"/>
<path d="M189.78 128.888H45.0245C43.4132 128.861 41.8696 128.291 40.6914 127.286C39.5132 126.282 38.7838 124.914 38.6438 123.448L31.5331 33.2182C31.467 32.5224 31.5611 31.8215 31.8095 31.1609C32.0579 30.5003 32.455 29.8946 32.9752 29.3827C33.4954 28.8708 34.1273 28.4641 34.83 28.1889C35.5328 27.9136 36.2908 27.7759 37.0554 27.7846H181.811C183.421 27.8109 184.964 28.3805 186.142 29.3837C187.32 30.3868 188.05 31.7527 188.192 33.2182L195.302 123.448C195.369 124.144 195.276 124.846 195.028 125.507C194.78 126.168 194.383 126.775 193.863 127.287C193.343 127.8 192.71 128.207 192.007 128.483C191.304 128.758 190.545 128.896 189.78 128.888Z" fill="#4D93CA"/>
<path opacity="0.5" d="M189.78 128.888H45.0245C43.4132 128.861 41.8696 128.291 40.6914 127.286C39.5132 126.282 38.7838 124.914 38.6438 123.448L31.5331 33.2182C31.467 32.5224 31.5611 31.8215 31.8095 31.1609C32.0579 30.5003 32.455 29.8946 32.9752 29.3827C33.4954 28.8708 34.1273 28.4641 34.83 28.1889C35.5328 27.9136 36.2908 27.7759 37.0554 27.7846H181.811C183.421 27.8109 184.964 28.3805 186.142 29.3837C187.32 30.3868 188.05 31.7527 188.192 33.2182L195.302 123.448C195.369 124.144 195.276 124.846 195.028 125.507C194.78 126.168 194.383 126.775 193.863 127.287C193.343 127.8 192.71 128.207 192.007 128.483C191.304 128.758 190.545 128.896 189.78 128.888Z" fill="white"/>
<path d="M182.027 30.5015H37.2717H36.785C33.0877 30.7793 33.8447 35.9228 37.5758 35.9228H182.575C186.313 35.9228 186.258 30.7793 182.514 30.5015H182.027Z" fill="#4D93CA"/>
<path d="M41.0433 33.2179C41.0575 33.3771 41.035 33.5373 40.9773 33.688C40.9196 33.8388 40.8279 33.9768 40.7081 34.0932C40.5884 34.2095 40.4432 34.3017 40.2821 34.3636C40.121 34.4256 39.9474 34.456 39.7726 34.4529C39.4052 34.4481 39.0528 34.3194 38.7832 34.0913C38.5136 33.8633 38.346 33.5522 38.3126 33.2179C38.2985 33.0593 38.3208 32.8997 38.3781 32.7494C38.4354 32.599 38.5265 32.4613 38.6455 32.3451C38.7645 32.2288 38.9088 32.1365 39.0692 32.0742C39.2295 32.0118 39.4023 31.9808 39.5766 31.983C39.9451 31.9862 40.2992 32.1143 40.5702 32.3425C40.8412 32.5707 41.0098 32.8827 41.0433 33.2179Z" fill="#FAFAFA"/>
<path d="M45.687 33.2179C45.7012 33.3771 45.6787 33.5373 45.621 33.688C45.5632 33.8388 45.4715 33.9768 45.3518 34.0932C45.2321 34.2095 45.0869 34.3017 44.9258 34.3636C44.7646 34.4256 44.5911 34.456 44.4163 34.4529C44.0489 34.4481 43.6964 34.3194 43.4269 34.0913C43.1573 33.8633 42.9896 33.5522 42.9563 33.2179C42.9421 33.0593 42.9644 32.8997 43.0218 32.7494C43.0791 32.599 43.1702 32.4613 43.2892 32.3451C43.4082 32.2288 43.5525 32.1365 43.7129 32.0742C43.8732 32.0118 44.046 31.9808 44.2203 31.983C44.5888 31.9862 44.9429 32.1143 45.2139 32.3425C45.4849 32.5707 45.6535 32.8827 45.687 33.2179Z" fill="#FAFAFA"/>
<path d="M50.3237 33.2181C50.3379 33.3767 50.3156 33.5363 50.2582 33.6866C50.2009 33.837 50.1098 33.9747 49.9908 34.091C49.8718 34.2072 49.7275 34.2995 49.5672 34.3618C49.4068 34.4242 49.234 34.4552 49.0598 34.453C48.6919 34.4496 48.3387 34.3213 48.0688 34.093C47.7989 33.8647 47.6317 33.5528 47.5998 33.2181C47.5845 33.0592 47.6061 32.8992 47.6631 32.7484C47.72 32.5977 47.8111 32.4596 47.9303 32.3431C48.0495 32.2266 48.1942 32.1344 48.3551 32.0723C48.5159 32.0103 48.6892 31.9799 48.8637 31.9831C49.2311 31.9879 49.5836 32.1166 49.8532 32.3447C50.1227 32.5727 50.2904 32.8838 50.3237 33.2181Z" fill="#FAFAFA"/>
<path d="M185.941 119.884H47.4781C46.8932 119.876 46.3327 119.669 45.9056 119.303C45.4784 118.938 45.215 118.441 45.1664 117.909L39.3197 43.7084C39.2937 43.4538 39.3272 43.197 39.4182 42.9552C39.5091 42.7133 39.6553 42.4919 39.8471 42.3056C40.0389 42.1193 40.2718 41.9724 40.5305 41.8747C40.7892 41.7769 41.0677 41.7306 41.3475 41.7387H179.844C180.428 41.7461 180.989 41.9518 181.416 42.3159C181.843 42.68 182.107 43.1764 182.156 43.7084L188.009 117.909C188.034 118.167 187.999 118.426 187.905 118.671C187.812 118.915 187.662 119.138 187.466 119.326C187.27 119.513 187.033 119.659 186.77 119.756C186.507 119.852 186.224 119.896 185.941 119.884Z" fill="white"/>
<path d="M127.595 91.6176L125.338 63.0169L118.511 59.2627H99.7134L102.268 91.6176H127.595Z" fill="white"/>
<path d="M127.595 91.9143H102.268C102.185 91.916 102.103 91.8881 102.042 91.8363C101.98 91.7845 101.942 91.7129 101.937 91.6364L99.389 59.2815C99.3858 59.2409 99.3919 59.2001 99.4071 59.1618C99.4222 59.1235 99.446 59.0886 99.4769 59.0592C99.5067 59.0288 99.5431 59.0042 99.5839 58.9872C99.6246 58.9702 99.6687 58.9611 99.7135 58.9604H118.511C118.57 58.9623 118.628 58.9771 118.68 59.0037L125.507 62.7578C125.553 62.7819 125.591 62.8158 125.62 62.8567C125.648 62.8976 125.665 62.9442 125.669 62.9925L127.913 91.5932C127.918 91.6349 127.912 91.6769 127.897 91.7164C127.882 91.7559 127.857 91.7919 127.825 91.8217C127.796 91.8506 127.76 91.8737 127.721 91.8896C127.681 91.9056 127.638 91.9139 127.595 91.9143ZM102.586 91.2968H127.237L125.02 63.1715L118.45 59.5594H100.065L102.586 91.2968Z" fill="#4D93CA"/>
<path d="M125.338 63.0169L118.511 59.2627L121.019 64.2394L125.338 63.0169Z" fill="#EBEBEB"/>
<path d="M121.018 64.5361C120.956 64.5358 120.895 64.5194 120.842 64.4888C120.79 64.4582 120.748 64.4147 120.721 64.3632L118.213 59.3865C118.184 59.328 118.176 59.2627 118.189 59.1996C118.202 59.1365 118.237 59.0788 118.288 59.0345C118.341 58.9926 118.408 58.9671 118.478 58.9616C118.549 58.9561 118.619 58.9708 118.68 59.0036L125.507 62.7578C125.562 62.788 125.606 62.8319 125.635 62.8844C125.664 62.9369 125.675 62.9958 125.669 63.0542C125.66 63.111 125.634 63.1644 125.593 63.2082C125.552 63.2519 125.499 63.2842 125.439 63.3012L121.113 64.5361H121.018ZM119.254 60.0163L121.194 63.8754L124.574 62.9307L119.254 60.0163Z" fill="#4D93CA"/>
<path d="M110.339 73.8347C110.349 74.0025 110.322 74.1704 110.258 74.3281C110.195 74.4859 110.097 74.6302 109.97 74.7521C109.844 74.8741 109.691 74.9712 109.522 75.0374C109.353 75.1037 109.171 75.1378 108.987 75.1375C108.601 75.1312 108.232 74.9946 107.95 74.754C107.667 74.5134 107.493 74.1859 107.46 73.8347C107.442 73.6651 107.464 73.4941 107.525 73.3331C107.586 73.172 107.683 73.0246 107.811 72.9008C107.939 72.7769 108.095 72.6794 108.267 72.6147C108.439 72.55 108.625 72.5196 108.811 72.5256C109.198 72.5335 109.568 72.6714 109.849 72.913C110.131 73.1546 110.306 73.4828 110.339 73.8347Z" fill="#4D93CA"/>
<path d="M119.599 73.8344C119.615 74.0035 119.592 74.1738 119.531 74.3341C119.47 74.4944 119.372 74.641 119.245 74.7642C119.117 74.8873 118.962 74.9843 118.79 75.0486C118.618 75.113 118.433 75.1432 118.247 75.1372C117.861 75.1311 117.49 74.9947 117.207 74.7542C116.924 74.5137 116.748 74.1862 116.713 73.8344C116.702 73.6661 116.729 73.4975 116.792 73.339C116.855 73.1806 116.952 73.0355 117.079 72.9129C117.206 72.7902 117.358 72.6926 117.528 72.626C117.697 72.5593 117.88 72.5251 118.065 72.5254C118.453 72.5303 118.825 72.6671 119.109 72.9092C119.392 73.1512 119.567 73.481 119.599 73.8344Z" fill="#4D93CA"/>
<path d="M122.222 82.3187C122.139 82.3174 122.061 82.2882 122.001 82.2369C121.941 82.1855 121.904 82.1156 121.897 82.0408C121.728 79.9353 118.119 78.2249 113.854 78.2249C111.022 78.2249 108.48 78.9967 107.223 80.2317C106.965 80.4592 106.762 80.7344 106.629 81.0388C106.497 81.3433 106.436 81.6701 106.452 81.9976C106.455 82.0381 106.45 82.0788 106.436 82.1174C106.422 82.1559 106.399 82.1916 106.37 82.2222C106.311 82.2842 106.228 82.3222 106.138 82.3279C106.048 82.3337 105.96 82.3066 105.892 82.2528C105.824 82.1989 105.783 82.1227 105.776 82.0408C105.756 81.6315 105.83 81.2228 105.993 80.8411C106.156 80.4594 106.405 80.113 106.723 79.8241C108.075 78.4719 110.826 77.626 113.833 77.626C118.518 77.626 122.337 79.5463 122.526 81.9976C122.529 82.0365 122.523 82.0756 122.509 82.1125C122.495 82.1494 122.474 82.1835 122.445 82.2128C122.417 82.242 122.383 82.2659 122.344 82.283C122.306 82.3001 122.264 82.3101 122.222 82.3125V82.3187Z" fill="#4D93CA"/>
<path d="M105.046 71.192C104.964 71.1905 104.885 71.162 104.823 71.1117C104.762 71.0551 104.727 70.9785 104.727 70.8987C104.727 70.8189 104.762 70.7423 104.823 70.6857L106.263 69.2717C106.325 69.2174 106.407 69.187 106.493 69.187C106.579 69.187 106.661 69.2174 106.723 69.2717C106.753 69.2992 106.777 69.332 106.793 69.368C106.81 69.404 106.818 69.4426 106.818 69.4816C106.818 69.5206 106.81 69.5593 106.793 69.5953C106.777 69.6313 106.753 69.664 106.723 69.6916L105.283 71.1056C105.252 71.1338 105.215 71.156 105.174 71.1709C105.134 71.1857 105.09 71.1929 105.046 71.192Z" fill="#4D93CA"/>
<path d="M121.546 71.192C121.464 71.1885 121.385 71.1603 121.323 71.1117L119.667 69.6978C119.635 69.6701 119.611 69.637 119.594 69.6004C119.577 69.5638 119.568 69.5245 119.568 69.4847C119.568 69.445 119.577 69.4056 119.594 69.369C119.611 69.3324 119.635 69.2993 119.667 69.2717C119.728 69.2174 119.811 69.187 119.897 69.187C119.982 69.187 120.065 69.2174 120.126 69.2717L121.782 70.6857C121.813 70.7132 121.837 70.7459 121.853 70.782C121.869 70.818 121.878 70.8566 121.878 70.8956C121.878 70.9346 121.869 70.9733 121.853 71.0093C121.837 71.0453 121.813 71.078 121.782 71.1056C121.718 71.1604 121.634 71.1912 121.546 71.192Z" fill="#4D93CA"/>
<path d="M71.992 110H70.312L66.508 104.252V110H64.828V101.612H66.508L70.312 107.372V101.612H71.992V110ZM76.6042 110.108C75.9642 110.108 75.3882 109.968 74.8762 109.688C74.3642 109.4 73.9602 108.996 73.6642 108.476C73.3762 107.956 73.2322 107.356 73.2322 106.676C73.2322 105.996 73.3802 105.396 73.6762 104.876C73.9802 104.356 74.3922 103.956 74.9122 103.676C75.4322 103.388 76.0122 103.244 76.6522 103.244C77.2922 103.244 77.8722 103.388 78.3922 103.676C78.9122 103.956 79.3202 104.356 79.6162 104.876C79.9202 105.396 80.0722 105.996 80.0722 106.676C80.0722 107.356 79.9162 107.956 79.6042 108.476C79.3002 108.996 78.8842 109.4 78.3562 109.688C77.8362 109.968 77.2522 110.108 76.6042 110.108ZM76.6042 108.644C76.9082 108.644 77.1922 108.572 77.4562 108.428C77.7282 108.276 77.9442 108.052 78.1042 107.756C78.2642 107.46 78.3442 107.1 78.3442 106.676C78.3442 106.044 78.1762 105.56 77.8402 105.224C77.5122 104.88 77.1082 104.708 76.6282 104.708C76.1482 104.708 75.7442 104.88 75.4162 105.224C75.0962 105.56 74.9362 106.044 74.9362 106.676C74.9362 107.308 75.0922 107.796 75.4042 108.14C75.7242 108.476 76.1242 108.644 76.6042 108.644ZM85.8439 104.384C86.0599 104.032 86.3399 103.756 86.6839 103.556C87.0359 103.356 87.4359 103.256 87.8839 103.256V105.02H87.4399C86.9119 105.02 86.5119 105.144 86.2399 105.392C85.9759 105.64 85.8439 106.072 85.8439 106.688V110H84.1639V103.352H85.8439V104.384ZM95.1955 106.532C95.1955 106.772 95.1795 106.988 95.1475 107.18H90.2875C90.3275 107.66 90.4955 108.036 90.7915 108.308C91.0875 108.58 91.4515 108.716 91.8835 108.716C92.5075 108.716 92.9515 108.448 93.2155 107.912H95.0275C94.8355 108.552 94.4675 109.08 93.9235 109.496C93.3795 109.904 92.7115 110.108 91.9195 110.108C91.2795 110.108 90.7035 109.968 90.1915 109.688C89.6875 109.4 89.2915 108.996 89.0035 108.476C88.7235 107.956 88.5835 107.356 88.5835 106.676C88.5835 105.988 88.7235 105.384 89.0035 104.864C89.2835 104.344 89.6755 103.944 90.1795 103.664C90.6835 103.384 91.2635 103.244 91.9195 103.244C92.5515 103.244 93.1155 103.38 93.6115 103.652C94.1155 103.924 94.5035 104.312 94.7755 104.816C95.0555 105.312 95.1955 105.884 95.1955 106.532ZM93.4555 106.052C93.4475 105.62 93.2915 105.276 92.9875 105.02C92.6835 104.756 92.3115 104.624 91.8715 104.624C91.4555 104.624 91.1035 104.752 90.8155 105.008C90.5355 105.256 90.3635 105.604 90.2995 106.052H93.4555ZM98.9658 110.108C98.4218 110.108 97.9338 110.012 97.5018 109.82C97.0698 109.62 96.7258 109.352 96.4698 109.016C96.2218 108.68 96.0858 108.308 96.0618 107.9H97.7538C97.7858 108.156 97.9098 108.368 98.1258 108.536C98.3498 108.704 98.6258 108.788 98.9538 108.788C99.2738 108.788 99.5218 108.724 99.6978 108.596C99.8818 108.468 99.9738 108.304 99.9738 108.104C99.9738 107.888 99.8618 107.728 99.6378 107.624C99.4218 107.512 99.0738 107.392 98.5938 107.264C98.0978 107.144 97.6898 107.02 97.3698 106.892C97.0578 106.764 96.7858 106.568 96.5538 106.304C96.3298 106.04 96.2178 105.684 96.2178 105.236C96.2178 104.868 96.3218 104.532 96.5298 104.228C96.7458 103.924 97.0498 103.684 97.4418 103.508C97.8418 103.332 98.3098 103.244 98.8458 103.244C99.6378 103.244 100.27 103.444 100.742 103.844C101.214 104.236 101.474 104.768 101.522 105.44H99.9138C99.8898 105.176 99.7778 104.968 99.5778 104.816C99.3858 104.656 99.1258 104.576 98.7978 104.576C98.4938 104.576 98.2578 104.632 98.0898 104.744C97.9298 104.856 97.8498 105.012 97.8498 105.212C97.8498 105.436 97.9618 105.608 98.1858 105.728C98.4098 105.84 98.7578 105.956 99.2298 106.076C99.7098 106.196 100.106 106.32 100.418 106.448C100.73 106.576 100.998 106.776 101.222 107.048C101.454 107.312 101.574 107.664 101.582 108.104C101.582 108.488 101.474 108.832 101.258 109.136C101.05 109.44 100.746 109.68 100.346 109.856C99.9538 110.024 99.4938 110.108 98.9658 110.108ZM109.237 103.352V110H107.545V109.16C107.329 109.448 107.045 109.676 106.693 109.844C106.349 110.004 105.973 110.084 105.565 110.084C105.045 110.084 104.585 109.976 104.185 109.76C103.785 109.536 103.469 109.212 103.237 108.788C103.013 108.356 102.901 107.844 102.901 107.252V103.352H104.581V107.012C104.581 107.54 104.713 107.948 104.977 108.236C105.241 108.516 105.601 108.656 106.057 108.656C106.521 108.656 106.885 108.516 107.149 108.236C107.413 107.948 107.545 107.54 107.545 107.012V103.352H109.237ZM112.574 101.12V110H110.894V101.12H112.574ZM116.19 104.732V107.948C116.19 108.172 116.242 108.336 116.346 108.44C116.458 108.536 116.642 108.584 116.898 108.584H117.678V110H116.622C115.206 110 114.498 109.312 114.498 107.936V104.732H113.706V103.352H114.498V101.708H116.19V103.352H117.678V104.732H116.19ZM121.431 110.108C120.887 110.108 120.399 110.012 119.967 109.82C119.535 109.62 119.191 109.352 118.935 109.016C118.687 108.68 118.551 108.308 118.527 107.9H120.219C120.251 108.156 120.375 108.368 120.591 108.536C120.815 108.704 121.091 108.788 121.419 108.788C121.739 108.788 121.987 108.724 122.163 108.596C122.347 108.468 122.439 108.304 122.439 108.104C122.439 107.888 122.327 107.728 122.103 107.624C121.887 107.512 121.539 107.392 121.059 107.264C120.563 107.144 120.155 107.02 119.835 106.892C119.523 106.764 119.251 106.568 119.019 106.304C118.795 106.04 118.683 105.684 118.683 105.236C118.683 104.868 118.787 104.532 118.995 104.228C119.211 103.924 119.515 103.684 119.907 103.508C120.307 103.332 120.775 103.244 121.311 103.244C122.103 103.244 122.735 103.444 123.207 103.844C123.679 104.236 123.939 104.768 123.987 105.44H122.379C122.355 105.176 122.243 104.968 122.043 104.816C121.851 104.656 121.591 104.576 121.263 104.576C120.959 104.576 120.723 104.632 120.555 104.744C120.395 104.856 120.315 105.012 120.315 105.212C120.315 105.436 120.427 105.608 120.651 105.728C120.875 105.84 121.223 105.956 121.695 106.076C122.175 106.196 122.571 106.32 122.883 106.448C123.195 106.576 123.463 106.776 123.687 107.048C123.919 107.312 124.039 107.664 124.047 108.104C124.047 108.488 123.939 108.832 123.723 109.136C123.515 109.44 123.211 109.68 122.811 109.856C122.419 110.024 121.959 110.108 121.431 110.108ZM131.333 104.732H130.169V110H128.465V104.732H127.709V103.352H128.465V103.016C128.465 102.2 128.697 101.6 129.161 101.216C129.625 100.832 130.325 100.652 131.261 100.676V102.092C130.853 102.084 130.569 102.152 130.409 102.296C130.249 102.44 130.169 102.7 130.169 103.076V103.352H131.333V104.732ZM135.374 110.108C134.734 110.108 134.158 109.968 133.646 109.688C133.134 109.4 132.73 108.996 132.434 108.476C132.146 107.956 132.002 107.356 132.002 106.676C132.002 105.996 132.15 105.396 132.446 104.876C132.75 104.356 133.162 103.956 133.682 103.676C134.202 103.388 134.782 103.244 135.422 103.244C136.062 103.244 136.642 103.388 137.162 103.676C137.682 103.956 138.09 104.356 138.386 104.876C138.69 105.396 138.842 105.996 138.842 106.676C138.842 107.356 138.686 107.956 138.374 108.476C138.07 108.996 137.654 109.4 137.126 109.688C136.606 109.968 136.022 110.108 135.374 110.108ZM135.374 108.644C135.678 108.644 135.962 108.572 136.226 108.428C136.498 108.276 136.714 108.052 136.874 107.756C137.034 107.46 137.114 107.1 137.114 106.676C137.114 106.044 136.946 105.56 136.61 105.224C136.282 104.88 135.878 104.708 135.398 104.708C134.918 104.708 134.514 104.88 134.186 105.224C133.866 105.56 133.706 106.044 133.706 106.676C133.706 107.308 133.862 107.796 134.174 108.14C134.494 108.476 134.894 108.644 135.374 108.644ZM146.35 103.352V110H144.658V109.16C144.442 109.448 144.158 109.676 143.806 109.844C143.462 110.004 143.086 110.084 142.678 110.084C142.158 110.084 141.698 109.976 141.298 109.76C140.898 109.536 140.582 109.212 140.35 108.788C140.126 108.356 140.014 107.844 140.014 107.252V103.352H141.694V107.012C141.694 107.54 141.826 107.948 142.09 108.236C142.354 108.516 142.714 108.656 143.17 108.656C143.634 108.656 143.998 108.516 144.262 108.236C144.526 107.948 144.658 107.54 144.658 107.012V103.352H146.35ZM151.692 103.256C152.484 103.256 153.124 103.508 153.612 104.012C154.1 104.508 154.344 105.204 154.344 106.1V110H152.664V106.328C152.664 105.8 152.532 105.396 152.268 105.116C152.004 104.828 151.644 104.684 151.188 104.684C150.724 104.684 150.356 104.828 150.084 105.116C149.82 105.396 149.688 105.8 149.688 106.328V110H148.008V103.352H149.688V104.18C149.912 103.892 150.196 103.668 150.54 103.508C150.892 103.34 151.276 103.256 151.692 103.256ZM155.509 106.652C155.509 105.98 155.641 105.384 155.905 104.864C156.177 104.344 156.545 103.944 157.009 103.664C157.473 103.384 157.989 103.244 158.557 103.244C158.989 103.244 159.401 103.34 159.793 103.532C160.185 103.716 160.497 103.964 160.729 104.276V101.12H162.433V110H160.729V109.016C160.521 109.344 160.229 109.608 159.853 109.808C159.477 110.008 159.041 110.108 158.545 110.108C157.985 110.108 157.473 109.964 157.009 109.676C156.545 109.388 156.177 108.984 155.905 108.464C155.641 107.936 155.509 107.332 155.509 106.652ZM160.741 106.676C160.741 106.268 160.661 105.92 160.501 105.632C160.341 105.336 160.125 105.112 159.853 104.96C159.581 104.8 159.289 104.72 158.977 104.72C158.665 104.72 158.377 104.796 158.113 104.948C157.849 105.1 157.633 105.324 157.465 105.62C157.305 105.908 157.225 106.252 157.225 106.652C157.225 107.052 157.305 107.404 157.465 107.708C157.633 108.004 157.849 108.232 158.113 108.392C158.385 108.552 158.673 108.632 158.977 108.632C159.289 108.632 159.581 108.556 159.853 108.404C160.125 108.244 160.341 108.02 160.501 107.732C160.661 107.436 160.741 107.084 160.741 106.676Z" fill="#0065B3"/>
</svg>
