<svg width="21" height="21" viewBox="0 0 21 21" fill="none" xmlns="http://www.w3.org/2000/svg">
<path fill-rule="evenodd" clip-rule="evenodd" d="M7.81256 0.00410156C8.0013 0 8.23517 0.0369141 8.48955 0.106641C8.70701 0.164062 9.10089 0.31582 9.37169 0.451172C9.64248 0.586523 9.97482 0.721875 10.1102 0.758789C10.2456 0.791602 10.4344 0.820312 10.5328 0.820312C10.6272 0.820312 10.857 0.771094 11.0416 0.713672C11.2303 0.65625 11.5298 0.529102 11.7104 0.430664C11.8909 0.332227 12.1248 0.225586 12.2315 0.188672C12.3422 0.151758 12.5638 0.0943359 12.7238 0.0615234C12.8879 0.0287109 13.1054 0 13.208 0C13.3105 0 13.4952 0.0246094 13.6183 0.0533203C13.7495 0.0820312 13.9629 0.180469 14.127 0.287109C14.2829 0.389648 14.5127 0.574219 14.6358 0.697266C14.7589 0.820312 14.9271 1.02539 15.0133 1.14844C15.0953 1.27148 15.2512 1.55039 15.3538 1.76367C15.4605 1.97695 15.6328 2.26406 15.7436 2.39941C15.8503 2.53477 16.0144 2.68652 16.1005 2.73574C16.1908 2.78906 16.3631 2.86699 16.478 2.91211C16.597 2.95723 16.876 3.02285 17.0935 3.05977C17.315 3.09668 17.6227 3.17461 17.7828 3.23203C17.9387 3.28945 18.1807 3.4002 18.3161 3.47812C18.4515 3.56016 18.6854 3.74473 18.8331 3.89238C19.0793 4.13848 19.1162 4.1959 19.2147 4.51172C19.2762 4.70449 19.3501 5.01621 19.3706 5.20898C19.4075 5.47969 19.4034 5.64785 19.3583 5.96777C19.3255 6.19336 19.3008 6.63633 19.3008 7.52637L19.4855 7.82578C19.5881 7.98984 19.8342 8.30977 20.0394 8.53125C20.2404 8.75273 20.4702 9.03164 20.5399 9.15469C20.6138 9.27363 20.7205 9.48281 20.7779 9.61816C20.8313 9.75352 20.9092 10.0037 20.9502 10.1719C21.0159 10.459 21.0159 10.5 20.9543 10.7871C20.9215 10.9553 20.8436 11.2137 20.782 11.3613C20.7246 11.509 20.6138 11.7264 20.5399 11.8453C20.4702 11.9684 20.265 12.2268 20.0845 12.4195C19.9081 12.6164 19.7111 12.8502 19.6496 12.9404C19.5881 13.0307 19.4896 13.1988 19.4321 13.3096C19.3583 13.4572 19.3214 13.6131 19.3008 13.8633C19.2803 14.1053 19.2926 14.3432 19.3378 14.6426C19.3747 14.8805 19.4034 15.2291 19.4034 15.4219C19.4034 15.6146 19.3747 15.8977 19.3419 16.0576C19.3091 16.2135 19.2311 16.4719 19.1655 16.6277C19.0793 16.8492 19.0013 16.96 18.8085 17.1404C18.6731 17.2676 18.4515 17.4398 18.3161 17.5178C18.1807 17.5998 17.9387 17.7105 17.7828 17.768C17.6227 17.8254 17.3109 17.9033 17.0853 17.9443C16.8596 17.9813 16.5929 18.0428 16.4903 18.0756C16.3877 18.1084 16.2195 18.1822 16.1087 18.2355C15.9857 18.3012 15.8462 18.4201 15.719 18.5842C15.6123 18.7195 15.4153 19.0477 15.2799 19.3102C15.1446 19.5768 14.9353 19.9131 14.8204 20.0566C14.7014 20.2043 14.4963 20.4094 14.3691 20.5119C14.2378 20.6186 14.0655 20.7416 13.9875 20.7908C13.9096 20.8359 13.7413 20.9057 13.6183 20.9385C13.4952 20.9713 13.29 21 13.1669 21C13.0438 21 12.7648 20.9549 12.5515 20.9016C12.3053 20.8441 11.9771 20.717 11.6488 20.557C11.3657 20.4176 11.0252 20.274 10.8898 20.2412C10.7544 20.2084 10.5698 20.1797 10.4795 20.1797C10.3892 20.1797 10.1841 20.2166 10.0282 20.2658C9.86814 20.3109 9.5276 20.4504 9.26911 20.5693C9.01062 20.6924 8.61674 20.8359 8.39518 20.8934C8.15311 20.959 7.88641 21 7.70999 21C7.50894 21 7.36534 20.9754 7.22584 20.9139C7.11916 20.8646 6.93042 20.758 6.80734 20.6719C6.68425 20.5857 6.46679 20.3971 6.33139 20.2535C6.19189 20.1141 6.02367 19.9131 5.95802 19.8105C5.88827 19.708 5.75698 19.4701 5.66671 19.2773C5.57645 19.0846 5.41233 18.8098 5.30155 18.6662C5.19487 18.5227 5.04717 18.3627 4.98152 18.3135C4.91177 18.2602 4.73944 18.174 4.59174 18.1166C4.44403 18.0592 4.14862 17.9813 3.93526 17.9443C3.72191 17.9074 3.45111 17.85 3.34033 17.8131C3.22545 17.7803 2.98748 17.6736 2.80695 17.5793C2.58539 17.4645 2.38435 17.3168 2.1874 17.124C1.91661 16.8574 1.88789 16.8123 1.78531 16.4883C1.72377 16.2955 1.64992 15.9838 1.6294 15.791C1.59247 15.5203 1.59658 15.3521 1.64171 15.0322C1.67453 14.8066 1.69915 14.3637 1.69915 13.4736L1.50631 13.166C1.40374 12.9979 1.15346 12.682 0.952412 12.4605C0.75547 12.2432 0.529807 11.9684 0.460057 11.8453C0.386204 11.7264 0.279527 11.5172 0.222085 11.3818C0.168747 11.2465 0.0907904 10.9963 0.0497608 10.8281C-0.0158866 10.541 -0.0158866 10.5 0.0456578 10.2129C0.0784815 10.0447 0.156438 9.78633 0.217982 9.63867C0.275424 9.49102 0.386204 9.27363 0.460057 9.15469C0.529807 9.03164 0.75547 8.75273 0.960618 8.53125C1.16166 8.30977 1.41194 7.98984 1.69915 7.52637V6.95215C1.69915 6.63633 1.67453 6.19336 1.64171 5.96777C1.59247 5.64375 1.59247 5.48379 1.6253 5.20898C1.64992 5.01621 1.72377 4.70449 1.78531 4.51172C1.88789 4.1918 1.91661 4.14258 2.1874 3.87598C2.40076 3.6627 2.57718 3.53555 2.84798 3.4002C3.05313 3.29766 3.35675 3.18281 3.52497 3.1459C3.69319 3.10898 3.9804 3.05156 4.16093 3.01465C4.35787 2.97773 4.61225 2.8916 4.79689 2.80137C5.05948 2.66602 5.13743 2.60449 5.31796 2.3584C5.43695 2.19844 5.62568 1.88672 5.73646 1.66113C5.84724 1.43555 6.02367 1.13203 6.13445 0.988477C6.24523 0.844922 6.41755 0.652148 6.52013 0.566016C6.6227 0.475781 6.80734 0.336328 6.93043 0.254297C7.05351 0.172266 7.23815 0.0861328 7.34072 0.0574219C7.4433 0.0287109 7.65255 0.00410156 7.81256 0.00410156ZM6.44628 6.15645C6.35191 6.22207 6.22061 6.35332 6.15497 6.45176C6.08932 6.54609 6.00316 6.72656 5.96623 6.84961C5.90879 7.01777 5.90058 7.14082 5.91699 7.33359C5.93341 7.47305 5.98264 7.66582 6.02777 7.76426C6.07291 7.85859 6.16317 8.00215 6.22472 8.08008C6.29036 8.15801 6.46269 8.28926 6.60629 8.36719C6.84837 8.49844 6.8976 8.51074 7.21763 8.51074C7.54177 8.51074 7.5869 8.49844 7.83308 8.36309C8.01087 8.26465 8.15037 8.14844 8.25158 8.01445C8.33774 7.90371 8.43621 7.71094 8.47314 7.58789C8.52237 7.42383 8.53468 7.29258 8.51417 7.10801C8.50186 6.96445 8.44852 6.76348 8.39928 6.65684C8.34595 6.54609 8.23106 6.38613 8.1408 6.2959C8.05053 6.20566 7.88231 6.08672 7.77153 6.0334C7.63613 5.96777 7.47202 5.93086 7.27918 5.91855C7.08223 5.91035 6.93453 5.92676 6.80734 5.97187C6.70476 6.00879 6.54475 6.09082 6.44628 6.15645ZM9.99944 10.0775C7.12326 12.9568 6.60219 13.4941 6.58167 13.6172C6.56526 13.6951 6.56526 13.8346 6.58167 13.9248C6.60082 14.0342 6.661 14.1381 6.7622 14.2365C6.84837 14.3227 6.97145 14.4006 7.05351 14.417C7.13147 14.4334 7.27097 14.4334 7.36124 14.417C7.51305 14.3924 7.79615 14.1217 10.9431 10.9799C13.528 8.3959 14.3691 7.53457 14.4019 7.42383C14.4306 7.3459 14.4388 7.20644 14.4265 7.11621C14.4101 7.02598 14.365 6.90703 14.324 6.84961C14.2788 6.79219 14.2009 6.71426 14.1475 6.67324C14.0942 6.63223 13.9588 6.58711 13.8439 6.57891C13.7167 6.5666 13.5936 6.58301 13.5157 6.61992C13.4459 6.65273 11.8663 8.20723 9.99944 10.0775ZM13.0151 12.7189C12.9166 12.7846 12.7853 12.9158 12.7197 13.0143C12.6541 13.1086 12.5679 13.2891 12.531 13.4121C12.4776 13.5721 12.4612 13.7115 12.4776 13.8838C12.4899 14.0191 12.5433 14.2242 12.5966 14.335C12.65 14.4498 12.7689 14.6139 12.8592 14.7041C12.9495 14.7943 13.1177 14.9174 13.2285 14.9707C13.3967 15.0527 13.4952 15.0732 13.7824 15.0691C14.0737 15.0691 14.1639 15.0527 14.3363 14.9625C14.4512 14.9051 14.5948 14.8107 14.6645 14.7574C14.7302 14.7 14.8532 14.5359 14.9312 14.3924C15.0625 14.1504 15.0707 14.1012 15.0748 13.7812C15.0748 13.4941 15.0543 13.3957 14.9722 13.2275C14.9189 13.1168 14.7958 12.9486 14.7055 12.8584C14.6153 12.7682 14.4512 12.6492 14.3363 12.5959C14.2009 12.5303 14.0368 12.4934 13.8439 12.4811C13.647 12.4729 13.4993 12.4893 13.3721 12.5344C13.2695 12.5713 13.1095 12.6533 13.0151 12.7189Z" fill="#F14950"/>
</svg>
