<svg width="91" height="91" viewBox="0 0 91 91" fill="none" xmlns="http://www.w3.org/2000/svg">
<path d="M14 61.5L61.5 15.0564L90.0563 15.0564L14 89.5L14 61.5Z" fill="#FB6514"/>
<path d="M36.5774 53.1056C37.2423 53.7705 37.6873 54.4646 37.9123 55.1878C38.1372 55.9069 38.1613 56.606 37.9846 57.285C37.8098 57.962 37.4522 58.5706 36.9119 59.111C36.3715 59.6514 35.7618 60.01 35.0828 60.1867C34.4038 60.3595 33.7038 60.3344 32.9826 60.1114C32.2614 59.8844 31.5694 59.4394 30.9065 58.7765C30.2415 58.1116 29.7966 57.4196 29.5716 56.7004C29.3466 55.9772 29.3215 55.2772 29.4963 54.6002C29.673 53.9212 30.0316 53.3115 30.572 52.7712C31.1124 52.2308 31.721 51.8732 32.398 51.6984C33.077 51.5217 33.7771 51.5468 34.4983 51.7738C35.2194 51.9967 35.9125 52.4407 36.5774 53.1056ZM35.4534 54.2296C34.9854 53.7615 34.5173 53.4401 34.0493 53.2653C33.5812 53.0865 33.1363 53.0433 32.7144 53.1358C32.2906 53.2262 31.9109 53.4391 31.5754 53.7746C31.2399 54.11 31.027 54.4897 30.9366 54.9136C30.8442 55.3354 30.8864 55.7814 31.0632 56.2514C31.2399 56.7175 31.5624 57.1845 32.0304 57.6526C32.4985 58.1207 32.9665 58.4441 33.4346 58.6229C33.9026 58.7976 34.3486 58.8398 34.7725 58.7494C35.1943 58.657 35.573 58.4431 35.9084 58.1076C36.2439 57.7721 36.4579 57.3935 36.5503 56.9716C36.6407 56.5477 36.5975 56.1028 36.4207 55.6367C36.2439 55.1667 35.9215 54.6976 35.4534 54.2296Z" fill="white"/>
<path d="M40.7198 55.1343L34.5487 48.9632L38.5021 45.0098L39.4392 45.9469L36.6038 48.7824L38.2791 50.4577L40.8434 47.8935L41.7805 48.8306L39.2162 51.3949L41.8377 54.0164L40.7198 55.1343Z" fill="white"/>
<path d="M45.6917 50.1624L39.5206 43.9913L43.4739 40.038L44.4111 40.9751L41.5756 43.8105L43.251 45.4859L45.8152 42.9216L46.7523 43.8587L44.1881 46.423L46.8096 49.0445L45.6917 50.1624Z" fill="white"/>
<path d="M50.6635 45.1906L44.4924 39.0195L48.506 35.0058L49.4432 35.943L46.5474 38.8387L48.2228 40.514L50.9106 37.8262L51.8477 38.7634L49.1599 41.4512L50.8443 43.1356L53.7641 40.2157L54.7013 41.1529L50.6635 45.1906Z" fill="white"/>
<path d="M55.8177 40.0365L49.6466 33.8653L51.9607 31.5512C52.4348 31.0771 52.9149 30.7617 53.4011 30.605C53.8892 30.4463 54.3643 30.4333 54.8263 30.5658C55.2883 30.6944 55.7162 30.9556 56.11 31.3493C56.5057 31.745 56.7648 32.1729 56.8874 32.6329C57.0099 33.0889 56.9878 33.559 56.8211 34.0431C56.6523 34.5252 56.3309 35.0033 55.8568 35.4774L54.2086 37.1257L53.2805 36.1976L54.7781 34.7C55.0553 34.4228 55.2441 34.1576 55.3446 33.9045C55.443 33.6494 55.4601 33.4053 55.3958 33.1723C55.3315 32.9353 55.1899 32.7072 54.971 32.4883C54.752 32.2693 54.522 32.1257 54.2809 32.0574C54.0379 31.9871 53.7878 32.0001 53.5306 32.0966C53.2715 32.191 53.0023 32.3778 52.7231 32.657L51.6986 33.6815L56.9356 38.9185L55.8177 40.0365ZM56.2094 34.0522L60.5334 35.3207L59.2859 36.5682L54.989 35.2725L56.2094 34.0522Z" fill="white"/>
</svg>
